<svg width="469" height="763" viewBox="0 0 469 763" fill="none" xmlns="http://www.w3.org/2000/svg">
<path d="M7.49019 5.33696C1.89156 11.9644 0.0253495 21.7027 1.22506 40.503C3.22457 76.4805 5.35738 89.7354 11.8891 106.236C14.0219 111.376 16.1547 120.979 17.2212 129.5C18.2876 137.48 19.7539 146.542 20.5537 149.788C22.4199 156.686 29.0849 163.449 36.1499 165.748C38.9492 166.695 41.7485 167.912 42.415 168.453C42.9482 169.129 42.415 172.781 41.2153 176.568C36.6831 190.635 40.9487 207.136 55.8784 231.887C60.4106 239.597 60.5439 239.867 59.0776 247.712C55.8784 264.889 60.2773 274.898 76.2734 287.477C81.872 291.94 89.6035 298.432 93.2026 302.084C96.935 305.736 101.734 309.388 104.133 310.335C108.266 312.093 108.266 312.093 106.399 316.556C105.466 318.991 100.534 336.168 95.602 354.698L86.5376 388.241L86.6709 406.5C86.6709 419.079 87.7373 430.17 89.7368 442.207C93.6025 464.253 96.6684 474.398 104.267 489.681C112.665 506.723 114.931 514.297 117.197 532.286C121.329 565.829 124.662 670.245 121.996 684.447C120.129 694.861 118.396 696.484 109.998 696.079C99.2011 695.673 90.0034 702.436 84.0048 715.555C76.8066 731.245 78.5395 740.983 89.6035 745.717C98.8012 749.639 112.931 751.939 127.194 751.939C144.257 751.939 153.721 748.828 161.986 740.577L168.118 734.491L167.984 741.389C167.851 748.963 170.117 752.75 176.782 756.267C186.913 761.542 214.106 763.841 232.502 760.73C251.564 757.619 257.696 749.504 261.162 722.994C263.428 704.87 263.961 702.03 266.76 691.615L268.76 683.906L275.025 687.017C278.357 688.64 284.623 691.48 288.888 693.238L296.486 696.349L293.02 700.948C285.289 711.227 282.09 727.999 286.355 736.249C291.288 745.717 299.686 749.91 317.548 751.668C338.076 753.697 353.672 751.668 365.403 745.446C378.733 738.413 380.199 738.007 404.86 735.032C436.719 731.245 447.783 728.269 457.514 720.83C466.178 714.067 467.644 706.628 463.112 692.156C459.38 680.119 459.78 673.627 464.712 660.507C468.977 649.416 469.111 649.01 468.977 626.964C468.844 600.454 466.445 587.335 457.78 567.452C446.983 542.43 445.916 539.455 443.784 524.712C437.785 483.054 428.987 456.544 409.659 421.513C395.395 395.68 389.797 387.835 376.333 374.715C358.871 357.809 341.275 345.23 317.948 332.787C307.817 327.377 307.417 326.836 303.685 314.122C300.219 302.355 295.553 296.674 284.223 290.587C271.826 283.96 270.093 280.849 263.028 252.175C260.095 240.003 257.163 228.912 256.496 227.694C255.296 225.395 262.228 190.364 264.227 188.606C264.761 188.2 271.026 183.466 278.091 178.191C285.822 172.511 291.954 166.695 293.287 164.125C294.62 161.42 295.82 155.063 296.22 147.489C296.886 135.586 297.019 135.181 302.085 129.23C305.018 125.848 308.217 121.52 309.283 119.491C311.549 115.028 315.948 89.7354 317.148 73.7754C318.881 51.4585 313.415 20.8912 306.617 14.2637C299.686 7.77153 282.89 10.0708 269.56 19.4034C260.762 25.625 231.569 51.8643 221.038 63.2256C215.706 68.9063 206.242 79.9971 199.71 87.8418C191.312 98.3916 187.446 102.044 185.98 101.502C184.78 100.961 177.982 99.4737 170.784 97.9859C153.721 94.6045 140.524 94.6045 129.194 98.2564C124.262 99.7442 120.129 100.826 119.863 100.556C119.729 100.285 117.863 96.7686 115.864 92.711C113.598 87.9771 108.132 81.0791 100.667 73.7754C94.4023 67.4185 86.6709 58.8975 83.4716 54.7046C80.4057 50.5118 68.9419 38.2037 58.0112 27.3833C36.2832 5.60747 28.9516 0.738325 17.7544 0.738325C12.289 0.738325 10.956 1.27934 7.49019 5.33696ZM27.0854 12.2349C32.684 14.94 39.3491 20.7559 55.0786 36.9864C85.7378 68.23 89.4702 75.128 88.2705 98.6622C87.4707 114.893 83.6049 122.467 66.6757 141.132C49.4799 160.338 49.2133 160.338 41.8818 158.174C30.5512 154.793 27.8852 149.788 26.4189 129.23C25.7524 120.709 24.1528 114.081 20.4204 103.802C14.2885 87.1656 13.2221 81.3497 11.0893 55.6514C8.5566 23.8667 10.6894 8.85356 17.6211 8.85356C18.8208 8.85356 23.0864 10.4766 27.0854 12.2349ZM301.818 22.2437C307.15 32.523 309.816 62.4141 307.284 84.0547C304.218 108.806 302.218 115.298 295.42 122.737C289.021 129.771 287.422 134.775 287.289 149.788C287.155 153.305 286.489 157.498 285.689 159.256C285.022 161.014 278.624 166.695 271.692 171.835C264.627 177.109 258.096 182.384 256.896 183.602C255.83 184.819 253.43 192.664 251.697 200.914C242.633 243.654 232.102 260.155 205.842 272.463C198.644 275.845 174.249 281.661 172.916 280.308C172.783 280.038 174.249 277.603 176.116 274.763C178.915 270.976 179.448 269.217 178.382 267.459C175.982 263.672 173.983 264.078 169.451 269.488C167.185 272.328 162.919 276.927 160.12 279.632L155.054 284.772H139.458C126.794 284.772 122.262 284.095 115.197 281.661L106.533 278.55L106.133 272.869C105.733 267.459 106.133 266.783 113.731 259.344C123.329 250.147 125.195 245.007 120.396 241.085C117.597 238.785 115.464 238.515 101.067 239.056C83.0717 239.462 80.539 240.544 80.539 247.441C80.539 252.987 83.0717 256.503 90.5366 261.237C96.4018 265.024 96.5351 265.295 96.5351 272.328C96.5351 278.55 96.1352 279.632 93.3359 280.849C87.7373 283.554 81.6054 281.255 74.5405 273.816L67.8754 267.053V250.552C67.8754 234.998 67.6088 233.781 64.4096 228.506C54.812 213.763 46.5473 192.258 48.0136 186.442C48.5468 184.684 50.1464 183.872 54.0122 183.602L59.2109 183.331V188.741C59.2109 195.639 62.81 199.562 69.2085 199.562C74.6738 199.562 79.206 195.639 79.206 191.041C79.206 188.606 79.4726 188.471 80.539 190.094C81.3388 191.176 81.872 196.045 81.7387 200.914C81.4721 213.087 81.4721 213.087 85.0712 213.087C89.0703 213.087 91.2031 207.677 91.2031 197.939C91.2031 186.171 83.0717 174.945 73.0742 173.052C68.5419 172.24 57.2114 173.187 53.0791 174.81C48.1469 176.704 53.3457 168.588 65.3427 155.875C80.539 139.915 87.7373 130.717 92.0029 122.332C95.7353 114.757 98.4013 98.9327 97.6015 89.7354C97.2016 86.2188 97.3349 83.2432 97.8681 83.2432C99.7343 83.2432 103.333 88.3829 108.932 98.9327C115.464 111.511 116.53 111.917 129.594 107.318C139.858 103.802 151.988 103.396 166.518 106.101C180.248 108.806 180.381 108.941 172.65 115.569C165.318 121.791 164.385 124.225 168.384 126.524C170.517 127.606 172.25 126.93 177.449 123.008C186.513 115.975 195.578 107.048 204.775 95.6866C209.174 90.2764 213.04 85.9483 213.173 86.2188C213.44 86.4893 212.773 90.5469 211.574 95.4161C208.108 110.835 211.174 132.07 217.972 139.509C221.305 143.161 230.236 145.731 237.167 145.189C241.833 144.784 242.499 144.378 242.499 141.402C242.499 138.427 241.7 137.886 234.901 136.533C223.704 134.234 223.437 134.099 221.038 125.713C218.372 116.11 219.039 97.7154 222.504 88.6534C226.503 78.3741 241.833 56.0572 251.031 46.9952C262.894 35.3633 277.424 24.1373 283.823 21.8379C291.821 18.8623 300.085 19.1329 301.818 22.2437ZM254.497 255.692C261.428 284.231 265.561 291.399 279.024 298.297C288.222 302.896 291.821 306.683 294.487 314.527C297.819 324.13 302.885 350.505 303.951 363.895C305.018 378.097 306.217 381.072 310.216 380.531C314.215 379.99 314.482 375.392 311.949 355.645C310.749 346.853 310.083 339.549 310.35 339.279C311.416 338.197 337.676 354.427 349.273 363.219C364.47 374.715 375.8 385.4 382.998 394.868C391.13 405.553 410.192 440.043 417.123 456.679C424.055 473.316 431.253 500.772 434.453 522.142C437.252 542.024 438.052 544.73 446.583 563.53C456.581 585.712 459.247 597.208 460.046 622.906L460.713 643.871L455.781 658.749C450.182 675.52 450.049 680.389 455.114 695.943C457.38 703.112 457.647 705.276 456.314 708.387C452.848 716.773 437.785 722.047 406.859 725.699C377.666 729.081 378.333 728.945 363.936 735.979C357.271 739.225 349.007 742.2 345.541 742.741C339.542 743.553 339.276 743.418 338.343 739.901C337.676 737.196 338.476 734.085 341.009 728.81C342.875 724.888 344.475 720.424 344.475 718.801C344.475 715.42 341.142 714.067 338.343 716.367C334.344 719.613 329.811 730.839 329.811 737.196V743.282H323.946C320.747 743.282 316.215 742.877 313.949 742.471C310.35 741.659 309.816 740.983 309.816 737.196C309.816 734.356 311.683 730.163 315.148 724.888C318.081 720.424 320.48 715.961 320.48 714.744C320.48 712.174 317.415 710.551 314.615 711.633C311.816 712.715 303.151 726.646 301.285 733.003L299.686 738.413L296.753 735.438C292.621 731.245 291.954 726.917 294.353 718.396C296.886 709.739 301.552 703.518 308.35 700.136C317.015 695.673 334.21 690.669 346.874 688.775C358.338 687.017 359.937 687.152 368.202 689.451C373.934 691.074 382.065 692.156 391.13 692.292L405.126 692.562V689.181C405.126 685.258 402.061 684.176 391.13 683.906C346.474 682.959 314.615 646.982 314.615 597.884C314.615 580.031 316.881 570.428 325.146 553.251C334.077 534.18 349.54 518.49 360.737 516.732C370.602 515.244 371.268 514.838 370.868 510.916C370.468 507.535 370.068 507.264 364.203 507.535C353.006 507.805 348.607 510.24 335.677 523.359C325.146 533.909 322.613 537.561 317.415 548.517C301.952 580.842 301.685 614.791 316.615 645.899C321.014 655.097 324.479 659.695 333.144 668.487C344.208 679.442 344.741 681.065 337.676 681.065C336.21 681.065 328.878 683.094 321.28 685.664L307.55 690.128L295.686 685.799C289.155 683.5 281.023 679.983 277.558 678.225L271.159 674.979L287.688 624.935C296.753 597.343 308.483 562.448 313.815 547.164C324.879 515.515 325.546 509.564 320.614 491.169C317.548 479.267 317.015 466.823 319.281 452.351C320.347 445.183 320.347 442.478 319.147 440.99C315.282 436.256 312.216 440.043 310.35 452.081C307.817 467.905 308.083 477.373 311.949 493.063C313.949 501.313 315.148 509.564 314.748 512.674C314.482 515.65 307.417 537.832 299.152 562.042C278.491 622.636 260.895 677.819 257.163 693.915C255.43 701.354 253.297 713.526 252.497 720.965C249.964 743.959 244.366 751.127 228.37 751.803L221.171 752.074L220.771 747.61C220.505 745.041 221.171 740.712 222.371 737.872C224.104 733.544 224.104 732.462 222.504 730.298C221.038 728.269 220.105 727.999 218.239 729.216C214.64 731.38 210.774 743.012 211.574 748.963C212.24 753.562 211.974 754.103 209.174 754.103C197.71 754.103 196.244 751.939 199.71 740.036C201.976 732.462 201.31 729.757 197.177 729.757C194.911 729.757 193.578 731.109 191.978 735.167C190.779 738.143 189.846 741.795 189.846 743.147C189.846 750.18 187.18 751.533 180.515 748.016C177.315 746.393 176.516 745.041 176.516 741.524C176.649 730.974 186.247 718.937 196.777 716.232C208.774 713.121 211.707 710.01 216.239 695.943C219.705 685.394 225.57 656.044 230.369 625.611C232.369 613.303 235.301 595.315 236.901 585.712C240.9 561.772 240.9 535.938 236.768 520.79C231.702 501.448 219.305 469.934 215.306 465.606C212.64 462.766 208.508 463.848 208.508 467.364C208.508 468.717 211.174 476.156 214.373 483.865C225.17 509.564 231.036 530.393 231.169 543.377V549.734L210.907 536.75C187.18 521.601 177.982 514.703 170.384 506.317C164.785 500.231 154.254 481.566 151.055 472.369C148.922 466.147 145.723 462.901 142.657 464.118C139.725 465.336 139.991 468.852 143.99 478.59C149.722 492.792 159.453 508.211 167.718 516.597L175.582 524.577L174.783 558.525C174.116 589.769 171.717 620.201 166.385 665.511C165.318 675.114 163.852 692.562 163.319 704.059C162.119 726.917 160.786 731.515 153.988 736.384C150.522 738.954 137.192 743.282 132.926 743.282C129.994 743.282 129.327 734.22 131.86 727.593C133.859 722.183 133.993 721.101 132.26 719.478C129.327 716.367 126.394 718.531 123.195 725.97C121.062 731.109 120.529 734.356 121.062 738.278L121.996 743.688L117.73 742.741C115.464 742.336 112.131 741.93 110.398 741.93C105.733 741.93 106.266 737.331 111.865 728.54C115.464 722.859 116.13 720.695 115.064 718.801C114.397 717.314 112.931 716.232 111.865 716.232C109.199 716.232 100.934 727.863 98.9345 734.085C98.1347 736.925 97.2016 739.225 96.935 739.225C96.6684 739.225 94.6689 738.278 92.5361 737.196C87.7373 734.626 87.4707 731.38 91.2031 721.101C92.936 716.637 95.8686 712.039 98.6679 709.604C102.8 705.817 104.267 705.411 111.865 705.411C119.463 705.411 120.796 705.005 124.128 701.489C130.527 694.997 131.193 690.263 131.193 649.146C131.193 587.74 127.861 532.557 123.062 513.351C121.596 507.805 116.93 495.632 112.531 486.3C101.467 462.63 95.3354 433.821 95.2021 405.012C95.2021 391.216 96.6684 384.183 109.865 336.033L115.73 314.933L125.061 313.986C137.858 312.904 149.056 307.224 157.454 297.756L163.852 290.587L176.516 288.964C183.447 288.018 192.778 286.395 197.177 285.313C216.239 280.308 237.301 264.213 245.699 248.253C248.098 243.654 250.231 240.138 250.498 240.408C250.631 240.679 252.497 247.441 254.497 255.692ZM110.665 289.641C117.597 292.211 123.329 293.293 133.593 293.834L147.323 294.645L144.257 297.891C138.258 304.383 118.263 307.224 109.065 302.896C106.533 301.678 102.4 298.432 99.8676 295.862L95.2021 290.858L98.1347 288.559C99.8676 287.206 101.334 286.124 101.334 286.124C101.467 286.124 105.733 287.747 110.665 289.641ZM209.174 546.217C217.306 551.492 225.57 556.632 227.57 557.849C231.969 560.284 231.969 557.038 226.503 593.15C220.505 632.78 217.439 649.957 216.373 649.957C214.506 649.957 196.911 631.698 193.445 626.152C191.579 623.177 189.046 617.361 187.846 613.303C185.313 604.782 183.581 573.809 184.247 548.111L184.78 530.798L189.579 533.909C192.245 535.532 201.176 541.078 209.174 546.217ZM201.31 648.199L215.173 661.995L212.507 674.573C207.041 700.136 203.976 705.817 195.311 707.305C188.913 708.252 178.648 715.285 174.383 721.506L171.05 726.376L171.85 710.145C172.65 693.103 178.915 626.423 180.115 622.906C180.515 621.554 181.981 623.312 184.114 627.64C186.247 631.833 192.778 639.678 201.31 648.199Z" fill="white"/>
<path d="M167.318 176.568C154.654 179.273 146.523 188.2 140.524 205.918C137.059 216.333 137.592 220.255 142.124 219.579C144.39 219.309 145.99 216.739 149.322 207.812C153.321 197.397 156.92 191.446 159.186 191.446C159.72 191.446 160.786 193.881 161.719 196.856C165.318 209.029 179.182 202.537 179.182 188.741C179.182 184.278 179.981 184.007 187.58 186.171C193.711 187.93 194.111 191.176 188.779 199.697C180.781 212.411 171.45 216.739 161.853 212.411C157.587 210.382 156.254 210.382 154.521 211.734C151.722 214.169 151.988 216.604 155.587 219.173C165.185 226.071 179.315 223.907 189.046 214.034C195.311 207.677 201.843 195.504 201.843 190.094C201.843 185.36 198.377 180.761 193.311 178.597C187.446 176.163 174.383 175.081 167.318 176.568Z" fill="white"/>
<path d="M203.709 234.728C199.977 237.703 191.312 242.572 184.38 245.413C173.716 250.011 171.85 251.229 171.85 253.934C171.85 256.233 172.65 257.18 175.183 257.45C182.781 258.397 215.306 240.679 217.172 234.728C219.438 227.559 212.773 227.694 203.709 234.728Z" fill="white"/>
</svg>
