<?xml version="1.0" encoding="UTF-8" standalone="no"?>
<!-- Created with Inkscape (http://www.inkscape.org/) -->

<svg
   width="237.2195"
   height="236.12463"
   viewBox="0 0 237.2195 236.12463"
   version="1.1"
   id="svg1"
   xml:space="preserve"
   inkscape:version="1.3.2 (091e20ef0f, 2023-11-25)"
   sodipodi:docname="wreck-logo-sized-for-export.svg"
   inkscape:export-filename="wreck-logo-0.png"
   inkscape:export-xdpi="103.60025"
   inkscape:export-ydpi="103.60025"
   xmlns:inkscape="http://www.inkscape.org/namespaces/inkscape"
   xmlns:sodipodi="http://sodipodi.sourceforge.net/DTD/sodipodi-0.dtd"
   xmlns="http://www.w3.org/2000/svg"
   xmlns:svg="http://www.w3.org/2000/svg"><sodipodi:namedview
     id="namedview1"
     pagecolor="#ffffff"
     bordercolor="#111111"
     borderopacity="1"
     inkscape:showpageshadow="0"
     inkscape:pageopacity="0"
     inkscape:pagecheckerboard="1"
     inkscape:deskcolor="#d1d1d1"
     inkscape:document-units="px"
     inkscape:zoom="2.0390625"
     inkscape:cx="119.41762"
     inkscape:cy="130.45211"
     inkscape:window-width="1366"
     inkscape:window-height="720"
     inkscape:window-x="0"
     inkscape:window-y="0"
     inkscape:window-maximized="1"
     inkscape:current-layer="layer1"
     inkscape:clip-to-page="true" /><defs
     id="defs1" /><g
     inkscape:label="Layer 1"
     inkscape:groupmode="layer"
     id="layer1"
     transform="translate(-10.102963,-14.928456)"><g
       id="g1"
       transform="matrix(0.28534577,0,0,0.28534577,121.86962,62.809765)"><path
         style="fill:#d7ebff"
         d="M 439.652,150.261 V 16.696 C 439.652,7.473 432.174,0 422.957,0 H 300.522 c -6.327,0 -12.109,3.571 -14.935,9.228 l -27.826,66.783 c -4.119,8.25 -0.782,18.277 7.467,22.402 L 309.533,123.342 256,195.293 V 150.26 c 0,-6.327 -3.576,-12.103 -9.228,-14.935 L 198.5,108.413 227.316,21.973 C 229.011,16.886 228.164,11.288 225.022,6.935 221.88,2.582 216.848,0 211.478,0 H 89.043 C 79.826,0 72.347,7.473 72.347,16.696 v 133.565 c 0,82.37 55.402,154.597 133.565,176.722 v 84.843 h -16.696 c -46.032,0 -83.478,37.446 -83.478,83.478 0,9.223 7.479,16.696 16.696,16.696 h 267.13 c 9.217,0 16.696,-7.473 16.696,-16.696 0,-46.032 -37.446,-83.478 -83.478,-83.478 H 306.086 V 326.983 C 384.25,304.858 439.652,232.631 439.652,150.261 Z"
         id="path1" /><path
         style="fill:#c4e2ff"
         d="M 422.957,0 H 300.522 c -6.327,0 -12.109,3.571 -14.935,9.228 l -27.826,66.783 c -4.119,8.25 -0.782,18.277 7.467,22.402 L 309.533,123.342 256,195.293 V 512 h 133.565 c 9.217,0 16.696,-7.473 16.696,-16.696 0,-46.032 -37.446,-83.478 -83.478,-83.478 H 306.087 V 326.983 C 384.25,304.858 439.652,232.63 439.652,150.261 V 16.696 C 439.652,7.473 432.174,0 422.957,0 Z"
         id="path2" /></g><g
       id="g2"
       transform="matrix(0.26987445,-0.13476392,0.13476392,0.26987445,22.331237,126.40228)"><path
         style="fill:#e15649"
         d="M 423.724,264.52 H 141.241 c -9.71,0 -17.655,-7.945 -17.655,-17.655 v -88.276 c 0,-9.71 7.945,-17.655 17.655,-17.655 h 282.483 c 9.71,0 17.655,7.945 17.655,17.655 v 88.276 c 0,9.71 -7.945,17.655 -17.655,17.655"
         id="path1-3" /><path
         style="fill:#bc342e"
         d="m 467.862,238.037 h -26.483 v -70.621 h 26.483 c 5.297,0 8.828,3.531 8.828,8.828 v 52.966 c 0,5.296 -3.531,8.827 -8.828,8.827"
         id="path2-6" /><path
         style="fill:#a3aaaf"
         d="M 503.172,220.382 H 476.69 v -35.31 h 26.483 c 5.297,0 8.828,3.531 8.828,8.828 v 17.655 c -10e-4,5.296 -3.532,8.827 -8.829,8.827"
         id="path3" /><path
         style="fill:#bc342e"
         d="m 228.634,325.43 -10.593,-60.91 h -51.2 -7.945 l 21.186,92.69 c 2.648,9.71 12.359,15.89 22.069,13.241 18.538,-5.297 30.014,-24.717 26.483,-43.255 z"
         id="path4" /><path
         style="fill:#e15649"
         d="m 83.862,189.486 c 0,-1.766 0.883,-2.648 0.883,-4.414 H 51.2 L 24.717,160.355 0,185.072 l 37.076,35.31 h 44.138 z"
         id="path5" /><g
         id="g10">
	<path
   style="fill:#bc342e"
   d="M 361.931,202.727 H 203.034 c -9.71,0 -17.655,-7.945 -17.655,-17.655 v -44.138 h 194.207 v 44.138 c 0,9.71 -7.945,17.655 -17.655,17.655"
   id="path6" />
	<path
   style="fill:#bc342e"
   d="m 123.586,246.865 v -88.276 h -5.297 c -17.655,0 -32.662,13.241 -35.31,30.897 L 71.503,351.913 c -0.883,9.71 7.062,18.538 17.655,18.538 19.421,0 36.193,-14.124 37.959,-33.545 v -1.766 l 5.297,-70.621 0.883,-1.766 c -5.297,-2.647 -9.711,-8.826 -9.711,-15.888"
   id="path7" />
	<path
   style="fill:#bc342e"
   d="m 388.414,229.21 c -5.297,0 -8.828,3.531 -8.828,8.828 v 26.483 h 17.655 v -26.483 c 0,-5.297 -3.531,-8.828 -8.827,-8.828"
   id="path8" />
	<path
   style="fill:#bc342e"
   d="m 317.793,229.21 c -5.297,0 -8.828,3.531 -8.828,8.828 v 26.483 h 17.655 v -26.483 c 10e-4,-5.297 -3.53,-8.828 -8.827,-8.828"
   id="path9" />
	<path
   style="fill:#bc342e"
   d="m 247.172,229.21 c -5.297,0 -8.828,3.531 -8.828,8.828 v 26.483 H 256 v -26.483 c 0,-5.297 -3.531,-8.828 -8.828,-8.828"
   id="path10" />
</g></g><g
       id="g3"
       transform="matrix(0.12891503,0,0,0.12891503,18.234628,43.443495)"><circle
         style="fill:#fddf6d"
         cx="256.00101"
         cy="256.00101"
         r="245.993"
         id="circle1" /><path
         d="m 191.392,280.553 c -3.86,0 -7.536,-2.246 -9.177,-6.01 -2.21,-5.066 0.107,-10.964 5.172,-13.174 l 41.054,-17.902 -41.094,-18.143 c -5.057,-2.232 -7.345,-8.141 -5.114,-13.198 2.232,-5.057 8.145,-7.344 13.196,-5.113 l 61.96,27.353 c 3.635,1.604 5.975,5.205 5.966,9.177 -0.009,3.974 -2.366,7.563 -6.007,9.151 l -61.96,27.02 c -1.303,0.571 -2.662,0.839 -3.996,0.839 z"
         id="path1-7" /><path
         d="m 445.886,274.545 c -1.641,3.764 -5.317,6.01 -9.177,6.01 -1.334,0 -2.693,-0.268 -3.995,-0.837 l -61.96,-27.02 c -3.641,-1.588 -5.998,-5.178 -6.007,-9.151 -0.009,-3.972 2.332,-7.574 5.966,-9.177 l 61.96,-27.353 c 5.053,-2.232 10.964,0.056 13.196,5.113 2.232,5.057 -0.057,10.965 -5.114,13.198 l -41.094,18.143 41.054,17.902 c 5.066,2.209 7.381,8.106 5.171,13.172 z"
         id="path2-5" /><path
         style="fill:#fcc56b"
         d="m 308.715,465.677 c -135.858,0 -245.992,-110.134 -245.992,-245.992 0,-72.584 31.443,-137.816 81.444,-182.842 -79.64,40.719 -134.16,123.57 -134.16,219.156 0,135.858 110.134,245.992 245.992,245.992 63.274,0 120.962,-23.897 164.548,-63.149 -33.55,17.156 -71.561,26.835 -111.832,26.835 z"
         id="path3-3" /><path
         d="m 245.377,396.549 c -2.561,0 -5.122,-0.977 -7.077,-2.93 -3.908,-3.91 -3.908,-10.245 0,-14.153 l 16.196,-16.196 c 3.91,-3.907 10.246,-3.907 14.152,0 l 8.598,8.597 12.428,-12.429 c 1.877,-1.876 4.422,-2.93 7.077,-2.93 v 0 c 2.654,0 5.198,1.054 7.077,2.931 l 12.776,12.777 14.17,-14.172 c 3.91,-3.907 10.245,-3.907 14.153,0 l 11.731,11.733 9.47,-9.468 c 3.908,-3.908 10.246,-3.906 14.15,0 l 16.719,16.718 c 3.91,3.908 3.91,10.245 10e-4,14.152 -3.91,3.91 -10.246,3.908 -14.152,0.001 l -9.644,-9.643 -9.47,9.468 c -3.908,3.908 -10.245,3.906 -14.152,0 l -11.731,-11.733 -14.17,14.172 c -1.877,1.876 -4.422,2.93 -7.077,2.93 v 0 c -2.654,0 -5.198,-1.054 -7.077,-2.931 l -12.776,-12.777 -12.428,12.429 c -3.91,3.907 -10.246,3.907 -14.152,0 l -8.598,-8.597 -9.119,9.12 c -1.953,1.953 -4.515,2.931 -7.075,2.931 z"
         id="path4-5" /><path
         d="M 470.486,116.194 C 444.029,75.684 406.875,43.593 363.043,23.389 c -5.025,-2.314 -10.964,-0.12 -13.278,4.9 -2.312,5.02 -0.12,10.964 4.9,13.278 40.412,18.626 74.668,48.217 99.064,85.572 25.028,38.321 38.256,82.881 38.256,128.862 0,130.123 -105.863,235.983 -235.985,235.983 -130.122,0 -235.985,-105.861 -235.985,-235.983 0,-130.122 105.862,-235.986 235.984,-235.986 5.528,0 10.007,-4.479 10.007,-10.007 C 266.006,4.48 261.527,0 255.999,0 114.84,0 0,114.841 0,256.001 c 0,141.158 114.84,255.998 255.999,255.998 141.159,0 255.999,-114.84 255.999,-255.998 C 512,206.122 497.644,157.778 470.486,116.194 Z"
         id="path5-6" /><path
         d="M 254.496,363.267 238.3,379.463 c -3.908,3.91 -3.908,10.245 0,14.153 1.955,1.953 4.517,2.93 7.077,2.93 2.56,0 5.122,-0.977 7.077,-2.93 l 9.119,-9.12 8.597,8.598 c 1.877,1.876 4.422,2.93 7.077,2.93 2.655,0 5.198,-1.054 7.077,-2.931 l 12.428,-12.428 12.776,12.776 c 1.877,1.877 4.422,2.931 7.077,2.931 2.655,0 5.198,-1.054 7.077,-2.93 l 14.17,-14.172 11.731,11.733 c 1.876,1.877 4.422,2.931 7.077,2.931 2.655,0 5.198,-1.054 7.077,-2.93 l 9.468,-9.47 9.644,9.643 c 3.907,3.907 10.243,3.908 14.152,-0.001 3.908,-3.908 3.908,-10.245 -10e-4,-14.152 l -16.719,-16.718 c -3.907,-3.907 -10.243,-3.907 -14.152,0 l -9.468,9.47 -11.731,-11.733 c -1.877,-1.877 -4.422,-2.931 -7.077,-2.931 -2.655,0 -5.198,1.054 -7.077,2.93 l -14.17,14.172 -12.776,-12.777 c -1.877,-1.877 -4.422,-2.931 -7.077,-2.931 -2.655,0 -5.198,1.054 -7.077,2.931 l -12.428,12.429 -8.597,-8.598 c -3.911,-3.906 -10.246,-3.906 -14.155,-10e-4 z"
         id="path6-2" /><circle
         cx="324.74399"
         cy="20.014999"
         r="10.007"
         id="circle6" /></g><text
       xml:space="preserve"
       style="font-style:normal;font-weight:normal;font-size:41.7435px;line-height:1.25;font-family:sans-serif;fill:#000000;fill-opacity:1;stroke:none;stroke-width:1.04356"
       x="14.181724"
       y="242.37012"
       id="text3"><tspan
         sodipodi:role="line"
         id="tspan3"
         style="stroke-width:1.04356"
         x="14.181724"
         y="242.37012">$&gt; reqs fix</tspan></text><text
       xml:space="preserve"
       style="font-style:normal;font-variant:normal;font-weight:800;font-stretch:condensed;font-size:50.0895px;line-height:1.25;font-family:'Open Sans';-inkscape-font-specification:'Open Sans, Ultra-Bold Condensed';font-variant-ligatures:normal;font-variant-caps:normal;font-variant-numeric:normal;font-variant-east-asian:normal;fill:#000000;fill-opacity:1;stroke:none;stroke-width:1.04356"
       x="-54.196461"
       y="159.86401"
       id="text4"
       transform="rotate(-26.266497)"><tspan
         sodipodi:role="line"
         id="tspan4"
         style="font-style:normal;font-variant:normal;font-weight:800;font-stretch:condensed;font-size:50.0895px;font-family:'Open Sans';-inkscape-font-specification:'Open Sans, Ultra-Bold Condensed';font-variant-ligatures:normal;font-variant-caps:normal;font-variant-numeric:normal;font-variant-east-asian:normal;stroke-width:1.04356"
         x="-54.196461"
         y="159.86401">wreck</tspan></text><text
       xml:space="preserve"
       style="font-style:normal;font-weight:normal;font-size:33.3949px;line-height:1.25;font-family:sans-serif;fill:#000000;fill-opacity:1;stroke:none;stroke-width:1.04356"
       x="13.035865"
       y="39.974632"
       id="text5"><tspan
         sodipodi:role="line"
         id="tspan5"
         style="font-style:normal;font-variant:normal;font-weight:600;font-stretch:condensed;font-size:33.3949px;font-family:'Open Sans';-inkscape-font-specification:'Open Sans, Semi-Bold Condensed';font-variant-ligatures:normal;font-variant-caps:normal;font-variant-numeric:normal;font-variant-east-asian:normal;stroke-width:1.04356"
         x="13.035865"
         y="39.974632">Fixes requirements</tspan></text></g></svg>
