<svg height="250" viewBox="0 0 154.78126 66.145833" width="585" xmlns="http://www.w3.org/2000/svg"><text font-family="Open Sans" font-size="4.93889" stroke-width=".264583" x="72.953476" y="61.473801"><tspan font-family="Open Sans" font-size="4.93889" x="72.953476" y="61.473801">Minimal configuration</tspan></text><g font-family="Sans" stroke-width=".264583" transform="translate(-1.987184 -23.109304)"><text font-size="4.93889" x="75.197052" y="56.998768"><tspan font-family="Open Sans" font-size="4.93889" x="75.197052" y="56.998768">conflicts</tspan></text><text font-size="5.64444" x="74.940659" y="50.883163"><tspan font-family="Open Sans" font-size="4.93889" x="74.940659" y="50.883163"><tspan font-family="Open Sans" font-size="4.93889" x="74.940659" y="50.883163">Minimize likelihood of dependency</tspan></tspan><tspan x="74.940659" y="57.938713"/><tspan x="74.940659" y="64.994263"/><tspan x="74.940659" y="72.049812"/></text></g><g transform="matrix(.26458333 0 0 .26458333 .469957 -.81543)"><g transform="matrix(.28534577 0 0 .28534577 121.86962 62.809765)"><path d="m439.652 150.261v-133.565c0-9.223-7.478-16.696-16.695-16.696h-122.435c-6.327 0-12.109 3.571-14.935 9.228l-27.826 66.783c-4.119 8.25-.782 18.277 7.467 22.402l44.305 24.929-53.533 71.951v-45.033c0-6.327-3.576-12.103-9.228-14.935l-48.272-26.912 28.816-86.44c1.695-5.087.848-10.685-2.294-15.038s-8.174-6.935-13.544-6.935h-122.435c-9.217 0-16.696 7.473-16.696 16.696v133.565c0 82.37 55.402 154.597 133.565 176.722v84.843h-16.696c-46.032 0-83.478 37.446-83.478 83.478 0 9.223 7.479 16.696 16.696 16.696h267.13c9.217 0 16.696-7.473 16.696-16.696 0-46.032-37.446-83.478-83.478-83.478h-16.696v-84.843c78.164-22.125 133.566-94.352 133.566-176.722z" fill="#d7ebff"/><path d="m422.957 0h-122.435c-6.327 0-12.109 3.571-14.935 9.228l-27.826 66.783c-4.119 8.25-.782 18.277 7.467 22.402l44.305 24.929-53.533 71.951v316.707h133.565c9.217 0 16.696-7.473 16.696-16.696 0-46.032-37.446-83.478-83.478-83.478h-16.696v-84.843c78.163-22.125 133.565-94.353 133.565-176.722v-133.565c0-9.223-7.478-16.696-16.695-16.696z" fill="#c4e2ff"/></g><g transform="matrix(.26987445 -.13476392 .13476392 .26987445 22.331237 126.40228)"><path d="m423.724 264.52h-282.483c-9.71 0-17.655-7.945-17.655-17.655v-88.276c0-9.71 7.945-17.655 17.655-17.655h282.483c9.71 0 17.655 7.945 17.655 17.655v88.276c0 9.71-7.945 17.655-17.655 17.655" fill="#e15649"/><path d="m467.862 238.037h-26.483v-70.621h26.483c5.297 0 8.828 3.531 8.828 8.828v52.966c0 5.296-3.531 8.827-8.828 8.827" fill="#bc342e"/><path d="m503.172 220.382h-26.482v-35.31h26.483c5.297 0 8.828 3.531 8.828 8.828v17.655c-.001 5.296-3.532 8.827-8.829 8.827" fill="#a3aaaf"/><path d="m228.634 325.43-10.593-60.91h-51.2-7.945l21.186 92.69c2.648 9.71 12.359 15.89 22.069 13.241 18.538-5.297 30.014-24.717 26.483-43.255z" fill="#bc342e"/><path d="m83.862 189.486c0-1.766.883-2.648.883-4.414h-33.545l-26.483-24.717-24.717 24.717 37.076 35.31h44.138z" fill="#e15649"/><g fill="#bc342e"><path d="m361.931 202.727h-158.897c-9.71 0-17.655-7.945-17.655-17.655v-44.138h194.207v44.138c0 9.71-7.945 17.655-17.655 17.655"/><path d="m123.586 246.865v-88.276h-5.297c-17.655 0-32.662 13.241-35.31 30.897l-11.476 162.427c-.883 9.71 7.062 18.538 17.655 18.538 19.421 0 36.193-14.124 37.959-33.545v-1.766l5.297-70.621.883-1.766c-5.297-2.647-9.711-8.826-9.711-15.888"/><path d="m388.414 229.21c-5.297 0-8.828 3.531-8.828 8.828v26.483h17.655v-26.483c0-5.297-3.531-8.828-8.827-8.828"/><path d="m317.793 229.21c-5.297 0-8.828 3.531-8.828 8.828v26.483h17.655v-26.483c.001-5.297-3.53-8.828-8.827-8.828"/><path d="m247.172 229.21c-5.297 0-8.828 3.531-8.828 8.828v26.483h17.656v-26.483c0-5.297-3.531-8.828-8.828-8.828"/></g></g><g transform="matrix(.12891503 0 0 .12891503 18.234628 43.443495)"><circle cx="256.00101" cy="256.00101" fill="#fddf6d" r="245.993"/><path d="m191.392 280.553c-3.86 0-7.536-2.246-9.177-6.01-2.21-5.066.107-10.964 5.172-13.174l41.054-17.902-41.094-18.143c-5.057-2.232-7.345-8.141-5.114-13.198 2.232-5.057 8.145-7.344 13.196-5.113l61.96 27.353c3.635 1.604 5.975 5.205 5.966 9.177-.009 3.974-2.366 7.563-6.007 9.151l-61.96 27.02c-1.303.571-2.662.839-3.996.839z"/><path d="m445.886 274.545c-1.641 3.764-5.317 6.01-9.177 6.01-1.334 0-2.693-.268-3.995-.837l-61.96-27.02c-3.641-1.588-5.998-5.178-6.007-9.151-.009-3.972 2.332-7.574 5.966-9.177l61.96-27.353c5.053-2.232 10.964.056 13.196 5.113s-.057 10.965-5.114 13.198l-41.094 18.143 41.054 17.902c5.066 2.209 7.381 8.106 5.171 13.172z"/><path d="m308.715 465.677c-135.858 0-245.992-110.134-245.992-245.992 0-72.584 31.443-137.816 81.444-182.842-79.64 40.719-134.16 123.57-134.16 219.156 0 135.858 110.134 245.992 245.992 245.992 63.274 0 120.962-23.897 164.548-63.149-33.55 17.156-71.561 26.835-111.832 26.835z" fill="#fcc56b"/><path d="m245.377 396.549c-2.561 0-5.122-.977-7.077-2.93-3.908-3.91-3.908-10.245 0-14.153l16.196-16.196c3.91-3.907 10.246-3.907 14.152 0l8.598 8.597 12.428-12.429c1.877-1.876 4.422-2.93 7.077-2.93 2.654 0 5.198 1.054 7.077 2.931l12.776 12.777 14.17-14.172c3.91-3.907 10.245-3.907 14.153 0l11.731 11.733 9.47-9.468c3.908-3.908 10.246-3.906 14.15 0l16.719 16.718c3.91 3.908 3.91 10.245.001 14.152-3.91 3.91-10.246 3.908-14.152.001l-9.644-9.643-9.47 9.468c-3.908 3.908-10.245 3.906-14.152 0l-11.731-11.733-14.17 14.172c-1.877 1.876-4.422 2.93-7.077 2.93-2.654 0-5.198-1.054-7.077-2.931l-12.776-12.777-12.428 12.429c-3.91 3.907-10.246 3.907-14.152 0l-8.598-8.597-9.119 9.12c-1.953 1.953-4.515 2.931-7.075 2.931z"/><path d="m470.486 116.194c-26.457-40.51-63.611-72.601-107.443-92.805-5.025-2.314-10.964-.12-13.278 4.9-2.312 5.02-.12 10.964 4.9 13.278 40.412 18.626 74.668 48.217 99.064 85.572 25.028 38.321 38.256 82.881 38.256 128.862 0 130.123-105.863 235.983-235.985 235.983s-235.985-105.861-235.985-235.983 105.862-235.986 235.984-235.986c5.528 0 10.007-4.479 10.007-10.007 0-5.528-4.479-10.008-10.007-10.008-141.159 0-255.999 114.841-255.999 256.001 0 141.158 114.84 255.998 255.999 255.998s255.999-114.84 255.999-255.998c.002-49.879-14.354-98.223-41.512-139.807z"/><path d="m254.496 363.267-16.196 16.196c-3.908 3.91-3.908 10.245 0 14.153 1.955 1.953 4.517 2.93 7.077 2.93s5.122-.977 7.077-2.93l9.119-9.12 8.597 8.598c1.877 1.876 4.422 2.93 7.077 2.93s5.198-1.054 7.077-2.931l12.428-12.428 12.776 12.776c1.877 1.877 4.422 2.931 7.077 2.931s5.198-1.054 7.077-2.93l14.17-14.172 11.731 11.733c1.876 1.877 4.422 2.931 7.077 2.931s5.198-1.054 7.077-2.93l9.468-9.47 9.644 9.643c3.907 3.907 10.243 3.908 14.152-.001 3.908-3.908 3.908-10.245-.001-14.152l-16.719-16.718c-3.907-3.907-10.243-3.907-14.152 0l-9.468 9.47-11.731-11.733c-1.877-1.877-4.422-2.931-7.077-2.931s-5.198 1.054-7.077 2.93l-14.17 14.172-12.776-12.777c-1.877-1.877-4.422-2.931-7.077-2.931s-5.198 1.054-7.077 2.931l-12.428 12.429-8.597-8.598c-3.911-3.906-10.246-3.906-14.155-.001z"/><circle cx="324.74399" cy="20.014999" r="10.007"/></g><g stroke-width="1.04356"><text font-family="sans-serif" font-size="41.7435" x="14.181724" y="242.37012"><tspan stroke-width="1.04356" x="14.181724" y="242.37012">$&gt; reqs fix</tspan></text><text font-family="'Open Sans'" font-size="50.0895" font-stretch="condensed" font-weight="800" transform="matrix(.89674536 -.44254691 .44254691 .89674536 0 0)" x="-54.196461" y="159.86401"><tspan font-family="'Open Sans'" font-size="50.0895" font-stretch="condensed" font-weight="800" stroke-width="1.04356" x="-54.196461" y="159.86401">wreck</tspan></text><text font-family="sans-serif" font-size="33.3949" x="13.035865" y="39.974632"><tspan font-family="'Open Sans'" font-size="33.3949" font-stretch="condensed" font-weight="600" stroke-width="1.04356" x="13.035865" y="39.974632">Fixes requirements</tspan></text></g></g><g font-family="sans-serif" font-size="10.5833" stroke-width=".264583"><text x="72.953476" y="16.063221"><tspan font-family="Open Sans" font-size="4.93889" stroke-width=".264583" x="72.953476" y="16.063221">For one venv, compile and render</tspan></text><g transform="translate(-.593588 3.74158)"><text x="73.802689" y="40.195915"><tspan font-family="Open Sans" font-size="4.93889" stroke-width=".264583" x="73.802689" y="40.195915">For authors of Python apps</tspan></text><text x="73.802689" y="46.545921"><tspan font-family="Open Sans" font-size="4.93889" stroke-width=".264583" x="73.802689" y="46.545921">and packages</tspan></text></g></g></svg>
