<svg id="Capa_1" data-name="Capa 1" xmlns="http://www.w3.org/2000/svg" viewBox="0 0 1011.96 153.05"><title>logo hor IRSJD R-rgb</title><path d="M27.8,420.23q0-35.58,0-71.15c0-1.24.32-1.49,1.51-1.49,17.31,0,34.63,0,52,.05,9.06,0,17.92,1.39,26.22,5.24,12.52,5.82,20.41,15.57,24,28.81a56.62,56.62,0,0,1,2,15c0,15.68.06,31.36,0,47,0,9.79-2.05,19.13-7.32,27.53-6.27,10-15.39,16.12-26.66,19.21a76.19,76.19,0,0,1-20.17,2.41c-16.75,0-33.51,0-50.27,0-1.13,0-1.26-.36-1.26-1.34Q27.82,455.92,27.8,420.23Zm32.09.08v41.27c0,2.55,0,2.58,2.53,2.54,7-.1,14.08.4,21.1-.26,7.71-.73,13.35-4.51,16.22-11.92a26.59,26.59,0,0,0,1.64-9.75q0-22,0-43.91a24.68,24.68,0,0,0-3-12.67c-3.52-6-9.1-8.69-15.82-9.05-7.11-.39-14.23-.06-21.35-.17-1.06,0-1.32.28-1.32,1.33Q59.92,399,59.89,420.31Z" transform="translate(209.9 -342.23)" fill="#db291e"/><path d="M-125.7,392.57c-4.92,0-9.84,0-14.76,0-.91,0-1.14-.25-1.12-1.14a32.48,32.48,0,0,0-.33-7.17,14,14,0,0,0-7.53-10,20.69,20.69,0,0,0-18.4-.59c-8.78,3.84-10.37,15.14-3.28,21.59a23.21,23.21,0,0,0,8.1,4.49c9.44,3.33,19,6.3,28.25,10.16a53.6,53.6,0,0,1,14.92,8.75,36.27,36.27,0,0,1,12.34,22.13c1.42,8.79,1,17.47-2.28,25.83-4.89,12.51-14.07,20.59-26.56,25.07-8.33,3-17,3.73-25.74,3.25A62,62,0,0,1-185,489.52c-10.77-5-18.68-12.68-22.65-24.07a42.56,42.56,0,0,1-2.2-13.66c0-1.56.05-3.12,0-4.68-.05-.94.24-1.21,1.19-1.2,5.4,0,10.8,0,16.2,0,4.28,0,8.56.06,12.84,0,1.28,0,1.5.39,1.48,1.55a48.47,48.47,0,0,0,.18,7.9,13.36,13.36,0,0,0,8.8,11.2,29.38,29.38,0,0,0,21.55.17c8.45-3.17,11.67-12.08,7.84-20.5-2-4.35-5.51-6.71-9.76-8.26-8.81-3.21-17.66-6.3-26.43-9.6a59.26,59.26,0,0,1-18.48-10.87,34.71,34.71,0,0,1-11.71-21.78c-1.29-8.73-.55-17.21,3.19-25.3,5.14-11.12,13.88-18.21,25.29-22.17a57.8,57.8,0,0,1,21.62-2.78,55.63,55.63,0,0,1,24.82,6.43c12.83,7,19.77,17.94,21.16,32.47.23,2.39.16,4.79.25,7.18,0,.86-.25,1.07-1.08,1.06C-115.86,392.55-120.78,392.57-125.7,392.57Z" transform="translate(209.9 -342.23)" fill="#db291e"/><path d="M4.36,401.2q0,24.18,0,48.36A49.12,49.12,0,0,1,.89,469c-5.34,12.65-14.84,20.65-28,24.1-12.65,3.32-25.31,3-37.48-2.14-13.76-5.83-21.64-16.52-24.48-31.07-.94-4.83-.79-9.71-.83-14.58,0-.84.37-.87,1-.87,5.44,0,10.88,0,16.32,0,4.56,0,9.12,0,13.68,0,.92,0,1.13.24,1.11,1.12a37.26,37.26,0,0,0,.58,9.31c1.93,8.2,8.16,12.37,16.73,11.29,6.93-.87,11.33-5.48,12.39-12.5a25.74,25.74,0,0,0,.28-3.82q0-34.32,0-68.64c0-1.3-.38-1.53-1.58-1.53-15.56,0-31.12,0-46.68,0-1,0-1.32-.22-1.32-1.29q.07-14.76,0-29.52c0-1.07.28-1.31,1.32-1.31q39.54.06,79.08,0c1.17,0,1.33.39,1.33,1.41Q4.33,375.1,4.36,401.2Z" transform="translate(209.9 -342.23)" fill="#db291e"/><path d="M668.36,379c0-9.84,0-19.67,0-29.51,0-1.09.3-1.29,1.32-1.29,6.4,0,12.8,0,19.19,0,4.51,0,8.95.48,13,2.65,6.41,3.44,9.67,9,9.93,16.13.29,8,.25,15.91,0,23.86-.29,10.24-7.46,17.67-17.62,18.78a101.39,101.39,0,0,1-10.31.25c-4.79,0-9.59,0-14.39,0-1,0-1.14-.31-1.14-1.2C668.37,398.84,668.36,388.93,668.36,379Zm11.8,0v19.31c0,.53-.2,1.08.77,1.06,3.28-.07,6.56.05,9.83-.07,5.32-.2,9.14-3.8,9.27-9.08q.29-11.1,0-22.19c-.13-5.16-3.63-8.58-8.75-9.08-3.31-.33-6.63-.06-9.95-.18-.9,0-1.2.17-1.2,1.15C680.19,366.3,680.16,372.66,680.16,379Z" transform="translate(209.9 -342.23)" fill="#010101"/><path d="M172.84,390.57c1.64,0,3.28,0,4.92,0,.62,0,.86.16.81.8s0,1.28,0,1.92a7.14,7.14,0,0,0,5.1,7.05,14.29,14.29,0,0,0,9.29,0,7.06,7.06,0,0,0,5.19-6.25,7.31,7.31,0,0,0-3.32-7.11,15.92,15.92,0,0,0-3.62-1.81c-3.58-1.37-7.16-2.71-10.71-4.11a25.76,25.76,0,0,1-6.29-3.67c-4.68-3.6-6.3-8.48-5.85-14.17.62-7.8,6.36-14,15-15.47a25.7,25.7,0,0,1,14.58,1.43,16.89,16.89,0,0,1,10.5,17.09c0,.54-.21.65-.7.65-3.36,0-6.72,0-10.08,0-.68,0-.79-.26-.77-.85a11.45,11.45,0,0,0-.14-2.86,7.47,7.47,0,0,0-5.86-5.84,11.66,11.66,0,0,0-6.28.14,6.23,6.23,0,0,0-4.75,5.16,6.54,6.54,0,0,0,2.85,6.68,14.09,14.09,0,0,0,3.44,1.63c4.5,1.72,9.14,3.1,13.49,5.22,5.07,2.47,8.64,6.21,9.76,11.93,2.1,10.77-4.31,20.24-15.1,22.18-6.07,1.1-12,.73-17.65-2A16.94,16.94,0,0,1,167,391.24c.05-.64.33-.68.82-.68C169.48,390.58,171.16,390.57,172.84,390.57Z" transform="translate(209.9 -342.23)" fill="#010101"/><path d="M584.78,405.74a13.18,13.18,0,0,1-6.07,4.37c-9.82,3.32-19.26-2.65-20.46-13-.67-5.82-.19-11.66-.26-17.5a21,21,0,0,1,.68-5c3-13.32,18.74-14.35,25.15-7.5a2.33,2.33,0,0,0,.13-1.27c0-6.11,0-12.23,0-18.35,0-.93.27-1.13,1.15-1.11,3.07.05,6.15,0,9.23,0,.76,0,1,.16,1,1q0,30.83,0,61.66c0,.77-.24.93-1,.92q-4-.06-7.91,0c-.62,0-1-.12-1.05-.78C585.26,408.09,585,407,584.78,405.74ZM584,387h0c0-2.32.09-4.64,0-7a7.19,7.19,0,0,0-6.89-7.09c-4.38-.17-7,2-7.55,6.41-.44,3.85-.1,7.74-.16,11.61a18.37,18.37,0,0,0,.18,4.06c.54,2.72,1.81,4.88,4.64,5.68a7.44,7.44,0,0,0,9.81-7.37C584,391.2,584,389.08,584,387Z" transform="translate(209.9 -342.23)" fill="#010101"/><path d="M769.2,465.29c0-9.16,0-18.31,0-27.47,0-.9.18-1.2,1.15-1.2q15.24.06,30.47,0c1,0,1.27.23,1.26,1.24q0,27.4,0,54.82c0,1-.25,1.24-1.24,1.23q-15.24-.06-30.47,0c-.91,0-1.19-.18-1.18-1.15C769.22,483.61,769.2,474.45,769.2,465.29Zm27.49,8.88c.19-.37,0-.56-.11-.76-1.75-3.62-3.49-7.25-5.28-10.86-.33-.67-.35-1,.44-1.32a7,7,0,0,0,2.94-2.2A9.63,9.63,0,0,0,796,448.76c-1.53-3.66-4.57-5.36-8.42-5.48s-7.6,0-11.4,0c-.59,0-.82.11-.82.77q0,14.64,0,29.28c0,.79.31.91,1,.89,1.51,0,3-.08,4.55,0,1,.06,1.1-.29,1.09-1.14-.05-3.16,0-6.32,0-9.48,0-.3-.16-.67.16-.89a2.52,2.52,0,0,1,2.66.79q2.29,4.92,4.58,9.86c.18.38.25.85.85.84Z" transform="translate(209.9 -342.23)" fill="#010101"/><path d="M473,368.15c.24-1.28.47-2.36.66-3.46.1-.54.29-.79.92-.78,2.64,0,5.28.06,7.92,0,.88,0,1.05.27,1.05,1.08,0,7,0,14,0,21,0,7.56,0,15.12,0,22.68,0,1.11-.32,1.32-1.33,1.28-2.44-.07-4.88-.08-7.32,0-1,0-1.23-.33-1.34-1.17s-.35-1.88-.54-2.9a2,2,0,0,0-.4.28c-3.51,4.12-8.11,5.24-13.2,4.55-7.36-1-12.17-6-12.93-13.57a104.82,104.82,0,0,1,0-20.35c.65-6.76,4.87-11.84,10.77-13.22S468.58,363.09,473,368.15ZM457.46,387c.12,2.5-.14,5.06.17,7.61.52,4.14,3.11,6.42,7.26,6.37a7.06,7.06,0,0,0,7.17-6.65,116.77,116.77,0,0,0,0-14.73,7,7,0,0,0-7.26-6.66c-4.15,0-6.65,2.25-7.16,6.47C457.33,381.91,457.58,384.43,457.46,387Z" transform="translate(209.9 -342.23)" fill="#010101"/><path d="M243.56,368.14c.25-1.22.52-2.29.68-3.38.09-.64.33-.86,1-.85q4,.06,8,0c.68,0,.89.21.88.89,0,2,0,4.08,0,6.12q0,18.88,0,37.79c0,1-.25,1.27-1.25,1.24-2.55-.07-5.11,0-7.67,0-.64,0-.9-.14-1-.81-.14-1.07-.42-2.11-.68-3.4a25.67,25.67,0,0,1-1.95,2c-8.42,7-21.46,2.4-24.14-8.46a24.25,24.25,0,0,1-.72-5.93c0-5.36-.28-10.72.22-16.06.67-7.17,5-12.54,11.41-13.86C234.19,362.25,239.43,363.26,243.56,368.14ZM228.2,387c0,2.28-.07,4.56,0,6.83.11,2.78,1,5.23,3.73,6.49,3.77,1.76,9.89.63,10.66-5.75a74,74,0,0,0,0-14.95c-.38-4.44-3.68-6.94-8.21-6.64-3.77.25-6.22,3.22-6.24,7.55C228.19,382.65,228.2,384.8,228.2,387Z" transform="translate(209.9 -342.23)" fill="#010101"/><path d="M391.44,371.61v20.64c0,12.22-8.65,18.29-18.41,18.61a21.17,21.17,0,0,1-12.68-3.17c-5.28-3.48-7.45-8.63-7.66-14.77,0-1-.35-2.4.18-3s2-.17,3-.18c2.56,0,5.12,0,7.68,0,.62,0,.82.15.79.79a14.58,14.58,0,0,0,.41,4.51c1,3.68,3.76,5.46,8,5.27a6.83,6.83,0,0,0,6.65-5.94,15.68,15.68,0,0,0,.24-2.74c0-10.12,0-20.23,0-30.35,0-.91-.19-1.2-1.16-1.19-6,0-11.92,0-17.87,0-.88,0-1.24-.13-1.22-1.14.08-3.2.06-6.4,0-9.6,0-.85.14-1.15,1.09-1.15q14.94.06,29.87,0c.87,0,1,.25,1,1.07C391.43,356.74,391.44,364.17,391.44,371.61Z" transform="translate(209.9 -342.23)" fill="#010101"/><path d="M628.09,389.13c-3.8,0-7.6,0-11.4,0-1,0-1.29.3-1.23,1.27.11,1.67-.13,3.37.14,5,.49,2.88,1.93,5.16,4.82,6s5.56.71,7.8-1.55a6.83,6.83,0,0,0,1.88-5c0-.77.26-.93,1-.92,2.91,0,5.83,0,8.75,0,.88,0,1,.27,1,1.08a15.45,15.45,0,0,1-12.78,15.34c-5.61,1.16-11.08.78-16-2.38s-7.32-8-7.61-13.69a101,101,0,0,1,.11-15.46c1-9.28,7.88-15.51,17.3-15.76a20.08,20.08,0,0,1,9.55,1.79c5.21,2.55,8.07,6.87,9.11,12.45.7,3.72.23,7.5.34,11.25,0,.84-.58.59-1,.59C635.92,389.14,632,389.13,628.09,389.13Zm-5.29-7.84h6.47c.37,0,.82.13.85-.52.24-5-2.81-10-9.43-8.38-3.34.82-5.26,3.91-5.23,7.91,0,.76.18,1,1,1C618.57,381.25,620.69,381.29,622.8,381.29Z" transform="translate(209.9 -342.23)" fill="#010101"/><path d="M744,389.13c-3.88,0-7.76,0-11.63,0-.83,0-1.12.21-1.08,1.06.13,2.23-.24,4.48.49,6.67a7.07,7.07,0,0,0,7.11,5c3.37,0,5.68-1.56,6.66-4.45a7.11,7.11,0,0,0,.39-2.71c0-.59.19-.75.75-.75,3.08,0,6.16,0,9.24,0,.79,0,.81.36.79.94-.22,6.31-2.84,11.23-8.63,14a20.87,20.87,0,0,1-18.31.14c-6.22-2.86-9.15-8.16-9.5-14.81-.25-4.74-.16-9.51,0-14.27.27-9.55,7.74-16.64,17.53-16.85a19,19,0,0,1,11.2,2.77c5.38,3.54,7.51,8.81,7.72,15,.08,2.4,0,4.8,0,7.2,0,.87-.16,1.15-1.09,1.14C751.77,389.1,747.89,389.13,744,389.13Zm-5.41-7.84c2.15,0,4.31,0,6.47,0,.34,0,.84.22.89-.45.27-3.87-1.57-7.6-5-8.44-6.32-1.56-9.89,3-9.65,8.35,0,.64.43.55.82.55Z" transform="translate(209.9 -342.23)" fill="#010101"/><path d="M438.48,387.51c-.14,2.79.26,6.11-.43,9.41a16.76,16.76,0,0,1-14.24,13.64c-5.66.87-11.09.22-15.86-3.27s-6.76-8.46-6.89-14.21c-.1-4,0-8,0-12,0-10.35,7.38-17.82,17.73-18,4.24-.09,8.29.54,11.9,2.9,5.3,3.45,7.56,8.57,7.8,14.7C438.55,382.76,438.48,384.88,438.48,387.51Zm-11.31.46c0-3.25.1-5.58,0-7.89-.22-4.53-3-7.36-7.12-7.43-4.37-.08-7.23,2.46-7.48,7.12a122.58,122.58,0,0,0,0,15,6.77,6.77,0,0,0,6.59,6.51c4.27.18,7.09-2,7.8-6C427.46,392.55,427.06,389.78,427.17,388Z" transform="translate(209.9 -342.23)" fill="#010101"/><path d="M275.28,368.25c.76-.73,1.37-1.4,2.07-2a14.93,14.93,0,0,1,24.33,9.08,31.68,31.68,0,0,1,.45,5.24q0,14,0,28.08c0,1-.16,1.3-1.21,1.28-3-.08-6-.07-9,0-.88,0-1.12-.19-1.11-1.1q0-13.74,0-27.48a9.87,9.87,0,0,0-1.53-5.81c-1.68-2.41-4.13-2.88-6.8-2.56a6.73,6.73,0,0,0-5.81,4.7,12,12,0,0,0-.58,4.25c0,8.92,0,17.84,0,26.75,0,1-.19,1.28-1.22,1.26-3.08-.08-6.16-.06-9.24,0-.79,0-1-.21-1-1q0-22,0-44c0-.73.1-1,.94-1,2.68.06,5.36,0,8,0,.66,0,.92.22,1,.83C274.87,365.87,275.07,367,275.28,368.25Z" transform="translate(209.9 -342.23)" fill="#010101"/><path d="M791.37,405.65a13.08,13.08,0,0,1-7.58,4.8c-4.68.93-9.17.56-13.15-2.36-3.26-2.4-4.65-5.87-5.27-9.73a25,25,0,0,1-.26-4.06c0-9.72,0-19.44,0-29.16,0-1,.23-1.26,1.23-1.24,3,.08,5.92.09,8.88,0,1.17,0,1.35.38,1.34,1.41q0,14.16,0,28.32a10.55,10.55,0,0,0,.22,2.38,5.94,5.94,0,0,0,6,5c3.8.07,6.55-1.84,7.52-5.25a11,11,0,0,0,.37-3.08c0-9.16,0-18.32,0-27.48,0-1,.24-1.28,1.25-1.26,3,.07,6,.06,9,0,.86,0,1.17.15,1.16,1.1q0,22,0,43.92c0,.75-.15,1-1,1-2.67-.05-5.35,0-8,0-.6,0-.85-.18-.95-.75C791.91,408.09,791.66,407,791.37,405.65Z" transform="translate(209.9 -342.23)" fill="#010101"/><path d="M504.69,368.4c.38-.46.59-.74.82-1,5.57-6.19,17-5.51,21.72-.14a16.79,16.79,0,0,1,4.11,10.49c.34,5.71.1,11.44.13,17.15,0,4.68,0,9.36,0,14,0,.77-.17,1-1,1-3.08-.05-6.16-.06-9.24,0-.92,0-1.1-.26-1.1-1.13q0-13.38,0-26.76a16,16,0,0,0-.25-3.46c-.87-3.95-3.27-5.8-7.37-5.68a7.11,7.11,0,0,0-6.88,6.18,17.81,17.81,0,0,0-.2,2.63c0,9,0,18,0,27,0,1-.27,1.25-1.25,1.23-3.08-.07-6.16-.06-9.24,0-.75,0-.92-.2-.92-.93q0-22.08,0-44.16c0-.71.15-1,.92-.95,2.68,0,5.36,0,8,0,.61,0,.93.1,1,.81C504.18,365.87,504.44,367,504.69,368.4Z" transform="translate(209.9 -342.23)" fill="#010101"/><path d="M535.38,492.21c-2.2,0-4.24,0-6.27,0-.72,0-.86-.42-1.06-.89-2.84-6.49-5.7-13-8.5-19.49a1.67,1.67,0,0,0-1.94-1.18c-3.27.13-6.56.09-9.83,0-.92,0-1.13.25-1.12,1.14,0,6.44,0,12.87,0,19.31,0,.8-.14,1.12-1,1.07-1.51-.08-3-.06-4.55,0-.7,0-.95-.21-.86-.88a2.57,2.57,0,0,0,0-.48q0-26,0-51.93c0-1.14.33-1.37,1.39-1.35,5.92.11,11.85-.28,17.74.18,6.38.49,11.65,3.15,14.59,9.15,3.16,6.44,2.06,17.37-7.67,21.81-.76.34-.85.62-.51,1.39,3.11,7.07,6.17,14.17,9.25,21.25C535.13,491.59,535.22,491.8,535.38,492.21Zm-28.7-37.92v8.63c0,2.29,0,2.33,2.33,2.28,3.67-.08,7.35.31,11-.34,5.6-1,9.1-5.42,9-11.26-.14-5.42-3.84-9.41-9.46-10.12-4.06-.51-8.14-.11-12.21-.24-.73,0-.61.44-.61.87Z" transform="translate(209.9 -342.23)" fill="#010101"/><path d="M327.8,392c0,5.6,0,11.2,0,16.8,0,.86-.15,1.17-1.09,1.15q-4.56-.1-9.12,0c-.9,0-1.12-.21-1.11-1.11,0-11.16,0-22.32.06-33.47,0-1.28-.38-1.53-1.53-1.47-1.76.1-3.52,0-5.28,0-.65,0-.9-.11-.89-.83.05-2.64,0-5.28,0-7.92,0-.64.2-.81.81-.79,1.84,0,3.69-.07,5.52,0,1.17.07,1.36-.37,1.34-1.41-.06-3.4,0-6.8,0-10.2,0-.79.2-1,1-1,3.08.05,6.16.06,9.24,0,1,0,1.1.33,1.09,1.17-.05,3.48,0,7,0,10.44,0,.77.19,1,1,1,1.91-.06,3.84,0,5.76,0,.68,0,1,.1,1,.9q-.08,3.9,0,7.8c0,.73-.27.85-.91.84-1.92,0-3.84,0-5.75,0-.85,0-1.06.23-1.06,1.06C327.82,380.65,327.8,386.33,327.8,392Z" transform="translate(209.9 -342.23)" fill="#010101"/><path d="M430.08,455.52c0-6.33,0-12.37,0-18.4,0-.86.13-1.2,1.08-1.14,1.44.1,2.88,0,4.32,0,.57,0,.82.17.75.75a4,4,0,0,0,0,.6q0,26.75,0,53.5c0,1-.18,1.51-1.33,1.38s-2.57.34-3.25-.21-.58-2.06-.82-3.15c-.06-.31-.13-.61-.19-.88-.68.63-1.32,1.26-2,1.83-4.64,3.84-9.88,4.16-15.21,2.08-5.12-2-7.38-6.36-7.76-11.58a111.89,111.89,0,0,1,0-16.78c.62-8.08,6.13-13.41,15.21-12.75A12.94,12.94,0,0,1,430.08,455.52Zm0,16.43c-.17-2.67.22-5.36-.25-8-.84-4.85-4.47-7.76-9.58-7.72-4.65,0-8,2.82-8.46,7.74a84,84,0,0,0,.07,16.63,7.56,7.56,0,0,0,4,6,9.49,9.49,0,0,0,14-6.58C430.34,477.3,429.94,474.62,430.11,472Z" transform="translate(209.9 -342.23)" fill="#010101"/><path d="M741.17,456.06c.26-1.34.5-2.51.7-3.68.09-.55.29-.83.93-.79,1.27.08,2.91-.4,3.72.23s.23,2.32.23,3.54c0,11.88,0,23.75,0,35.62,0,1-.17,1.36-1.21,1.25s-2.66.36-3.36-.22-.6-2.13-.85-3.26c-.05-.27,0-.57-.26-.8-.45.13-.59.58-.88.88-4.24,4.41-9.46,5.11-15,3.53-5.22-1.48-8-5.39-8.78-10.61-.83-5.47-.29-11-.33-16.51a18,18,0,0,1,.26-3.1c1.23-7.26,6.53-12,15-11.34C735.66,451.14,738,452.49,741.17,456.06ZM722.2,472c0,2.36-.12,4.73,0,7.07.22,3.46,1.47,6.54,4.93,7.85,6.56,2.47,13.27-1,13.46-8.91.1-4,0-8,0-12a11.16,11.16,0,0,0-.52-3.3c-1.37-4.41-5.08-6.79-10-6.44-4.21.3-7.09,3.07-7.79,7.58C721.92,466.51,722.27,469.24,722.2,472Z" transform="translate(209.9 -342.23)" fill="#010101"/><path d="M463,472.73c-3.72,0-7.44,0-11.16,0-.93,0-1.13.26-1.09,1.13.07,1.48,0,3,0,4.44,0,6.27,4,10,10.29,9.75,5.95-.27,8.59-4.46,8.42-8.64,0-.57.16-.76.74-.74,1.4,0,2.8.06,4.2,0,.81,0,.89.3.87,1-.18,6.69-3.81,11.24-10.37,12.89a19.43,19.43,0,0,1-10.07-.14,13.7,13.7,0,0,1-10.08-13.58c0-4.32-.06-8.64,0-13,.17-9.06,6.43-15.83,16.93-15,8.76.66,13.39,7.25,13.54,14.87,0,2,0,4,.06,6,.05,1-.31,1.09-1.15,1.08C470.39,472.71,466.67,472.73,463,472.73Zm-2.84-4.8c2.84,0,5.67,0,8.51,0,.61,0,.86-.11.84-.78a20.34,20.34,0,0,0-.26-3.82c-.82-3.61-2.66-6.4-6.45-7.24s-7.27-.3-9.85,3c-1.92,2.43-2.26,5.3-2.19,8.27,0,.73.46.6.88.6Z" transform="translate(209.9 -342.23)" fill="#010101"/><path d="M560.65,472.73c-3.76,0-7.52,0-11.28,0-.78,0-1,.18-1,1,.07,1.56,0,3.12,0,4.68,0,6.26,4.25,10.05,10.51,9.64,5.74-.38,8.36-4.48,8.2-8.61,0-.68.26-.78.84-.76,1.36,0,2.72.05,4.08,0,.78,0,.91.25.89,1-.17,6.68-3.8,11.31-10.35,12.89-4.65,1.12-9.24.88-13.46-1.58-4.58-2.68-6.58-6.93-6.69-12.1-.09-4.36-.1-8.72,0-13.08.2-8.92,6.33-15.67,16.78-14.94,9,.62,13.53,7.33,13.68,14.86,0,2,0,4.08.06,6.12,0,.81-.25,1-1,1C568.17,472.71,564.41,472.73,560.65,472.73Zm-3-4.8c1.8,0,3.6,0,5.4,0a18.11,18.11,0,0,0,4-.14,17.19,17.19,0,0,0-.2-4.53,8.73,8.73,0,0,0-7-7.29c-4.71-.72-8.26.83-10.19,4.48a13.4,13.4,0,0,0-1.3,6.51c0,.76.17,1,1,1C552.12,467.9,554.88,467.93,557.64,467.93Z" transform="translate(209.9 -342.23)" fill="#010101"/><path d="M635.52,472.73c-3.76,0-7.52,0-11.28,0-.8,0-1,.22-1,1,.06,1.48,0,3,0,4.44,0,6.58,4.24,10.43,10.76,9.81,5-.47,7.82-3.42,7.94-8.44,0-.66.16-.9.86-.88,1.36.06,2.72.07,4.08,0,.8,0,.9.28.88,1-.18,6.69-3.81,11.25-10.36,12.9a19.43,19.43,0,0,1-10.07-.14,13.69,13.69,0,0,1-10.09-13.57c0-4.36-.08-8.72,0-13.08.21-8.94,6.37-15.66,16.79-14.93,8.95.62,13.52,7.31,13.67,14.87,0,2,0,4.08.06,6.12,0,.83-.28,1-1,1C643,472.71,639.28,472.73,635.52,472.73Zm-2.92-4.8c2.84,0,5.68,0,8.52,0,.63,0,.92-.11.9-.83a25.72,25.72,0,0,0-.26-3.82,8.75,8.75,0,0,0-7-7.32c-4.71-.75-8.25.78-10.21,4.44a13.44,13.44,0,0,0-1.32,6.61c0,.75.2.94.94.93C627,467.9,629.8,467.93,632.6,467.93Z" transform="translate(209.9 -342.23)" fill="#010101"/><path d="M193.48,456.27a12.9,12.9,0,0,1,6.78-4.91c5.13-1.5,12.71-.68,16.22,5.47a17.19,17.19,0,0,1,2.11,8.63c0,8.56,0,17.11,0,25.67,0,.93-.26,1.15-1.14,1.1a32.7,32.7,0,0,0-4,0c-.9.06-1.12-.21-1.11-1.11,0-8.44,0-16.88,0-25.32a9.8,9.8,0,0,0-2.56-7.13c-2.55-2.66-5.79-2.9-9.11-2.13s-5.33,3.19-6.35,6.4a12.32,12.32,0,0,0-.47,3.68c0,8.11,0,16.23,0,24.35,0,1.11-.32,1.33-1.32,1.26a30.75,30.75,0,0,0-3.84,0c-.81,0-1-.23-1-1,0-8.35,0-16.71,0-25.07,0-4.52,0-9,0-13.56,0-.74.13-1.08,1-1a24.85,24.85,0,0,0,3,0c.59,0,.84.15.93.78C192.92,453.63,193.21,454.86,193.48,456.27Z" transform="translate(209.9 -342.23)" fill="#010101"/><path d="M352.51,487.79c-4.74,5.87-11.49,6.12-16.36,4.41-5.2-1.83-7.46-6-8-11.18a91.69,91.69,0,0,1-.13-9.95c0-6.12,0-12.23,0-18.35,0-.87.16-1.2,1.1-1.13a30.63,30.63,0,0,0,3.95,0c.91-.06,1.12.21,1.11,1.1,0,8.64,0,17.28,0,25.92a10.89,10.89,0,0,0,.35,2.84,7.75,7.75,0,0,0,8.05,6.16c4.61,0,7.93-2.4,9.11-6.64a13.33,13.33,0,0,0,.46-3.56c0-8.24,0-16.47,0-24.71,0-.89.2-1.17,1.11-1.11,1.43.08,2.87,0,4.31,0,.51,0,.73.13.69.67s0,1,0,1.44q0,18.65,0,37.31c0,1-.26,1.34-1.25,1.2a13.28,13.28,0,0,0-1.67,0c-1.84,0-1.84,0-2.18-1.85-.12-.67-.26-1.33-.4-2C352.62,488.21,352.57,488.05,352.51,487.79Z" transform="translate(209.9 -342.23)" fill="#010101"/><path d="M252.25,463.37a7.36,7.36,0,0,1-2.49-.06c-1-.37-.29-1.46-.49-2.22a6.41,6.41,0,0,0-3.86-4.58,11,11,0,0,0-9.4.21,5.21,5.21,0,0,0-3.25,5.26,5,5,0,0,0,3.63,4.57c2.39.87,4.84,1.59,7.27,2.36,1.75.55,3.46,1.2,5.16,1.91,9.4,3.92,7.86,15.39,1.83,19.54-5.79,4-16,3.55-21.2-1.1a10.92,10.92,0,0,1-3.66-8.88c0-.49.1-.72.65-.7,1.44,0,2.88,0,4.32,0,.47,0,.69.09.74.65.46,5,2.84,7.31,8.05,7.74a12,12,0,0,0,6.33-.93,6.48,6.48,0,0,0,3.26-8.2,5.38,5.38,0,0,0-3.33-3.07c-3.11-1.26-6.37-2.05-9.56-3.08a28.29,28.29,0,0,1-3.43-1.39c-7.71-3.76-7.48-13.21-1.57-17.69A15.68,15.68,0,0,1,242,450.76a15.93,15.93,0,0,1,9.06,3c3,2.27,4.12,5.37,4.13,9,0,.47-.18.63-.64.62-.76,0-1.52,0-2.28,0Z" transform="translate(209.9 -342.23)" fill="#010101"/><path d="M579.84,471.42c.13-2.62-.31-5.76.35-8.84,1.57-7.31,7-11.72,14.46-11.85,4.15-.07,8,.79,11.29,3.51s4.5,6.29,4.59,10.39c0,.48-.09.72-.65.71-1.56,0-3.12,0-4.68,0-.41,0-.6,0-.66-.56-.62-6-3.51-8.67-9.21-8.68-5.28,0-9,3.39-9.29,8.91a130.43,130.43,0,0,0,.06,14.26c.33,5.61,4.6,9,10.22,8.47,4.28-.38,6.87-2.23,7.87-5.66a7.4,7.4,0,0,0,.36-2.95c-.1-.84.25-1,1-1,1.32.06,2.64.07,4,0,.89,0,1,.29,1,1.09a13.36,13.36,0,0,1-12.64,13.69c-3.43.29-6.8.17-9.95-1.39-5.49-2.72-7.79-7.41-8.09-13.28C579.75,476.15,579.84,474,579.84,471.42Z" transform="translate(209.9 -342.23)" fill="#010101"/><path d="M678.48,471.4c.11-2.59-.3-5.68.32-8.73,1.49-7.31,7-11.82,14.52-11.94,4.19-.07,8.1.82,11.37,3.6s4.4,6.26,4.48,10.32c0,.52-.14.7-.67.69-1.56,0-3.12,0-4.68,0-.58,0-.61-.25-.63-.71-.29-5.59-3.85-8.78-9.49-8.51-5.19.26-8.66,3.38-9,8.56a101.22,101.22,0,0,0,0,15c.32,3.55,2.13,6.43,5.74,7.53s7.38,1,10.41-1.87a7.6,7.6,0,0,0,2.26-6.1c0-.81.17-1.12,1-1.07,1.32.07,2.64.06,4,0,.76,0,1,.18,1,1a13.13,13.13,0,0,1-11,13.52,18.08,18.08,0,0,1-11.38-1c-5.61-2.65-8-7.42-8.28-13.39C678.39,476.12,678.48,474,678.48,471.4Z" transform="translate(209.9 -342.23)" fill="#010101"/><path d="M273.64,474.57c0,5.52,0,11,0,16.56,0,.92-.23,1.16-1.11,1.1a23.44,23.44,0,0,0-3.84,0c-1.14.11-1.25-.36-1.25-1.33,0-10.84,0-21.68.05-32.52,0-1.11-.3-1.42-1.38-1.36-1.88.09-3.76,0-5.64,0-.59,0-.86-.1-.83-.77.06-1.24,0-2.48,0-3.72,0-.59.17-.74.74-.73,1.92,0,3.84,0,5.76,0,1,.05,1.37-.17,1.34-1.28-.09-2.92,0-5.84-.05-8.76,0-.86.24-1.08,1.07-1,1.39.07,2.8.06,4.19,0,.73,0,.95.16.94.92-.05,3,0,6-.05,9,0,1,.31,1.19,1.22,1.16,1.87-.07,3.76,0,5.64,0,.87,0,1.08.27,1,1.08a17.68,17.68,0,0,0,0,3c.1,1-.33,1.19-1.22,1.16-1.79-.06-3.6,0-5.39,0-1,0-1.28.2-1.27,1.22C273.67,463.69,273.64,469.13,273.64,474.57Z" transform="translate(209.9 -342.23)" fill="#010101"/><path d="M308,474.57c0-5.4,0-10.8,0-16.2,0-1.16-.36-1.39-1.4-1.34-1.88.08-3.76,0-5.64,0-.62,0-.83-.15-.81-.79q.09-1.86,0-3.72c0-.63.23-.72.77-.71,2,0,4.08,0,6.12,0,.74,0,.95-.2.95-.94,0-3,0-6,0-9,0-.84.12-1.21,1.09-1.15a34.46,34.46,0,0,0,4.19,0c.77,0,.93.22.92.94,0,3,0,6.08,0,9.12,0,.76.17,1,1,1,2-.06,4,0,6,0,.65,0,.92.14.89.85a31.38,31.38,0,0,0,0,3.36c0,.78-.18,1.05-1,1-1.91-.06-3.84,0-5.75,0-.9,0-1.14.21-1.13,1.12,0,10.88,0,21.76.06,32.64,0,1.27-.37,1.54-1.51,1.44a27.17,27.17,0,0,0-3.72,0c-.78,0-1-.19-1-1C308.06,485.69,308,480.13,308,474.57Z" transform="translate(209.9 -342.23)" fill="#010101"/><path d="M372.12,474.67c0-5.52,0-11,0-16.56,0-.83-.2-1.11-1.06-1.08-1.92.07-3.84,0-5.76,0-.88,0-1.07-.26-1-1.07a25,25,0,0,0,0-3.24c0-.72.15-.95.91-.93,2,.06,3.92,0,5.88,0,.88,0,1.06-.27,1.05-1.08-.05-3,0-6,0-9,0-.78.19-1,1-1a34.88,34.88,0,0,0,4,0c1-.06,1.29.15,1.26,1.2-.08,3,0,5.92-.05,8.88,0,.8.23,1,1,1,2-.06,4,0,6,0,.69,0,.89.21.86.88-.05,1.16-.05,2.33,0,3.48,0,.71-.24.88-.9.87-2,0-3.92,0-5.88,0-.93,0-1.1.28-1.1,1.15,0,11,0,21.92,0,32.88,0,.92-.2,1.24-1.16,1.17a32.51,32.51,0,0,0-4.07,0c-.83,0-1-.26-1-1C372.13,485.71,372.12,480.19,372.12,474.67Z" transform="translate(209.9 -342.23)" fill="#010101"/><path d="M170.28,465c0-8.68,0-17.36,0-26,0-1.15.34-1.42,1.4-1.35a37,37,0,0,0,4.08,0c.83,0,1,.27,1,1-.06,1.15,0,2.32,0,3.47q0,24.42,0,48.84c0,1-.13,1.42-1.26,1.32a27.65,27.65,0,0,0-4.07,0c-.9.06-1.12-.2-1.11-1.1C170.3,482.41,170.28,473.69,170.28,465Z" transform="translate(209.9 -342.23)" fill="#010101"/><path d="M662.05,456.56a12.56,12.56,0,0,1,7.81-5.51,12.69,12.69,0,0,1,4.17-.26c.54.06.85.18.83.85-.06,1.44-.05,2.88,0,4.32,0,.68-.22.84-.84.72a10.25,10.25,0,0,0-4.27.13c-4.59,1.07-7.3,4.81-7.31,10.07q0,12.11,0,24.23c0,.85-.14,1.19-1.09,1.12a29.1,29.1,0,0,0-4.07,0c-1,.08-.95-.43-.95-1.13q0-15.35,0-30.71c0-2.63,0-5.27,0-7.91,0-.65.12-.93.84-.89,1,.06,2.08.05,3.11,0,.59,0,.84.15.93.77C661.43,453.71,661.74,455,662.05,456.56Z" transform="translate(209.9 -342.23)" fill="#010101"/><path d="M293.8,471.92c0,6.4,0,12.8,0,19.19,0,.88-.16,1.19-1.09,1.12a22,22,0,0,0-3.72,0c-1.17.11-1.31-.37-1.31-1.39q0-17.5,0-35c0-1.12,0-2.24,0-3.36,0-.66.14-.9.84-.88,1.44.06,2.88.08,4.32,0,.86,0,.95.3.94,1C293.79,459.05,293.8,465.49,293.8,471.92Z" transform="translate(209.9 -342.23)" fill="#010101"/><path d="M750.87,348.81c-.17.16-.33.33-.5.47-3.75,3.13-7.5,6.24-11.23,9.38-.44.37-.73.45-1.2,0-1.39-1.27-2.79-2.52-4.24-3.71-.52-.43-.33-.67,0-1l9.61-11.34c.23-.27.4-.59.84-.17,2.11,2,4.26,4,6.39,6C750.64,348.52,750.74,348.65,750.87,348.81Z" transform="translate(209.9 -342.23)" fill="#010101"/><path d="M294.72,440.16a3.82,3.82,0,0,1-3.93,3.93,3.91,3.91,0,0,1-4-3.91,4,4,0,0,1,4-4.09A3.92,3.92,0,0,1,294.72,440.16Z" transform="translate(209.9 -342.23)" fill="#010101"/><path d="M781.92,452.72a19.77,19.77,0,0,1,.14-3.46c1.43,0,2.86-.08,4.28,0a3.54,3.54,0,0,1,3.76,4.07,3.47,3.47,0,0,1-3.37,3.38c-1.39.11-2.79,0-4.19.07-.57,0-.64-.24-.63-.71C781.94,455,781.92,454,781.92,452.72Z" transform="translate(209.9 -342.23)" fill="#010101"/></svg>