<?xml version="1.0" encoding="UTF-8"?>
<svg id="Layer_1" data-name="Layer 1" xmlns="http://www.w3.org/2000/svg" viewBox="0 0 724.12 206.22">
  <defs>
    <style>
      .cls-1 {
        fill: #3a53a4;
      }
    </style>
  </defs>
  <path class="cls-1" d="M57.25,81.57c-6.16-.88-11.5-7.71-12.2-13.68-1.16-9.79-.9-31.03-.1-41.1.2-2.55,1.13-7.1,2.66-9.11s7.24-6.1,9.7-6.41c14.54-1.8,32.87.96,47.76.27,5.8,1.92,10.09,6.52,10.84,12.68,1.46,12.03.32,31.07.1,43.75-.03,1.57-.84,2.93-.6,4.47,2.9,2.3,19.31,21.43,20.8,21.54.29.02,2.31-1.1,3.96-1.18,9.27-.49,34.84-1.36,42.88.33,6.74,1.41,12.01,8.53,12.59,15.28.87,9.95,1.04,31.4-.02,41.17-.87,8.07-7.78,13.61-15.58,14.29s-37.23,1.01-43.64-.88c-7.02-2.06-10.81-8.8-11.47-15.74l-36.73,20.01c.28,12.2,1.53,28.5-14.45,30.35-7.85.91-35.47,1.15-42.76-.23-8.08-1.53-12.06-8.96-12.61-16.59-.61-8.4-1.04-36.34,1.32-43.2,5.71-16.61,33.59-8.36,47.42-10.31,2.01-.28,6.37-2.97,6.37-4.92v-40.81c-5.06-.51-11.37.7-16.26,0ZM100.56,66.81l.21-40.04c-1.26-1.36-2.6-1.49-4.33-1.64-7.55-.69-25.19-.85-32.56.02-3.45.41-4.04,1.75-4.33,4.96-.99,10.77.82,22.98,0,33.91.06,1.97,1.66,3.59,3.65,3.65,11.01-.75,23.03.88,33.91,0,1.03-.08,2.73-.12,3.46-.85ZM106.36,81.57h-18.25v42.14c0,4.22-2.98,7.93-5.27,11.19,4.87,4.47,5.74,10.65,5.27,17.01,8.13-3.99,16.03-8.49,23.96-12.87,2.48-1.37,4.09-2.32,6.4-3.7,1.18-.7,6.6-2.91,6.82-3.81.39-9.41-1.08-19.07,1.21-28.27l-20.14-21.7ZM143.67,106.93c-2.43.73-3.52,2.37-3.81,4.82-.81,6.96-.82,26.26,0,33.21.41,3.45,1.75,4.04,4.96,4.33,7.39.68,24.68.83,31.9-.02,3.45-.41,4.04-1.75,4.33-4.96.67-7.3.93-26.26,0-33.25-.35-2.67-2.45-3.99-5-4.3-9.91-1.18-22.23.79-32.39.16ZM36.15,142.1c-2.24.56-2.89,2-3.14,4.16-.8,6.8-.8,25.75,0,32.54.41,3.45,1.75,4.04,4.96,4.33,6.96.64,25.27.9,31.92,0,2.98-.4,3.41-2.3,3.65-4.98.66-7.3.81-24.1-.02-31.24-.35-3.05-1.91-4.62-4.98-4.98-9.94-1.15-22.2.77-32.39.16Z"/>
  <path class="cls-1" d="M362.39,197.76V9.76c44.38,2.18,94.12-9.32,131.01,21.49,41.61,34.75,42.2,108.74,1,144.02-37.54,32.15-86.57,20.3-132.01,22.49ZM398.39,164.76h39.5c4.04,0,15.89-4.14,19.88-6.12,42.53-21.09,41.3-92.82-3.11-110.64-2.43-.97-11.85-4.24-13.76-4.24h-42.5v121Z"/>
  <path class="cls-1" d="M262,9.77v155h76v33h-113c-.27-.73,1-1.2,1-1.5V12.27c0-.16-1.73-2.5.5-2.5h35.5Z"/>
  <path class="cls-1" d="M533.39,197.76L597.87,10.74l48.91-1.05,64.61,188.06h-37l-13.89-41.41c-25.05-1.34-50.78-.27-76.07-.55l-13.04,41.96h-38ZM649.39,122.76l-26.01-78-26.99,78h53Z"/>
</svg>