<?xml version="1.0" encoding="UTF-8"?>
<svg xmlns="http://www.w3.org/2000/svg" xmlns:xlink="http://www.w3.org/1999/xlink"
	width="512" height="512" viewBox="-0.65 -0.65 1.3 1.3">


<defs>
<style>
	.landmark {{ }}
	.agent {{ }}
	.goal {stroke: black; stroke-width: 0.003;}
</style>
</defs>


<circle class="landmark" cx="-0.600" cy="-0.600" r="0.05" fill="#84A1AE">  </circle>
<circle class="landmark" cx="-0.500" cy="-0.600" r="0.05" fill="#84A1AE">  </circle>
<circle class="landmark" cx="-0.400" cy="-0.600" r="0.05" fill="#84A1AE">  </circle>
<circle class="landmark" cx="-0.300" cy="-0.600" r="0.05" fill="#84A1AE">  </circle>
<circle class="landmark" cx="-0.200" cy="-0.600" r="0.05" fill="#84A1AE">  </circle>
<circle class="landmark" cx="-0.100" cy="-0.600" r="0.05" fill="#84A1AE">  </circle>
<circle class="landmark" cx="0.000" cy="-0.600" r="0.05" fill="#84A1AE">  </circle>
<circle class="landmark" cx="0.100" cy="-0.600" r="0.05" fill="#84A1AE">  </circle>
<circle class="landmark" cx="0.200" cy="-0.600" r="0.05" fill="#84A1AE">  </circle>
<circle class="landmark" cx="0.300" cy="-0.600" r="0.05" fill="#84A1AE">  </circle>
<circle class="landmark" cx="0.400" cy="-0.600" r="0.05" fill="#84A1AE">  </circle>
<circle class="landmark" cx="0.500" cy="-0.600" r="0.05" fill="#84A1AE">  </circle>
<circle class="landmark" cx="0.600" cy="-0.600" r="0.05" fill="#84A1AE">  </circle>
<circle class="landmark" cx="-0.600" cy="-0.500" r="0.05" fill="#84A1AE">  </circle>
<circle class="landmark" cx="0.000" cy="-0.500" r="0.05" fill="#84A1AE">  </circle>
<circle class="landmark" cx="0.600" cy="-0.500" r="0.05" fill="#84A1AE">  </circle>
<circle class="landmark" cx="-0.600" cy="-0.400" r="0.05" fill="#84A1AE">  </circle>
<circle class="landmark" cx="0.000" cy="-0.400" r="0.05" fill="#84A1AE">  </circle>
<circle class="landmark" cx="0.600" cy="-0.400" r="0.05" fill="#84A1AE">  </circle>
<circle class="landmark" cx="-0.600" cy="-0.300" r="0.05" fill="#84A1AE">  </circle>
<circle class="landmark" cx="0.600" cy="-0.300" r="0.05" fill="#84A1AE">  </circle>
<circle class="landmark" cx="-0.600" cy="-0.200" r="0.05" fill="#84A1AE">  </circle>
<circle class="landmark" cx="0.000" cy="-0.200" r="0.05" fill="#84A1AE">  </circle>
<circle class="landmark" cx="0.600" cy="-0.200" r="0.05" fill="#84A1AE">  </circle>
<circle class="landmark" cx="-0.600" cy="-0.100" r="0.05" fill="#84A1AE">  </circle>
<circle class="landmark" cx="0.000" cy="-0.100" r="0.05" fill="#84A1AE">  </circle>
<circle class="landmark" cx="0.600" cy="-0.100" r="0.05" fill="#84A1AE">  </circle>
<circle class="landmark" cx="-0.600" cy="0.000" r="0.05" fill="#84A1AE">  </circle>
<circle class="landmark" cx="-0.500" cy="0.000" r="0.05" fill="#84A1AE">  </circle>
<circle class="landmark" cx="-0.300" cy="0.000" r="0.05" fill="#84A1AE">  </circle>
<circle class="landmark" cx="-0.200" cy="0.000" r="0.05" fill="#84A1AE">  </circle>
<circle class="landmark" cx="-0.100" cy="0.000" r="0.05" fill="#84A1AE">  </circle>
<circle class="landmark" cx="0.000" cy="0.000" r="0.05" fill="#84A1AE">  </circle>
<circle class="landmark" cx="0.600" cy="0.000" r="0.05" fill="#84A1AE">  </circle>
<circle class="landmark" cx="-0.600" cy="0.100" r="0.05" fill="#84A1AE">  </circle>
<circle class="landmark" cx="0.000" cy="0.100" r="0.05" fill="#84A1AE">  </circle>
<circle class="landmark" cx="0.100" cy="0.100" r="0.05" fill="#84A1AE">  </circle>
<circle class="landmark" cx="0.200" cy="0.100" r="0.05" fill="#84A1AE">  </circle>
<circle class="landmark" cx="0.400" cy="0.100" r="0.05" fill="#84A1AE">  </circle>
<circle class="landmark" cx="0.500" cy="0.100" r="0.05" fill="#84A1AE">  </circle>
<circle class="landmark" cx="0.600" cy="0.100" r="0.05" fill="#84A1AE">  </circle>
<circle class="landmark" cx="-0.600" cy="0.200" r="0.05" fill="#84A1AE">  </circle>
<circle class="landmark" cx="0.000" cy="0.200" r="0.05" fill="#84A1AE">  </circle>
<circle class="landmark" cx="0.600" cy="0.200" r="0.05" fill="#84A1AE">  </circle>
<circle class="landmark" cx="-0.600" cy="0.300" r="0.05" fill="#84A1AE">  </circle>
<circle class="landmark" cx="0.000" cy="0.300" r="0.05" fill="#84A1AE">  </circle>
<circle class="landmark" cx="0.600" cy="0.300" r="0.05" fill="#84A1AE">  </circle>
<circle class="landmark" cx="-0.600" cy="0.400" r="0.05" fill="#84A1AE">  </circle>
<circle class="landmark" cx="0.600" cy="0.400" r="0.05" fill="#84A1AE">  </circle>
<circle class="landmark" cx="-0.600" cy="0.500" r="0.05" fill="#84A1AE">  </circle>
<circle class="landmark" cx="0.000" cy="0.500" r="0.05" fill="#84A1AE">  </circle>
<circle class="landmark" cx="0.600" cy="0.500" r="0.05" fill="#84A1AE">  </circle>
<circle class="landmark" cx="-0.600" cy="0.600" r="0.05" fill="#84A1AE">  </circle>
<circle class="landmark" cx="-0.500" cy="0.600" r="0.05" fill="#84A1AE">  </circle>
<circle class="landmark" cx="-0.400" cy="0.600" r="0.05" fill="#84A1AE">  </circle>
<circle class="landmark" cx="-0.300" cy="0.600" r="0.05" fill="#84A1AE">  </circle>
<circle class="landmark" cx="-0.200" cy="0.600" r="0.05" fill="#84A1AE">  </circle>
<circle class="landmark" cx="-0.100" cy="0.600" r="0.05" fill="#84A1AE">  </circle>
<circle class="landmark" cx="0.000" cy="0.600" r="0.05" fill="#84A1AE">  </circle>
<circle class="landmark" cx="0.100" cy="0.600" r="0.05" fill="#84A1AE">  </circle>
<circle class="landmark" cx="0.200" cy="0.600" r="0.05" fill="#84A1AE">  </circle>
<circle class="landmark" cx="0.300" cy="0.600" r="0.05" fill="#84A1AE">  </circle>
<circle class="landmark" cx="0.400" cy="0.600" r="0.05" fill="#84A1AE">  </circle>
<circle class="landmark" cx="0.500" cy="0.600" r="0.05" fill="#84A1AE">  </circle>
<circle class="landmark" cx="0.600" cy="0.600" r="0.05" fill="#84A1AE">  </circle>
<circle class="landmark" cx="-100.000" cy="-100.000" r="0.05" fill="#84A1AE">  </circle>
<circle class="landmark" cx="-100.000" cy="-100.000" r="0.05" fill="#84A1AE">  </circle>
<circle class="landmark" cx="-100.000" cy="-100.000" r="0.05" fill="#84A1AE">  </circle>


<circle class="goal" cx="-0.200" cy="0.200" r="0.012" fill="hsl(0, 100%, 50%)">  </circle>
<circle class="goal" cx="0.400" cy="-0.500" r="0.012" fill="hsl(45, 100%, 50%)">  </circle>
<circle class="goal" cx="-0.300" cy="-0.300" r="0.012" fill="hsl(90, 100%, 50%)">  </circle>
<circle class="goal" cx="0.500" cy="0.500" r="0.012" fill="hsl(135, 100%, 50%)">  </circle>
<circle class="goal" cx="0.200" cy="-0.500" r="0.012" fill="hsl(180, 100%, 50%)">  </circle>
<circle class="goal" cx="0.200" cy="-0.400" r="0.012" fill="hsl(225, 100%, 50%)">  </circle>
<circle class="goal" cx="-0.400" cy="0.500" r="0.012" fill="hsl(270, 100%, 50%)">  </circle>
<circle class="goal" cx="0.500" cy="0.300" r="0.012" fill="hsl(315, 100%, 50%)">  </circle>


<circle class="agent" cx="-0.500" cy="-0.300" r="0.03" fill="hsl(0, 70%, 50%)">  </circle>
<circle class="agent" cx="-0.100" cy="-0.400" r="0.03" fill="hsl(45, 70%, 50%)">  </circle>
<circle class="agent" cx="0.100" cy="0.400" r="0.03" fill="hsl(90, 70%, 50%)">  </circle>
<circle class="agent" cx="0.200" cy="0.200" r="0.03" fill="hsl(135, 70%, 50%)">  </circle>
<circle class="agent" cx="0.200" cy="0.300" r="0.03" fill="hsl(180, 70%, 50%)">  </circle>
<circle class="agent" cx="0.400" cy="-0.200" r="0.03" fill="hsl(225, 70%, 50%)">  </circle>
<circle class="agent" cx="-0.200" cy="0.200" r="0.03" fill="hsl(270, 70%, 50%)">  </circle>
<circle class="agent" cx="-0.300" cy="0.400" r="0.03" fill="hsl(315, 70%, 50%)">  </circle>
</svg>