<?xml version="1.0" encoding="UTF-8"?>
<svg xmlns="http://www.w3.org/2000/svg" xmlns:xlink="http://www.w3.org/1999/xlink"
	width="512" height="407" viewBox="-1.9500000000000002 -1.55 3.9000000000000004 3.1">


<defs>
<style>
	.landmark {{ }}
	.agent {{ }}
	.goal {stroke: black; stroke-width: 0.002;}
</style>
</defs>


<circle class="landmark" cx="-1.900" cy="-1.500" r="0.05" fill="#84A1AE">  </circle>
<circle class="landmark" cx="-1.800" cy="-1.500" r="0.05" fill="#84A1AE">  </circle>
<circle class="landmark" cx="-1.700" cy="-1.500" r="0.05" fill="#84A1AE">  </circle>
<circle class="landmark" cx="-1.600" cy="-1.500" r="0.05" fill="#84A1AE">  </circle>
<circle class="landmark" cx="-1.500" cy="-1.500" r="0.05" fill="#84A1AE">  </circle>
<circle class="landmark" cx="-1.400" cy="-1.500" r="0.05" fill="#84A1AE">  </circle>
<circle class="landmark" cx="-1.300" cy="-1.500" r="0.05" fill="#84A1AE">  </circle>
<circle class="landmark" cx="-1.200" cy="-1.500" r="0.05" fill="#84A1AE">  </circle>
<circle class="landmark" cx="-1.100" cy="-1.500" r="0.05" fill="#84A1AE">  </circle>
<circle class="landmark" cx="-1.000" cy="-1.500" r="0.05" fill="#84A1AE">  </circle>
<circle class="landmark" cx="-0.900" cy="-1.500" r="0.05" fill="#84A1AE">  </circle>
<circle class="landmark" cx="-0.800" cy="-1.500" r="0.05" fill="#84A1AE">  </circle>
<circle class="landmark" cx="-0.700" cy="-1.500" r="0.05" fill="#84A1AE">  </circle>
<circle class="landmark" cx="-0.600" cy="-1.500" r="0.05" fill="#84A1AE">  </circle>
<circle class="landmark" cx="-0.500" cy="-1.500" r="0.05" fill="#84A1AE">  </circle>
<circle class="landmark" cx="-0.400" cy="-1.500" r="0.05" fill="#84A1AE">  </circle>
<circle class="landmark" cx="-0.300" cy="-1.500" r="0.05" fill="#84A1AE">  </circle>
<circle class="landmark" cx="-0.200" cy="-1.500" r="0.05" fill="#84A1AE">  </circle>
<circle class="landmark" cx="-0.100" cy="-1.500" r="0.05" fill="#84A1AE">  </circle>
<circle class="landmark" cx="-0.000" cy="-1.500" r="0.05" fill="#84A1AE">  </circle>
<circle class="landmark" cx="0.100" cy="-1.500" r="0.05" fill="#84A1AE">  </circle>
<circle class="landmark" cx="0.200" cy="-1.500" r="0.05" fill="#84A1AE">  </circle>
<circle class="landmark" cx="0.300" cy="-1.500" r="0.05" fill="#84A1AE">  </circle>
<circle class="landmark" cx="0.400" cy="-1.500" r="0.05" fill="#84A1AE">  </circle>
<circle class="landmark" cx="0.500" cy="-1.500" r="0.05" fill="#84A1AE">  </circle>
<circle class="landmark" cx="0.600" cy="-1.500" r="0.05" fill="#84A1AE">  </circle>
<circle class="landmark" cx="0.700" cy="-1.500" r="0.05" fill="#84A1AE">  </circle>
<circle class="landmark" cx="0.800" cy="-1.500" r="0.05" fill="#84A1AE">  </circle>
<circle class="landmark" cx="0.900" cy="-1.500" r="0.05" fill="#84A1AE">  </circle>
<circle class="landmark" cx="1.000" cy="-1.500" r="0.05" fill="#84A1AE">  </circle>
<circle class="landmark" cx="1.100" cy="-1.500" r="0.05" fill="#84A1AE">  </circle>
<circle class="landmark" cx="1.200" cy="-1.500" r="0.05" fill="#84A1AE">  </circle>
<circle class="landmark" cx="1.300" cy="-1.500" r="0.05" fill="#84A1AE">  </circle>
<circle class="landmark" cx="1.400" cy="-1.500" r="0.05" fill="#84A1AE">  </circle>
<circle class="landmark" cx="1.500" cy="-1.500" r="0.05" fill="#84A1AE">  </circle>
<circle class="landmark" cx="1.600" cy="-1.500" r="0.05" fill="#84A1AE">  </circle>
<circle class="landmark" cx="1.700" cy="-1.500" r="0.05" fill="#84A1AE">  </circle>
<circle class="landmark" cx="1.800" cy="-1.500" r="0.05" fill="#84A1AE">  </circle>
<circle class="landmark" cx="1.900" cy="-1.500" r="0.05" fill="#84A1AE">  </circle>
<circle class="landmark" cx="-1.900" cy="-1.400" r="0.05" fill="#84A1AE">  </circle>
<circle class="landmark" cx="1.900" cy="-1.400" r="0.05" fill="#84A1AE">  </circle>
<circle class="landmark" cx="-1.900" cy="-1.300" r="0.05" fill="#84A1AE">  </circle>
<circle class="landmark" cx="1.900" cy="-1.300" r="0.05" fill="#84A1AE">  </circle>
<circle class="landmark" cx="-1.900" cy="-1.200" r="0.05" fill="#84A1AE">  </circle>
<circle class="landmark" cx="-1.300" cy="-1.200" r="0.05" fill="#84A1AE">  </circle>
<circle class="landmark" cx="-1.200" cy="-1.200" r="0.05" fill="#84A1AE">  </circle>
<circle class="landmark" cx="-1.100" cy="-1.200" r="0.05" fill="#84A1AE">  </circle>
<circle class="landmark" cx="-1.000" cy="-1.200" r="0.05" fill="#84A1AE">  </circle>
<circle class="landmark" cx="-0.700" cy="-1.200" r="0.05" fill="#84A1AE">  </circle>
<circle class="landmark" cx="-0.600" cy="-1.200" r="0.05" fill="#84A1AE">  </circle>
<circle class="landmark" cx="-0.500" cy="-1.200" r="0.05" fill="#84A1AE">  </circle>
<circle class="landmark" cx="-0.200" cy="-1.200" r="0.05" fill="#84A1AE">  </circle>
<circle class="landmark" cx="0.200" cy="-1.200" r="0.05" fill="#84A1AE">  </circle>
<circle class="landmark" cx="0.500" cy="-1.200" r="0.05" fill="#84A1AE">  </circle>
<circle class="landmark" cx="0.600" cy="-1.200" r="0.05" fill="#84A1AE">  </circle>
<circle class="landmark" cx="0.700" cy="-1.200" r="0.05" fill="#84A1AE">  </circle>
<circle class="landmark" cx="1.000" cy="-1.200" r="0.05" fill="#84A1AE">  </circle>
<circle class="landmark" cx="1.100" cy="-1.200" r="0.05" fill="#84A1AE">  </circle>
<circle class="landmark" cx="1.200" cy="-1.200" r="0.05" fill="#84A1AE">  </circle>
<circle class="landmark" cx="1.300" cy="-1.200" r="0.05" fill="#84A1AE">  </circle>
<circle class="landmark" cx="1.900" cy="-1.200" r="0.05" fill="#84A1AE">  </circle>
<circle class="landmark" cx="-1.900" cy="-1.100" r="0.05" fill="#84A1AE">  </circle>
<circle class="landmark" cx="-1.400" cy="-1.100" r="0.05" fill="#84A1AE">  </circle>
<circle class="landmark" cx="-0.800" cy="-1.100" r="0.05" fill="#84A1AE">  </circle>
<circle class="landmark" cx="-0.400" cy="-1.100" r="0.05" fill="#84A1AE">  </circle>
<circle class="landmark" cx="-0.200" cy="-1.100" r="0.05" fill="#84A1AE">  </circle>
<circle class="landmark" cx="-0.100" cy="-1.100" r="0.05" fill="#84A1AE">  </circle>
<circle class="landmark" cx="0.100" cy="-1.100" r="0.05" fill="#84A1AE">  </circle>
<circle class="landmark" cx="0.200" cy="-1.100" r="0.05" fill="#84A1AE">  </circle>
<circle class="landmark" cx="0.400" cy="-1.100" r="0.05" fill="#84A1AE">  </circle>
<circle class="landmark" cx="0.800" cy="-1.100" r="0.05" fill="#84A1AE">  </circle>
<circle class="landmark" cx="1.000" cy="-1.100" r="0.05" fill="#84A1AE">  </circle>
<circle class="landmark" cx="1.400" cy="-1.100" r="0.05" fill="#84A1AE">  </circle>
<circle class="landmark" cx="1.900" cy="-1.100" r="0.05" fill="#84A1AE">  </circle>
<circle class="landmark" cx="-1.900" cy="-1.000" r="0.05" fill="#84A1AE">  </circle>
<circle class="landmark" cx="-1.400" cy="-1.000" r="0.05" fill="#84A1AE">  </circle>
<circle class="landmark" cx="-0.800" cy="-1.000" r="0.05" fill="#84A1AE">  </circle>
<circle class="landmark" cx="-0.400" cy="-1.000" r="0.05" fill="#84A1AE">  </circle>
<circle class="landmark" cx="-0.200" cy="-1.000" r="0.05" fill="#84A1AE">  </circle>
<circle class="landmark" cx="-0.000" cy="-1.000" r="0.05" fill="#84A1AE">  </circle>
<circle class="landmark" cx="0.200" cy="-1.000" r="0.05" fill="#84A1AE">  </circle>
<circle class="landmark" cx="0.400" cy="-1.000" r="0.05" fill="#84A1AE">  </circle>
<circle class="landmark" cx="0.800" cy="-1.000" r="0.05" fill="#84A1AE">  </circle>
<circle class="landmark" cx="1.000" cy="-1.000" r="0.05" fill="#84A1AE">  </circle>
<circle class="landmark" cx="1.400" cy="-1.000" r="0.05" fill="#84A1AE">  </circle>
<circle class="landmark" cx="1.900" cy="-1.000" r="0.05" fill="#84A1AE">  </circle>
<circle class="landmark" cx="-1.900" cy="-0.900" r="0.05" fill="#84A1AE">  </circle>
<circle class="landmark" cx="-1.400" cy="-0.900" r="0.05" fill="#84A1AE">  </circle>
<circle class="landmark" cx="-0.800" cy="-0.900" r="0.05" fill="#84A1AE">  </circle>
<circle class="landmark" cx="-0.700" cy="-0.900" r="0.05" fill="#84A1AE">  </circle>
<circle class="landmark" cx="-0.600" cy="-0.900" r="0.05" fill="#84A1AE">  </circle>
<circle class="landmark" cx="-0.500" cy="-0.900" r="0.05" fill="#84A1AE">  </circle>
<circle class="landmark" cx="-0.400" cy="-0.900" r="0.05" fill="#84A1AE">  </circle>
<circle class="landmark" cx="-0.200" cy="-0.900" r="0.05" fill="#84A1AE">  </circle>
<circle class="landmark" cx="0.200" cy="-0.900" r="0.05" fill="#84A1AE">  </circle>
<circle class="landmark" cx="0.400" cy="-0.900" r="0.05" fill="#84A1AE">  </circle>
<circle class="landmark" cx="0.500" cy="-0.900" r="0.05" fill="#84A1AE">  </circle>
<circle class="landmark" cx="0.600" cy="-0.900" r="0.05" fill="#84A1AE">  </circle>
<circle class="landmark" cx="0.700" cy="-0.900" r="0.05" fill="#84A1AE">  </circle>
<circle class="landmark" cx="0.800" cy="-0.900" r="0.05" fill="#84A1AE">  </circle>
<circle class="landmark" cx="1.000" cy="-0.900" r="0.05" fill="#84A1AE">  </circle>
<circle class="landmark" cx="1.100" cy="-0.900" r="0.05" fill="#84A1AE">  </circle>
<circle class="landmark" cx="1.200" cy="-0.900" r="0.05" fill="#84A1AE">  </circle>
<circle class="landmark" cx="1.300" cy="-0.900" r="0.05" fill="#84A1AE">  </circle>
<circle class="landmark" cx="1.900" cy="-0.900" r="0.05" fill="#84A1AE">  </circle>
<circle class="landmark" cx="-1.900" cy="-0.800" r="0.05" fill="#84A1AE">  </circle>
<circle class="landmark" cx="-1.400" cy="-0.800" r="0.05" fill="#84A1AE">  </circle>
<circle class="landmark" cx="-0.800" cy="-0.800" r="0.05" fill="#84A1AE">  </circle>
<circle class="landmark" cx="-0.400" cy="-0.800" r="0.05" fill="#84A1AE">  </circle>
<circle class="landmark" cx="-0.200" cy="-0.800" r="0.05" fill="#84A1AE">  </circle>
<circle class="landmark" cx="0.200" cy="-0.800" r="0.05" fill="#84A1AE">  </circle>
<circle class="landmark" cx="0.400" cy="-0.800" r="0.05" fill="#84A1AE">  </circle>
<circle class="landmark" cx="0.800" cy="-0.800" r="0.05" fill="#84A1AE">  </circle>
<circle class="landmark" cx="1.000" cy="-0.800" r="0.05" fill="#84A1AE">  </circle>
<circle class="landmark" cx="1.200" cy="-0.800" r="0.05" fill="#84A1AE">  </circle>
<circle class="landmark" cx="1.900" cy="-0.800" r="0.05" fill="#84A1AE">  </circle>
<circle class="landmark" cx="-1.900" cy="-0.700" r="0.05" fill="#84A1AE">  </circle>
<circle class="landmark" cx="-1.400" cy="-0.700" r="0.05" fill="#84A1AE">  </circle>
<circle class="landmark" cx="-0.800" cy="-0.700" r="0.05" fill="#84A1AE">  </circle>
<circle class="landmark" cx="-0.400" cy="-0.700" r="0.05" fill="#84A1AE">  </circle>
<circle class="landmark" cx="-0.200" cy="-0.700" r="0.05" fill="#84A1AE">  </circle>
<circle class="landmark" cx="0.200" cy="-0.700" r="0.05" fill="#84A1AE">  </circle>
<circle class="landmark" cx="0.400" cy="-0.700" r="0.05" fill="#84A1AE">  </circle>
<circle class="landmark" cx="0.800" cy="-0.700" r="0.05" fill="#84A1AE">  </circle>
<circle class="landmark" cx="1.000" cy="-0.700" r="0.05" fill="#84A1AE">  </circle>
<circle class="landmark" cx="1.300" cy="-0.700" r="0.05" fill="#84A1AE">  </circle>
<circle class="landmark" cx="1.900" cy="-0.700" r="0.05" fill="#84A1AE">  </circle>
<circle class="landmark" cx="-1.900" cy="-0.600" r="0.05" fill="#84A1AE">  </circle>
<circle class="landmark" cx="-1.300" cy="-0.600" r="0.05" fill="#84A1AE">  </circle>
<circle class="landmark" cx="-1.200" cy="-0.600" r="0.05" fill="#84A1AE">  </circle>
<circle class="landmark" cx="-1.100" cy="-0.600" r="0.05" fill="#84A1AE">  </circle>
<circle class="landmark" cx="-1.000" cy="-0.600" r="0.05" fill="#84A1AE">  </circle>
<circle class="landmark" cx="-0.800" cy="-0.600" r="0.05" fill="#84A1AE">  </circle>
<circle class="landmark" cx="-0.400" cy="-0.600" r="0.05" fill="#84A1AE">  </circle>
<circle class="landmark" cx="-0.200" cy="-0.600" r="0.05" fill="#84A1AE">  </circle>
<circle class="landmark" cx="0.200" cy="-0.600" r="0.05" fill="#84A1AE">  </circle>
<circle class="landmark" cx="0.400" cy="-0.600" r="0.05" fill="#84A1AE">  </circle>
<circle class="landmark" cx="0.800" cy="-0.600" r="0.05" fill="#84A1AE">  </circle>
<circle class="landmark" cx="1.000" cy="-0.600" r="0.05" fill="#84A1AE">  </circle>
<circle class="landmark" cx="1.400" cy="-0.600" r="0.05" fill="#84A1AE">  </circle>
<circle class="landmark" cx="1.900" cy="-0.600" r="0.05" fill="#84A1AE">  </circle>
<circle class="landmark" cx="-1.900" cy="-0.500" r="0.05" fill="#84A1AE">  </circle>
<circle class="landmark" cx="1.900" cy="-0.500" r="0.05" fill="#84A1AE">  </circle>
<circle class="landmark" cx="-1.900" cy="-0.400" r="0.05" fill="#84A1AE">  </circle>
<circle class="landmark" cx="1.900" cy="-0.400" r="0.05" fill="#84A1AE">  </circle>
<circle class="landmark" cx="-1.900" cy="-0.300" r="0.05" fill="#84A1AE">  </circle>
<circle class="landmark" cx="-1.600" cy="-0.300" r="0.05" fill="#84A1AE">  </circle>
<circle class="landmark" cx="-1.300" cy="-0.300" r="0.05" fill="#84A1AE">  </circle>
<circle class="landmark" cx="-1.200" cy="-0.300" r="0.05" fill="#84A1AE">  </circle>
<circle class="landmark" cx="-1.100" cy="-0.300" r="0.05" fill="#84A1AE">  </circle>
<circle class="landmark" cx="-0.300" cy="-0.300" r="0.05" fill="#84A1AE">  </circle>
<circle class="landmark" cx="-0.200" cy="-0.300" r="0.05" fill="#84A1AE">  </circle>
<circle class="landmark" cx="0.100" cy="-0.300" r="0.05" fill="#84A1AE">  </circle>
<circle class="landmark" cx="0.200" cy="-0.300" r="0.05" fill="#84A1AE">  </circle>
<circle class="landmark" cx="0.300" cy="-0.300" r="0.05" fill="#84A1AE">  </circle>
<circle class="landmark" cx="0.700" cy="-0.300" r="0.05" fill="#84A1AE">  </circle>
<circle class="landmark" cx="0.800" cy="-0.300" r="0.05" fill="#84A1AE">  </circle>
<circle class="landmark" cx="0.900" cy="-0.300" r="0.05" fill="#84A1AE">  </circle>
<circle class="landmark" cx="1.400" cy="-0.300" r="0.05" fill="#84A1AE">  </circle>
<circle class="landmark" cx="1.900" cy="-0.300" r="0.05" fill="#84A1AE">  </circle>
<circle class="landmark" cx="-1.900" cy="-0.200" r="0.05" fill="#84A1AE">  </circle>
<circle class="landmark" cx="-1.400" cy="-0.200" r="0.05" fill="#84A1AE">  </circle>
<circle class="landmark" cx="-1.000" cy="-0.200" r="0.05" fill="#84A1AE">  </circle>
<circle class="landmark" cx="-0.400" cy="-0.200" r="0.05" fill="#84A1AE">  </circle>
<circle class="landmark" cx="-0.000" cy="-0.200" r="0.05" fill="#84A1AE">  </circle>
<circle class="landmark" cx="0.400" cy="-0.200" r="0.05" fill="#84A1AE">  </circle>
<circle class="landmark" cx="0.600" cy="-0.200" r="0.05" fill="#84A1AE">  </circle>
<circle class="landmark" cx="1.000" cy="-0.200" r="0.05" fill="#84A1AE">  </circle>
<circle class="landmark" cx="1.400" cy="-0.200" r="0.05" fill="#84A1AE">  </circle>
<circle class="landmark" cx="1.900" cy="-0.200" r="0.05" fill="#84A1AE">  </circle>
<circle class="landmark" cx="-1.900" cy="-0.100" r="0.05" fill="#84A1AE">  </circle>
<circle class="landmark" cx="-1.600" cy="-0.100" r="0.05" fill="#84A1AE">  </circle>
<circle class="landmark" cx="-1.400" cy="-0.100" r="0.05" fill="#84A1AE">  </circle>
<circle class="landmark" cx="-0.400" cy="-0.100" r="0.05" fill="#84A1AE">  </circle>
<circle class="landmark" cx="-0.000" cy="-0.100" r="0.05" fill="#84A1AE">  </circle>
<circle class="landmark" cx="0.400" cy="-0.100" r="0.05" fill="#84A1AE">  </circle>
<circle class="landmark" cx="0.600" cy="-0.100" r="0.05" fill="#84A1AE">  </circle>
<circle class="landmark" cx="1.200" cy="-0.100" r="0.05" fill="#84A1AE">  </circle>
<circle class="landmark" cx="1.300" cy="-0.100" r="0.05" fill="#84A1AE">  </circle>
<circle class="landmark" cx="1.400" cy="-0.100" r="0.05" fill="#84A1AE">  </circle>
<circle class="landmark" cx="1.500" cy="-0.100" r="0.05" fill="#84A1AE">  </circle>
<circle class="landmark" cx="1.600" cy="-0.100" r="0.05" fill="#84A1AE">  </circle>
<circle class="landmark" cx="1.900" cy="-0.100" r="0.05" fill="#84A1AE">  </circle>
<circle class="landmark" cx="-1.900" cy="0.000" r="0.05" fill="#84A1AE">  </circle>
<circle class="landmark" cx="-1.600" cy="0.000" r="0.05" fill="#84A1AE">  </circle>
<circle class="landmark" cx="-1.300" cy="0.000" r="0.05" fill="#84A1AE">  </circle>
<circle class="landmark" cx="-1.200" cy="0.000" r="0.05" fill="#84A1AE">  </circle>
<circle class="landmark" cx="-1.100" cy="0.000" r="0.05" fill="#84A1AE">  </circle>
<circle class="landmark" cx="-0.600" cy="0.000" r="0.05" fill="#84A1AE">  </circle>
<circle class="landmark" cx="-0.500" cy="0.000" r="0.05" fill="#84A1AE">  </circle>
<circle class="landmark" cx="-0.400" cy="0.000" r="0.05" fill="#84A1AE">  </circle>
<circle class="landmark" cx="-0.300" cy="0.000" r="0.05" fill="#84A1AE">  </circle>
<circle class="landmark" cx="-0.200" cy="0.000" r="0.05" fill="#84A1AE">  </circle>
<circle class="landmark" cx="-0.000" cy="0.000" r="0.05" fill="#84A1AE">  </circle>
<circle class="landmark" cx="0.100" cy="0.000" r="0.05" fill="#84A1AE">  </circle>
<circle class="landmark" cx="0.200" cy="0.000" r="0.05" fill="#84A1AE">  </circle>
<circle class="landmark" cx="0.300" cy="0.000" r="0.05" fill="#84A1AE">  </circle>
<circle class="landmark" cx="0.400" cy="0.000" r="0.05" fill="#84A1AE">  </circle>
<circle class="landmark" cx="0.700" cy="0.000" r="0.05" fill="#84A1AE">  </circle>
<circle class="landmark" cx="0.800" cy="0.000" r="0.05" fill="#84A1AE">  </circle>
<circle class="landmark" cx="0.900" cy="0.000" r="0.05" fill="#84A1AE">  </circle>
<circle class="landmark" cx="1.400" cy="0.000" r="0.05" fill="#84A1AE">  </circle>
<circle class="landmark" cx="1.900" cy="0.000" r="0.05" fill="#84A1AE">  </circle>
<circle class="landmark" cx="-1.900" cy="0.100" r="0.05" fill="#84A1AE">  </circle>
<circle class="landmark" cx="-1.600" cy="0.100" r="0.05" fill="#84A1AE">  </circle>
<circle class="landmark" cx="-1.000" cy="0.100" r="0.05" fill="#84A1AE">  </circle>
<circle class="landmark" cx="-0.400" cy="0.100" r="0.05" fill="#84A1AE">  </circle>
<circle class="landmark" cx="-0.000" cy="0.100" r="0.05" fill="#84A1AE">  </circle>
<circle class="landmark" cx="0.400" cy="0.100" r="0.05" fill="#84A1AE">  </circle>
<circle class="landmark" cx="1.000" cy="0.100" r="0.05" fill="#84A1AE">  </circle>
<circle class="landmark" cx="1.400" cy="0.100" r="0.05" fill="#84A1AE">  </circle>
<circle class="landmark" cx="1.900" cy="0.100" r="0.05" fill="#84A1AE">  </circle>
<circle class="landmark" cx="-1.900" cy="0.200" r="0.05" fill="#84A1AE">  </circle>
<circle class="landmark" cx="-1.600" cy="0.200" r="0.05" fill="#84A1AE">  </circle>
<circle class="landmark" cx="-1.400" cy="0.200" r="0.05" fill="#84A1AE">  </circle>
<circle class="landmark" cx="-1.000" cy="0.200" r="0.05" fill="#84A1AE">  </circle>
<circle class="landmark" cx="-0.400" cy="0.200" r="0.05" fill="#84A1AE">  </circle>
<circle class="landmark" cx="-0.000" cy="0.200" r="0.05" fill="#84A1AE">  </circle>
<circle class="landmark" cx="0.400" cy="0.200" r="0.05" fill="#84A1AE">  </circle>
<circle class="landmark" cx="0.600" cy="0.200" r="0.05" fill="#84A1AE">  </circle>
<circle class="landmark" cx="1.000" cy="0.200" r="0.05" fill="#84A1AE">  </circle>
<circle class="landmark" cx="1.400" cy="0.200" r="0.05" fill="#84A1AE">  </circle>
<circle class="landmark" cx="1.900" cy="0.200" r="0.05" fill="#84A1AE">  </circle>
<circle class="landmark" cx="-1.900" cy="0.300" r="0.05" fill="#84A1AE">  </circle>
<circle class="landmark" cx="-1.600" cy="0.300" r="0.05" fill="#84A1AE">  </circle>
<circle class="landmark" cx="-1.300" cy="0.300" r="0.05" fill="#84A1AE">  </circle>
<circle class="landmark" cx="-1.200" cy="0.300" r="0.05" fill="#84A1AE">  </circle>
<circle class="landmark" cx="-1.100" cy="0.300" r="0.05" fill="#84A1AE">  </circle>
<circle class="landmark" cx="-0.400" cy="0.300" r="0.05" fill="#84A1AE">  </circle>
<circle class="landmark" cx="-0.000" cy="0.300" r="0.05" fill="#84A1AE">  </circle>
<circle class="landmark" cx="0.400" cy="0.300" r="0.05" fill="#84A1AE">  </circle>
<circle class="landmark" cx="0.700" cy="0.300" r="0.05" fill="#84A1AE">  </circle>
<circle class="landmark" cx="0.800" cy="0.300" r="0.05" fill="#84A1AE">  </circle>
<circle class="landmark" cx="0.900" cy="0.300" r="0.05" fill="#84A1AE">  </circle>
<circle class="landmark" cx="1.400" cy="0.300" r="0.05" fill="#84A1AE">  </circle>
<circle class="landmark" cx="1.900" cy="0.300" r="0.05" fill="#84A1AE">  </circle>
<circle class="landmark" cx="-1.900" cy="0.400" r="0.05" fill="#84A1AE">  </circle>
<circle class="landmark" cx="1.900" cy="0.400" r="0.05" fill="#84A1AE">  </circle>
<circle class="landmark" cx="-1.900" cy="0.500" r="0.05" fill="#84A1AE">  </circle>
<circle class="landmark" cx="1.900" cy="0.500" r="0.05" fill="#84A1AE">  </circle>
<circle class="landmark" cx="-1.900" cy="0.600" r="0.05" fill="#84A1AE">  </circle>
<circle class="landmark" cx="-0.400" cy="0.600" r="0.05" fill="#84A1AE">  </circle>
<circle class="landmark" cx="-0.300" cy="0.600" r="0.05" fill="#84A1AE">  </circle>
<circle class="landmark" cx="-0.200" cy="0.600" r="0.05" fill="#84A1AE">  </circle>
<circle class="landmark" cx="0.200" cy="0.600" r="0.05" fill="#84A1AE">  </circle>
<circle class="landmark" cx="0.300" cy="0.600" r="0.05" fill="#84A1AE">  </circle>
<circle class="landmark" cx="0.400" cy="0.600" r="0.05" fill="#84A1AE">  </circle>
<circle class="landmark" cx="1.900" cy="0.600" r="0.05" fill="#84A1AE">  </circle>
<circle class="landmark" cx="-1.900" cy="0.700" r="0.05" fill="#84A1AE">  </circle>
<circle class="landmark" cx="-0.500" cy="0.700" r="0.05" fill="#84A1AE">  </circle>
<circle class="landmark" cx="-0.400" cy="0.700" r="0.05" fill="#84A1AE">  </circle>
<circle class="landmark" cx="-0.300" cy="0.700" r="0.05" fill="#84A1AE">  </circle>
<circle class="landmark" cx="-0.200" cy="0.700" r="0.05" fill="#84A1AE">  </circle>
<circle class="landmark" cx="-0.100" cy="0.700" r="0.05" fill="#84A1AE">  </circle>
<circle class="landmark" cx="0.100" cy="0.700" r="0.05" fill="#84A1AE">  </circle>
<circle class="landmark" cx="0.200" cy="0.700" r="0.05" fill="#84A1AE">  </circle>
<circle class="landmark" cx="0.300" cy="0.700" r="0.05" fill="#84A1AE">  </circle>
<circle class="landmark" cx="0.400" cy="0.700" r="0.05" fill="#84A1AE">  </circle>
<circle class="landmark" cx="0.500" cy="0.700" r="0.05" fill="#84A1AE">  </circle>
<circle class="landmark" cx="1.900" cy="0.700" r="0.05" fill="#84A1AE">  </circle>
<circle class="landmark" cx="-1.900" cy="0.800" r="0.05" fill="#84A1AE">  </circle>
<circle class="landmark" cx="-0.500" cy="0.800" r="0.05" fill="#84A1AE">  </circle>
<circle class="landmark" cx="-0.400" cy="0.800" r="0.05" fill="#84A1AE">  </circle>
<circle class="landmark" cx="-0.300" cy="0.800" r="0.05" fill="#84A1AE">  </circle>
<circle class="landmark" cx="-0.200" cy="0.800" r="0.05" fill="#84A1AE">  </circle>
<circle class="landmark" cx="-0.100" cy="0.800" r="0.05" fill="#84A1AE">  </circle>
<circle class="landmark" cx="-0.000" cy="0.800" r="0.05" fill="#84A1AE">  </circle>
<circle class="landmark" cx="0.100" cy="0.800" r="0.05" fill="#84A1AE">  </circle>
<circle class="landmark" cx="0.200" cy="0.800" r="0.05" fill="#84A1AE">  </circle>
<circle class="landmark" cx="0.300" cy="0.800" r="0.05" fill="#84A1AE">  </circle>
<circle class="landmark" cx="0.400" cy="0.800" r="0.05" fill="#84A1AE">  </circle>
<circle class="landmark" cx="0.500" cy="0.800" r="0.05" fill="#84A1AE">  </circle>
<circle class="landmark" cx="1.900" cy="0.800" r="0.05" fill="#84A1AE">  </circle>
<circle class="landmark" cx="-1.900" cy="0.900" r="0.05" fill="#84A1AE">  </circle>
<circle class="landmark" cx="-0.400" cy="0.900" r="0.05" fill="#84A1AE">  </circle>
<circle class="landmark" cx="-0.300" cy="0.900" r="0.05" fill="#84A1AE">  </circle>
<circle class="landmark" cx="-0.200" cy="0.900" r="0.05" fill="#84A1AE">  </circle>
<circle class="landmark" cx="-0.100" cy="0.900" r="0.05" fill="#84A1AE">  </circle>
<circle class="landmark" cx="-0.000" cy="0.900" r="0.05" fill="#84A1AE">  </circle>
<circle class="landmark" cx="0.100" cy="0.900" r="0.05" fill="#84A1AE">  </circle>
<circle class="landmark" cx="0.200" cy="0.900" r="0.05" fill="#84A1AE">  </circle>
<circle class="landmark" cx="0.300" cy="0.900" r="0.05" fill="#84A1AE">  </circle>
<circle class="landmark" cx="0.400" cy="0.900" r="0.05" fill="#84A1AE">  </circle>
<circle class="landmark" cx="1.900" cy="0.900" r="0.05" fill="#84A1AE">  </circle>
<circle class="landmark" cx="-1.900" cy="1.000" r="0.05" fill="#84A1AE">  </circle>
<circle class="landmark" cx="-0.300" cy="1.000" r="0.05" fill="#84A1AE">  </circle>
<circle class="landmark" cx="-0.200" cy="1.000" r="0.05" fill="#84A1AE">  </circle>
<circle class="landmark" cx="-0.100" cy="1.000" r="0.05" fill="#84A1AE">  </circle>
<circle class="landmark" cx="-0.000" cy="1.000" r="0.05" fill="#84A1AE">  </circle>
<circle class="landmark" cx="0.100" cy="1.000" r="0.05" fill="#84A1AE">  </circle>
<circle class="landmark" cx="0.200" cy="1.000" r="0.05" fill="#84A1AE">  </circle>
<circle class="landmark" cx="0.300" cy="1.000" r="0.05" fill="#84A1AE">  </circle>
<circle class="landmark" cx="1.900" cy="1.000" r="0.05" fill="#84A1AE">  </circle>
<circle class="landmark" cx="-1.900" cy="1.100" r="0.05" fill="#84A1AE">  </circle>
<circle class="landmark" cx="-0.200" cy="1.100" r="0.05" fill="#84A1AE">  </circle>
<circle class="landmark" cx="-0.100" cy="1.100" r="0.05" fill="#84A1AE">  </circle>
<circle class="landmark" cx="-0.000" cy="1.100" r="0.05" fill="#84A1AE">  </circle>
<circle class="landmark" cx="0.100" cy="1.100" r="0.05" fill="#84A1AE">  </circle>
<circle class="landmark" cx="0.200" cy="1.100" r="0.05" fill="#84A1AE">  </circle>
<circle class="landmark" cx="1.900" cy="1.100" r="0.05" fill="#84A1AE">  </circle>
<circle class="landmark" cx="-1.900" cy="1.200" r="0.05" fill="#84A1AE">  </circle>
<circle class="landmark" cx="-0.100" cy="1.200" r="0.05" fill="#84A1AE">  </circle>
<circle class="landmark" cx="-0.000" cy="1.200" r="0.05" fill="#84A1AE">  </circle>
<circle class="landmark" cx="0.100" cy="1.200" r="0.05" fill="#84A1AE">  </circle>
<circle class="landmark" cx="1.900" cy="1.200" r="0.05" fill="#84A1AE">  </circle>
<circle class="landmark" cx="-1.900" cy="1.300" r="0.05" fill="#84A1AE">  </circle>
<circle class="landmark" cx="-0.000" cy="1.300" r="0.05" fill="#84A1AE">  </circle>
<circle class="landmark" cx="1.900" cy="1.300" r="0.05" fill="#84A1AE">  </circle>
<circle class="landmark" cx="-1.900" cy="1.400" r="0.05" fill="#84A1AE">  </circle>
<circle class="landmark" cx="1.900" cy="1.400" r="0.05" fill="#84A1AE">  </circle>
<circle class="landmark" cx="-1.900" cy="1.500" r="0.05" fill="#84A1AE">  </circle>
<circle class="landmark" cx="-1.800" cy="1.500" r="0.05" fill="#84A1AE">  </circle>
<circle class="landmark" cx="-1.700" cy="1.500" r="0.05" fill="#84A1AE">  </circle>
<circle class="landmark" cx="-1.600" cy="1.500" r="0.05" fill="#84A1AE">  </circle>
<circle class="landmark" cx="-1.500" cy="1.500" r="0.05" fill="#84A1AE">  </circle>
<circle class="landmark" cx="-1.400" cy="1.500" r="0.05" fill="#84A1AE">  </circle>
<circle class="landmark" cx="-1.300" cy="1.500" r="0.05" fill="#84A1AE">  </circle>
<circle class="landmark" cx="-1.200" cy="1.500" r="0.05" fill="#84A1AE">  </circle>
<circle class="landmark" cx="-1.100" cy="1.500" r="0.05" fill="#84A1AE">  </circle>
<circle class="landmark" cx="-1.000" cy="1.500" r="0.05" fill="#84A1AE">  </circle>
<circle class="landmark" cx="-0.900" cy="1.500" r="0.05" fill="#84A1AE">  </circle>
<circle class="landmark" cx="-0.800" cy="1.500" r="0.05" fill="#84A1AE">  </circle>
<circle class="landmark" cx="-0.700" cy="1.500" r="0.05" fill="#84A1AE">  </circle>
<circle class="landmark" cx="-0.600" cy="1.500" r="0.05" fill="#84A1AE">  </circle>
<circle class="landmark" cx="-0.500" cy="1.500" r="0.05" fill="#84A1AE">  </circle>
<circle class="landmark" cx="-0.400" cy="1.500" r="0.05" fill="#84A1AE">  </circle>
<circle class="landmark" cx="-0.300" cy="1.500" r="0.05" fill="#84A1AE">  </circle>
<circle class="landmark" cx="-0.200" cy="1.500" r="0.05" fill="#84A1AE">  </circle>
<circle class="landmark" cx="-0.100" cy="1.500" r="0.05" fill="#84A1AE">  </circle>
<circle class="landmark" cx="-0.000" cy="1.500" r="0.05" fill="#84A1AE">  </circle>
<circle class="landmark" cx="0.100" cy="1.500" r="0.05" fill="#84A1AE">  </circle>
<circle class="landmark" cx="0.200" cy="1.500" r="0.05" fill="#84A1AE">  </circle>
<circle class="landmark" cx="0.300" cy="1.500" r="0.05" fill="#84A1AE">  </circle>
<circle class="landmark" cx="0.400" cy="1.500" r="0.05" fill="#84A1AE">  </circle>
<circle class="landmark" cx="0.500" cy="1.500" r="0.05" fill="#84A1AE">  </circle>
<circle class="landmark" cx="0.600" cy="1.500" r="0.05" fill="#84A1AE">  </circle>
<circle class="landmark" cx="0.700" cy="1.500" r="0.05" fill="#84A1AE">  </circle>
<circle class="landmark" cx="0.800" cy="1.500" r="0.05" fill="#84A1AE">  </circle>
<circle class="landmark" cx="0.900" cy="1.500" r="0.05" fill="#84A1AE">  </circle>
<circle class="landmark" cx="1.000" cy="1.500" r="0.05" fill="#84A1AE">  </circle>
<circle class="landmark" cx="1.100" cy="1.500" r="0.05" fill="#84A1AE">  </circle>
<circle class="landmark" cx="1.200" cy="1.500" r="0.05" fill="#84A1AE">  </circle>
<circle class="landmark" cx="1.300" cy="1.500" r="0.05" fill="#84A1AE">  </circle>
<circle class="landmark" cx="1.400" cy="1.500" r="0.05" fill="#84A1AE">  </circle>
<circle class="landmark" cx="1.500" cy="1.500" r="0.05" fill="#84A1AE">  </circle>
<circle class="landmark" cx="1.600" cy="1.500" r="0.05" fill="#84A1AE">  </circle>
<circle class="landmark" cx="1.700" cy="1.500" r="0.05" fill="#84A1AE">  </circle>
<circle class="landmark" cx="1.800" cy="1.500" r="0.05" fill="#84A1AE">  </circle>
<circle class="landmark" cx="1.900" cy="1.500" r="0.05" fill="#84A1AE">  </circle>


<circle class="goal" cx="-0.500" cy="0.300" r="0.008" fill="hsl(0, 100%, 50%)">  </circle>
<circle class="goal" cx="1.200" cy="1.000" r="0.008" fill="hsl(25, 100%, 50%)">  </circle>
<circle class="goal" cx="-0.000" cy="-0.600" r="0.008" fill="hsl(50, 100%, 50%)">  </circle>
<circle class="goal" cx="1.500" cy="0.800" r="0.008" fill="hsl(75, 100%, 50%)">  </circle>
<circle class="goal" cx="1.500" cy="1.300" r="0.008" fill="hsl(100, 100%, 50%)">  </circle>
<circle class="goal" cx="0.300" cy="-1.000" r="0.008" fill="hsl(125, 100%, 50%)">  </circle>
<circle class="goal" cx="0.900" cy="0.500" r="0.008" fill="hsl(150, 100%, 50%)">  </circle>
<circle class="goal" cx="-1.000" cy="0.800" r="0.008" fill="hsl(175, 100%, 50%)">  </circle>
<circle class="goal" cx="0.200" cy="-1.300" r="0.008" fill="hsl(200, 100%, 50%)">  </circle>
<circle class="goal" cx="-1.500" cy="0.300" r="0.008" fill="hsl(225, 100%, 50%)">  </circle>
<circle class="goal" cx="-0.700" cy="1.300" r="0.008" fill="hsl(250, 100%, 50%)">  </circle>
<circle class="goal" cx="-0.300" cy="-1.000" r="0.008" fill="hsl(275, 100%, 50%)">  </circle>
<circle class="goal" cx="-0.200" cy="-0.400" r="0.008" fill="hsl(300, 100%, 50%)">  </circle>
<circle class="goal" cx="1.600" cy="0.700" r="0.008" fill="hsl(325, 100%, 50%)">  </circle>
<circle class="goal" cx="1.800" cy="1.100" r="0.008" fill="hsl(350, 100%, 50%)">  </circle>
<circle class="goal" cx="1.100" cy="0.800" r="0.008" fill="hsl(15, 100%, 50%)">  </circle>
<circle class="goal" cx="1.800" cy="0.900" r="0.008" fill="hsl(40, 100%, 50%)">  </circle>
<circle class="goal" cx="1.100" cy="-0.700" r="0.008" fill="hsl(65, 100%, 50%)">  </circle>
<circle class="goal" cx="0.200" cy="-0.500" r="0.008" fill="hsl(90, 100%, 50%)">  </circle>
<circle class="goal" cx="-1.700" cy="0.300" r="0.008" fill="hsl(115, 100%, 50%)">  </circle>
<circle class="goal" cx="1.700" cy="-1.000" r="0.008" fill="hsl(140, 100%, 50%)">  </circle>
<circle class="goal" cx="-1.200" cy="0.600" r="0.008" fill="hsl(165, 100%, 50%)">  </circle>
<circle class="goal" cx="-1.000" cy="-1.100" r="0.008" fill="hsl(190, 100%, 50%)">  </circle>
<circle class="goal" cx="-1.400" cy="-1.300" r="0.008" fill="hsl(215, 100%, 50%)">  </circle>
<circle class="goal" cx="-1.100" cy="-0.200" r="0.008" fill="hsl(240, 100%, 50%)">  </circle>
<circle class="goal" cx="-1.700" cy="-1.200" r="0.008" fill="hsl(265, 100%, 50%)">  </circle>
<circle class="goal" cx="1.700" cy="-1.400" r="0.008" fill="hsl(290, 100%, 50%)">  </circle>
<circle class="goal" cx="1.800" cy="1.200" r="0.008" fill="hsl(315, 100%, 50%)">  </circle>
<circle class="goal" cx="-0.500" cy="-0.600" r="0.008" fill="hsl(340, 100%, 50%)">  </circle>
<circle class="goal" cx="1.100" cy="-0.500" r="0.008" fill="hsl(5, 100%, 50%)">  </circle>
<circle class="goal" cx="1.000" cy="0.400" r="0.008" fill="hsl(30, 100%, 50%)">  </circle>
<circle class="goal" cx="0.900" cy="-1.100" r="0.008" fill="hsl(55, 100%, 50%)">  </circle>


<circle class="agent" cx="0.400" cy="1.300" r="0.02" fill="hsl(0, 70%, 50%)">  </circle>
<circle class="agent" cx="-0.500" cy="0.400" r="0.02" fill="hsl(25, 70%, 50%)">  </circle>
<circle class="agent" cx="1.700" cy="-1.000" r="0.02" fill="hsl(50, 70%, 50%)">  </circle>
<circle class="agent" cx="-1.500" cy="1.400" r="0.02" fill="hsl(75, 70%, 50%)">  </circle>
<circle class="agent" cx="-1.700" cy="0.300" r="0.02" fill="hsl(100, 70%, 50%)">  </circle>
<circle class="agent" cx="1.200" cy="-0.200" r="0.02" fill="hsl(125, 70%, 50%)">  </circle>
<circle class="agent" cx="-1.500" cy="0.300" r="0.02" fill="hsl(150, 70%, 50%)">  </circle>
<circle class="agent" cx="-0.400" cy="0.400" r="0.02" fill="hsl(175, 70%, 50%)">  </circle>
<circle class="agent" cx="-1.100" cy="0.200" r="0.02" fill="hsl(200, 70%, 50%)">  </circle>
<circle class="agent" cx="-1.100" cy="1.200" r="0.02" fill="hsl(225, 70%, 50%)">  </circle>
<circle class="agent" cx="-0.700" cy="-0.500" r="0.02" fill="hsl(250, 70%, 50%)">  </circle>
<circle class="agent" cx="1.200" cy="-0.600" r="0.02" fill="hsl(275, 70%, 50%)">  </circle>
<circle class="agent" cx="-1.800" cy="-0.300" r="0.02" fill="hsl(300, 70%, 50%)">  </circle>
<circle class="agent" cx="1.700" cy="0.000" r="0.02" fill="hsl(325, 70%, 50%)">  </circle>
<circle class="agent" cx="-0.600" cy="-0.600" r="0.02" fill="hsl(350, 70%, 50%)">  </circle>
<circle class="agent" cx="1.200" cy="0.900" r="0.02" fill="hsl(15, 70%, 50%)">  </circle>
<circle class="agent" cx="0.600" cy="0.700" r="0.02" fill="hsl(40, 70%, 50%)">  </circle>
<circle class="agent" cx="1.300" cy="0.400" r="0.02" fill="hsl(65, 70%, 50%)">  </circle>
<circle class="agent" cx="0.200" cy="0.500" r="0.02" fill="hsl(90, 70%, 50%)">  </circle>
<circle class="agent" cx="-0.400" cy="-0.500" r="0.02" fill="hsl(115, 70%, 50%)">  </circle>
<circle class="agent" cx="-0.600" cy="0.700" r="0.02" fill="hsl(140, 70%, 50%)">  </circle>
<circle class="agent" cx="1.000" cy="0.600" r="0.02" fill="hsl(165, 70%, 50%)">  </circle>
<circle class="agent" cx="1.000" cy="0.800" r="0.02" fill="hsl(190, 70%, 50%)">  </circle>
<circle class="agent" cx="0.100" cy="0.500" r="0.02" fill="hsl(215, 70%, 50%)">  </circle>
<circle class="agent" cx="0.300" cy="-0.600" r="0.02" fill="hsl(240, 70%, 50%)">  </circle>
<circle class="agent" cx="-1.000" cy="1.000" r="0.02" fill="hsl(265, 70%, 50%)">  </circle>
<circle class="agent" cx="1.600" cy="1.400" r="0.02" fill="hsl(290, 70%, 50%)">  </circle>
<circle class="agent" cx="-1.800" cy="-0.100" r="0.02" fill="hsl(315, 70%, 50%)">  </circle>
<circle class="agent" cx="-0.700" cy="0.200" r="0.02" fill="hsl(340, 70%, 50%)">  </circle>
<circle class="agent" cx="1.500" cy="1.100" r="0.02" fill="hsl(5, 70%, 50%)">  </circle>
<circle class="agent" cx="0.900" cy="-0.100" r="0.02" fill="hsl(30, 70%, 50%)">  </circle>
<circle class="agent" cx="0.900" cy="-0.700" r="0.02" fill="hsl(55, 70%, 50%)">  </circle>
</svg>