<?xml version="1.0" encoding="UTF-8"?>
<svg xmlns="http://www.w3.org/2000/svg" xmlns:xlink="http://www.w3.org/1999/xlink"
	width="512" height="512" viewBox="-1.05 -1.05 2.1 2.1">


<defs>
<style>
	.landmark {fill: #84A1AE; r: 0.05;}
	.agent {r: 0.02;}
	.goal {stroke: black; stroke-width: 0.002; r: 0.008;}
</style>
</defs>


<circle class="landmark" cx="-1.000" cy="-1.000">  </circle>
<circle class="landmark" cx="-0.900" cy="-1.000">  </circle>
<circle class="landmark" cx="-0.800" cy="-1.000">  </circle>
<circle class="landmark" cx="-0.700" cy="-1.000">  </circle>
<circle class="landmark" cx="-0.600" cy="-1.000">  </circle>
<circle class="landmark" cx="-0.500" cy="-1.000">  </circle>
<circle class="landmark" cx="-0.400" cy="-1.000">  </circle>
<circle class="landmark" cx="-0.300" cy="-1.000">  </circle>
<circle class="landmark" cx="-0.200" cy="-1.000">  </circle>
<circle class="landmark" cx="-0.100" cy="-1.000">  </circle>
<circle class="landmark" cx="0.000" cy="-1.000">  </circle>
<circle class="landmark" cx="0.100" cy="-1.000">  </circle>
<circle class="landmark" cx="0.200" cy="-1.000">  </circle>
<circle class="landmark" cx="0.300" cy="-1.000">  </circle>
<circle class="landmark" cx="0.400" cy="-1.000">  </circle>
<circle class="landmark" cx="0.500" cy="-1.000">  </circle>
<circle class="landmark" cx="0.600" cy="-1.000">  </circle>
<circle class="landmark" cx="0.700" cy="-1.000">  </circle>
<circle class="landmark" cx="0.800" cy="-1.000">  </circle>
<circle class="landmark" cx="0.900" cy="-1.000">  </circle>
<circle class="landmark" cx="1.000" cy="-1.000">  </circle>
<circle class="landmark" cx="-1.000" cy="-0.900">  </circle>
<circle class="landmark" cx="-0.900" cy="-0.900">  </circle>
<circle class="landmark" cx="-0.800" cy="-0.900">  </circle>
<circle class="landmark" cx="-0.700" cy="-0.900">  </circle>
<circle class="landmark" cx="-0.600" cy="-0.900">  </circle>
<circle class="landmark" cx="-0.500" cy="-0.900">  </circle>
<circle class="landmark" cx="-0.400" cy="-0.900">  </circle>
<circle class="landmark" cx="-0.300" cy="-0.900">  </circle>
<circle class="landmark" cx="-0.200" cy="-0.900">  </circle>
<circle class="landmark" cx="-0.100" cy="-0.900">  </circle>
<circle class="landmark" cx="0.000" cy="-0.900">  </circle>
<circle class="landmark" cx="0.100" cy="-0.900">  </circle>
<circle class="landmark" cx="0.200" cy="-0.900">  </circle>
<circle class="landmark" cx="0.300" cy="-0.900">  </circle>
<circle class="landmark" cx="0.400" cy="-0.900">  </circle>
<circle class="landmark" cx="0.500" cy="-0.900">  </circle>
<circle class="landmark" cx="0.600" cy="-0.900">  </circle>
<circle class="landmark" cx="0.700" cy="-0.900">  </circle>
<circle class="landmark" cx="0.800" cy="-0.900">  </circle>
<circle class="landmark" cx="0.900" cy="-0.900">  </circle>
<circle class="landmark" cx="1.000" cy="-0.900">  </circle>
<circle class="landmark" cx="-1.000" cy="-0.800">  </circle>
<circle class="landmark" cx="-0.900" cy="-0.800">  </circle>
<circle class="landmark" cx="0.300" cy="-0.800">  </circle>
<circle class="landmark" cx="0.900" cy="-0.800">  </circle>
<circle class="landmark" cx="1.000" cy="-0.800">  </circle>
<circle class="landmark" cx="-1.000" cy="-0.700">  </circle>
<circle class="landmark" cx="-0.900" cy="-0.700">  </circle>
<circle class="landmark" cx="-0.700" cy="-0.700">  </circle>
<circle class="landmark" cx="-0.600" cy="-0.700">  </circle>
<circle class="landmark" cx="-0.500" cy="-0.700">  </circle>
<circle class="landmark" cx="-0.400" cy="-0.700">  </circle>
<circle class="landmark" cx="-0.300" cy="-0.700">  </circle>
<circle class="landmark" cx="-0.100" cy="-0.700">  </circle>
<circle class="landmark" cx="0.300" cy="-0.700">  </circle>
<circle class="landmark" cx="0.900" cy="-0.700">  </circle>
<circle class="landmark" cx="1.000" cy="-0.700">  </circle>
<circle class="landmark" cx="-1.000" cy="-0.600">  </circle>
<circle class="landmark" cx="-0.900" cy="-0.600">  </circle>
<circle class="landmark" cx="-0.300" cy="-0.600">  </circle>
<circle class="landmark" cx="-0.100" cy="-0.600">  </circle>
<circle class="landmark" cx="0.900" cy="-0.600">  </circle>
<circle class="landmark" cx="1.000" cy="-0.600">  </circle>
<circle class="landmark" cx="-1.000" cy="-0.500">  </circle>
<circle class="landmark" cx="-0.900" cy="-0.500">  </circle>
<circle class="landmark" cx="-0.700" cy="-0.500">  </circle>
<circle class="landmark" cx="-0.300" cy="-0.500">  </circle>
<circle class="landmark" cx="-0.100" cy="-0.500">  </circle>
<circle class="landmark" cx="0.000" cy="-0.500">  </circle>
<circle class="landmark" cx="0.100" cy="-0.500">  </circle>
<circle class="landmark" cx="0.300" cy="-0.500">  </circle>
<circle class="landmark" cx="0.400" cy="-0.500">  </circle>
<circle class="landmark" cx="0.500" cy="-0.500">  </circle>
<circle class="landmark" cx="0.600" cy="-0.500">  </circle>
<circle class="landmark" cx="0.700" cy="-0.500">  </circle>
<circle class="landmark" cx="0.900" cy="-0.500">  </circle>
<circle class="landmark" cx="1.000" cy="-0.500">  </circle>
<circle class="landmark" cx="-1.000" cy="-0.400">  </circle>
<circle class="landmark" cx="-0.900" cy="-0.400">  </circle>
<circle class="landmark" cx="-0.700" cy="-0.400">  </circle>
<circle class="landmark" cx="-0.300" cy="-0.400">  </circle>
<circle class="landmark" cx="0.900" cy="-0.400">  </circle>
<circle class="landmark" cx="1.000" cy="-0.400">  </circle>
<circle class="landmark" cx="-1.000" cy="-0.300">  </circle>
<circle class="landmark" cx="-0.900" cy="-0.300">  </circle>
<circle class="landmark" cx="-0.700" cy="-0.300">  </circle>
<circle class="landmark" cx="-0.600" cy="-0.300">  </circle>
<circle class="landmark" cx="-0.500" cy="-0.300">  </circle>
<circle class="landmark" cx="-0.300" cy="-0.300">  </circle>
<circle class="landmark" cx="-0.100" cy="-0.300">  </circle>
<circle class="landmark" cx="0.300" cy="-0.300">  </circle>
<circle class="landmark" cx="0.900" cy="-0.300">  </circle>
<circle class="landmark" cx="1.000" cy="-0.300">  </circle>
<circle class="landmark" cx="-1.000" cy="-0.200">  </circle>
<circle class="landmark" cx="-0.900" cy="-0.200">  </circle>
<circle class="landmark" cx="-0.500" cy="-0.200">  </circle>
<circle class="landmark" cx="0.300" cy="-0.200">  </circle>
<circle class="landmark" cx="0.900" cy="-0.200">  </circle>
<circle class="landmark" cx="1.000" cy="-0.200">  </circle>
<circle class="landmark" cx="-1.000" cy="-0.100">  </circle>
<circle class="landmark" cx="-0.900" cy="-0.100">  </circle>
<circle class="landmark" cx="-0.800" cy="-0.100">  </circle>
<circle class="landmark" cx="-0.700" cy="-0.100">  </circle>
<circle class="landmark" cx="-0.500" cy="-0.100">  </circle>
<circle class="landmark" cx="-0.100" cy="-0.100">  </circle>
<circle class="landmark" cx="0.100" cy="-0.100">  </circle>
<circle class="landmark" cx="0.200" cy="-0.100">  </circle>
<circle class="landmark" cx="0.300" cy="-0.100">  </circle>
<circle class="landmark" cx="0.500" cy="-0.100">  </circle>
<circle class="landmark" cx="0.600" cy="-0.100">  </circle>
<circle class="landmark" cx="0.700" cy="-0.100">  </circle>
<circle class="landmark" cx="0.900" cy="-0.100">  </circle>
<circle class="landmark" cx="1.000" cy="-0.100">  </circle>
<circle class="landmark" cx="-1.000" cy="0.000">  </circle>
<circle class="landmark" cx="-0.900" cy="0.000">  </circle>
<circle class="landmark" cx="0.700" cy="0.000">  </circle>
<circle class="landmark" cx="0.900" cy="0.000">  </circle>
<circle class="landmark" cx="1.000" cy="0.000">  </circle>
<circle class="landmark" cx="-1.000" cy="0.100">  </circle>
<circle class="landmark" cx="-0.900" cy="0.100">  </circle>
<circle class="landmark" cx="-0.500" cy="0.100">  </circle>
<circle class="landmark" cx="-0.400" cy="0.100">  </circle>
<circle class="landmark" cx="-0.300" cy="0.100">  </circle>
<circle class="landmark" cx="-0.100" cy="0.100">  </circle>
<circle class="landmark" cx="0.300" cy="0.100">  </circle>
<circle class="landmark" cx="0.700" cy="0.100">  </circle>
<circle class="landmark" cx="0.900" cy="0.100">  </circle>
<circle class="landmark" cx="1.000" cy="0.100">  </circle>
<circle class="landmark" cx="-1.000" cy="0.200">  </circle>
<circle class="landmark" cx="-0.900" cy="0.200">  </circle>
<circle class="landmark" cx="0.300" cy="0.200">  </circle>
<circle class="landmark" cx="0.700" cy="0.200">  </circle>
<circle class="landmark" cx="0.900" cy="0.200">  </circle>
<circle class="landmark" cx="1.000" cy="0.200">  </circle>
<circle class="landmark" cx="-1.000" cy="0.300">  </circle>
<circle class="landmark" cx="-0.900" cy="0.300">  </circle>
<circle class="landmark" cx="-0.700" cy="0.300">  </circle>
<circle class="landmark" cx="-0.600" cy="0.300">  </circle>
<circle class="landmark" cx="-0.500" cy="0.300">  </circle>
<circle class="landmark" cx="-0.100" cy="0.300">  </circle>
<circle class="landmark" cx="0.000" cy="0.300">  </circle>
<circle class="landmark" cx="0.100" cy="0.300">  </circle>
<circle class="landmark" cx="0.300" cy="0.300">  </circle>
<circle class="landmark" cx="0.500" cy="0.300">  </circle>
<circle class="landmark" cx="0.600" cy="0.300">  </circle>
<circle class="landmark" cx="0.700" cy="0.300">  </circle>
<circle class="landmark" cx="0.900" cy="0.300">  </circle>
<circle class="landmark" cx="1.000" cy="0.300">  </circle>
<circle class="landmark" cx="-1.000" cy="0.400">  </circle>
<circle class="landmark" cx="-0.900" cy="0.400">  </circle>
<circle class="landmark" cx="-0.100" cy="0.400">  </circle>
<circle class="landmark" cx="0.900" cy="0.400">  </circle>
<circle class="landmark" cx="1.000" cy="0.400">  </circle>
<circle class="landmark" cx="-1.000" cy="0.500">  </circle>
<circle class="landmark" cx="-0.900" cy="0.500">  </circle>
<circle class="landmark" cx="-0.500" cy="0.500">  </circle>
<circle class="landmark" cx="-0.100" cy="0.500">  </circle>
<circle class="landmark" cx="0.100" cy="0.500">  </circle>
<circle class="landmark" cx="0.300" cy="0.500">  </circle>
<circle class="landmark" cx="0.400" cy="0.500">  </circle>
<circle class="landmark" cx="0.500" cy="0.500">  </circle>
<circle class="landmark" cx="0.600" cy="0.500">  </circle>
<circle class="landmark" cx="0.700" cy="0.500">  </circle>
<circle class="landmark" cx="0.800" cy="0.500">  </circle>
<circle class="landmark" cx="0.900" cy="0.500">  </circle>
<circle class="landmark" cx="1.000" cy="0.500">  </circle>
<circle class="landmark" cx="-1.000" cy="0.600">  </circle>
<circle class="landmark" cx="-0.900" cy="0.600">  </circle>
<circle class="landmark" cx="-0.500" cy="0.600">  </circle>
<circle class="landmark" cx="0.100" cy="0.600">  </circle>
<circle class="landmark" cx="0.700" cy="0.600">  </circle>
<circle class="landmark" cx="0.800" cy="0.600">  </circle>
<circle class="landmark" cx="0.900" cy="0.600">  </circle>
<circle class="landmark" cx="1.000" cy="0.600">  </circle>
<circle class="landmark" cx="-1.000" cy="0.700">  </circle>
<circle class="landmark" cx="-0.900" cy="0.700">  </circle>
<circle class="landmark" cx="-0.500" cy="0.700">  </circle>
<circle class="landmark" cx="-0.400" cy="0.700">  </circle>
<circle class="landmark" cx="-0.300" cy="0.700">  </circle>
<circle class="landmark" cx="-0.200" cy="0.700">  </circle>
<circle class="landmark" cx="-0.100" cy="0.700">  </circle>
<circle class="landmark" cx="0.100" cy="0.700">  </circle>
<circle class="landmark" cx="0.700" cy="0.700">  </circle>
<circle class="landmark" cx="0.800" cy="0.700">  </circle>
<circle class="landmark" cx="0.900" cy="0.700">  </circle>
<circle class="landmark" cx="1.000" cy="0.700">  </circle>
<circle class="landmark" cx="-1.000" cy="0.800">  </circle>
<circle class="landmark" cx="-0.900" cy="0.800">  </circle>
<circle class="landmark" cx="0.100" cy="0.800">  </circle>
<circle class="landmark" cx="0.700" cy="0.800">  </circle>
<circle class="landmark" cx="0.800" cy="0.800">  </circle>
<circle class="landmark" cx="0.900" cy="0.800">  </circle>
<circle class="landmark" cx="1.000" cy="0.800">  </circle>
<circle class="landmark" cx="-1.000" cy="0.900">  </circle>
<circle class="landmark" cx="-0.900" cy="0.900">  </circle>
<circle class="landmark" cx="-0.800" cy="0.900">  </circle>
<circle class="landmark" cx="-0.700" cy="0.900">  </circle>
<circle class="landmark" cx="-0.600" cy="0.900">  </circle>
<circle class="landmark" cx="-0.500" cy="0.900">  </circle>
<circle class="landmark" cx="-0.400" cy="0.900">  </circle>
<circle class="landmark" cx="-0.300" cy="0.900">  </circle>
<circle class="landmark" cx="-0.200" cy="0.900">  </circle>
<circle class="landmark" cx="-0.100" cy="0.900">  </circle>
<circle class="landmark" cx="0.000" cy="0.900">  </circle>
<circle class="landmark" cx="0.100" cy="0.900">  </circle>
<circle class="landmark" cx="0.200" cy="0.900">  </circle>
<circle class="landmark" cx="0.300" cy="0.900">  </circle>
<circle class="landmark" cx="0.400" cy="0.900">  </circle>
<circle class="landmark" cx="0.500" cy="0.900">  </circle>
<circle class="landmark" cx="0.600" cy="0.900">  </circle>
<circle class="landmark" cx="0.700" cy="0.900">  </circle>
<circle class="landmark" cx="0.800" cy="0.900">  </circle>
<circle class="landmark" cx="0.900" cy="0.900">  </circle>
<circle class="landmark" cx="1.000" cy="0.900">  </circle>
<circle class="landmark" cx="-1.000" cy="1.000">  </circle>
<circle class="landmark" cx="-0.900" cy="1.000">  </circle>
<circle class="landmark" cx="-0.800" cy="1.000">  </circle>
<circle class="landmark" cx="-0.700" cy="1.000">  </circle>
<circle class="landmark" cx="-0.600" cy="1.000">  </circle>
<circle class="landmark" cx="-0.500" cy="1.000">  </circle>
<circle class="landmark" cx="-0.400" cy="1.000">  </circle>
<circle class="landmark" cx="-0.300" cy="1.000">  </circle>
<circle class="landmark" cx="-0.200" cy="1.000">  </circle>
<circle class="landmark" cx="-0.100" cy="1.000">  </circle>
<circle class="landmark" cx="0.000" cy="1.000">  </circle>
<circle class="landmark" cx="0.100" cy="1.000">  </circle>
<circle class="landmark" cx="0.200" cy="1.000">  </circle>
<circle class="landmark" cx="0.300" cy="1.000">  </circle>
<circle class="landmark" cx="0.400" cy="1.000">  </circle>
<circle class="landmark" cx="0.500" cy="1.000">  </circle>
<circle class="landmark" cx="0.600" cy="1.000">  </circle>
<circle class="landmark" cx="0.700" cy="1.000">  </circle>
<circle class="landmark" cx="0.800" cy="1.000">  </circle>
<circle class="landmark" cx="0.900" cy="1.000">  </circle>
<circle class="landmark" cx="1.000" cy="1.000">  </circle>
<circle class="landmark" cx="-100.000" cy="-100.000">  </circle>
<circle class="landmark" cx="-100.000" cy="-100.000">  </circle>
<circle class="landmark" cx="-100.000" cy="-100.000">  </circle>
<circle class="landmark" cx="-100.000" cy="-100.000">  </circle>
<circle class="landmark" cx="-100.000" cy="-100.000">  </circle>
<circle class="landmark" cx="-100.000" cy="-100.000">  </circle>
<circle class="landmark" cx="-100.000" cy="-100.000">  </circle>
<circle class="landmark" cx="-100.000" cy="-100.000">  </circle>
<circle class="landmark" cx="-100.000" cy="-100.000">  </circle>
<circle class="landmark" cx="-100.000" cy="-100.000">  </circle>
<circle class="landmark" cx="-100.000" cy="-100.000">  </circle>
<circle class="landmark" cx="-100.000" cy="-100.000">  </circle>
<circle class="landmark" cx="-100.000" cy="-100.000">  </circle>
<circle class="landmark" cx="-100.000" cy="-100.000">  </circle>
<circle class="landmark" cx="-100.000" cy="-100.000">  </circle>
<circle class="landmark" cx="-100.000" cy="-100.000">  </circle>
<circle class="landmark" cx="-100.000" cy="-100.000">  </circle>
<circle class="landmark" cx="-100.000" cy="-100.000">  </circle>
<circle class="landmark" cx="-100.000" cy="-100.000">  </circle>
<circle class="landmark" cx="-100.000" cy="-100.000">  </circle>
<circle class="landmark" cx="-100.000" cy="-100.000">  </circle>
<circle class="landmark" cx="-100.000" cy="-100.000">  </circle>
<circle class="landmark" cx="-100.000" cy="-100.000">  </circle>
<circle class="landmark" cx="-100.000" cy="-100.000">  </circle>


<circle class="goal" cx="-0.400" cy="-0.800" fill="hsl(0, 100%, 50%)">  </circle>
<circle class="goal" cx="-0.300" cy="0.300" fill="hsl(36, 100%, 50%)">  </circle>
<circle class="goal" cx="-0.400" cy="0.500" fill="hsl(72, 100%, 50%)">  </circle>
<circle class="goal" cx="-0.400" cy="0.000" fill="hsl(108, 100%, 50%)">  </circle>
<circle class="goal" cx="0.100" cy="-0.200" fill="hsl(144, 100%, 50%)">  </circle>
<circle class="goal" cx="0.400" cy="0.000" fill="hsl(180, 100%, 50%)">  </circle>
<circle class="goal" cx="-0.300" cy="-0.200" fill="hsl(216, 100%, 50%)">  </circle>
<circle class="goal" cx="-0.800" cy="0.800" fill="hsl(252, 100%, 50%)">  </circle>
<circle class="goal" cx="-0.600" cy="0.500" fill="hsl(288, 100%, 50%)">  </circle>
<circle class="goal" cx="-0.100" cy="-0.400" fill="hsl(324, 100%, 50%)">  </circle>


<circle class="agent" fill="hsl(0, 70%, 50%)">
<animate attributeName="cx" dur="0.02s"
	keyTimes="0.0;1.0" repeatCount="indefinite"
	values="-0.300;-0.301"/>
<animate attributeName="cy" dur="0.02s"
	keyTimes="0.0;1.0" repeatCount="indefinite"
	values="0.400;0.400"/>
</circle>


<circle class="agent" fill="hsl(36, 70%, 50%)">
<animate attributeName="cx" dur="0.02s"
	keyTimes="0.0;1.0" repeatCount="indefinite"
	values="0.400;0.400"/>
<animate attributeName="cy" dur="0.02s"
	keyTimes="0.0;1.0" repeatCount="indefinite"
	values="0.000;0.000"/>
</circle>


<circle class="agent" fill="hsl(72, 70%, 50%)">
<animate attributeName="cx" dur="0.02s"
	keyTimes="0.0;1.0" repeatCount="indefinite"
	values="-0.800;-0.800"/>
<animate attributeName="cy" dur="0.02s"
	keyTimes="0.0;1.0" repeatCount="indefinite"
	values="0.000;-0.001"/>
</circle>


<circle class="agent" fill="hsl(108, 70%, 50%)">
<animate attributeName="cx" dur="0.02s"
	keyTimes="0.0;1.0" repeatCount="indefinite"
	values="-0.800;-0.799"/>
<animate attributeName="cy" dur="0.02s"
	keyTimes="0.0;1.0" repeatCount="indefinite"
	values="-0.500;-0.500"/>
</circle>


<circle class="agent" fill="hsl(144, 70%, 50%)">
<animate attributeName="cx" dur="0.02s"
	keyTimes="0.0;1.0" repeatCount="indefinite"
	values="-0.200;-0.200"/>
<animate attributeName="cy" dur="0.02s"
	keyTimes="0.0;1.0" repeatCount="indefinite"
	values="0.300;0.301"/>
</circle>


<circle class="agent" fill="hsl(180, 70%, 50%)">
<animate attributeName="cx" dur="0.02s"
	keyTimes="0.0;1.0" repeatCount="indefinite"
	values="-0.300;-0.299"/>
<animate attributeName="cy" dur="0.02s"
	keyTimes="0.0;1.0" repeatCount="indefinite"
	values="0.000;0.000"/>
</circle>


<circle class="agent" fill="hsl(216, 70%, 50%)">
<animate attributeName="cx" dur="0.02s"
	keyTimes="0.0;1.0" repeatCount="indefinite"
	values="0.500;0.500"/>
<animate attributeName="cy" dur="0.02s"
	keyTimes="0.0;1.0" repeatCount="indefinite"
	values="-0.800;-0.801"/>
</circle>


<circle class="agent" fill="hsl(252, 70%, 50%)">
<animate attributeName="cx" dur="0.02s"
	keyTimes="0.0;1.0" repeatCount="indefinite"
	values="-0.600;-0.601"/>
<animate attributeName="cy" dur="0.02s"
	keyTimes="0.0;1.0" repeatCount="indefinite"
	values="0.600;0.601"/>
</circle>


<circle class="agent" fill="hsl(288, 70%, 50%)">
<animate attributeName="cx" dur="0.02s"
	keyTimes="0.0;1.0" repeatCount="indefinite"
	values="-0.100;-0.100"/>
<animate attributeName="cy" dur="0.02s"
	keyTimes="0.0;1.0" repeatCount="indefinite"
	values="-0.800;-0.799"/>
</circle>


<circle class="agent" fill="hsl(324, 70%, 50%)">
<animate attributeName="cx" dur="0.02s"
	keyTimes="0.0;1.0" repeatCount="indefinite"
	values="-0.400;-0.399"/>
<animate attributeName="cy" dur="0.02s"
	keyTimes="0.0;1.0" repeatCount="indefinite"
	values="0.200;0.200"/>
</circle>


</svg>