<?xml version="1.0" encoding="UTF-8"?>
<svg xmlns="http://www.w3.org/2000/svg" xmlns:xlink="http://www.w3.org/1999/xlink"
	width="512" height="413" viewBox="-2.0500000000000003 -1.6500000000000001 4.1000000000000005 3.3000000000000003">


<defs>
<style>
	.landmark {{ }}
	.agent {{ }}
	.goal {stroke: black; stroke-width: 0.002;}
</style>
</defs>


<circle class="landmark" cx="-2.000" cy="-1.600" r="0.05" fill="#84A1AE">  </circle>
<circle class="landmark" cx="-1.900" cy="-1.600" r="0.05" fill="#84A1AE">  </circle>
<circle class="landmark" cx="-1.800" cy="-1.600" r="0.05" fill="#84A1AE">  </circle>
<circle class="landmark" cx="-1.700" cy="-1.600" r="0.05" fill="#84A1AE">  </circle>
<circle class="landmark" cx="-1.600" cy="-1.600" r="0.05" fill="#84A1AE">  </circle>
<circle class="landmark" cx="-1.500" cy="-1.600" r="0.05" fill="#84A1AE">  </circle>
<circle class="landmark" cx="-1.400" cy="-1.600" r="0.05" fill="#84A1AE">  </circle>
<circle class="landmark" cx="-1.300" cy="-1.600" r="0.05" fill="#84A1AE">  </circle>
<circle class="landmark" cx="-1.200" cy="-1.600" r="0.05" fill="#84A1AE">  </circle>
<circle class="landmark" cx="-1.100" cy="-1.600" r="0.05" fill="#84A1AE">  </circle>
<circle class="landmark" cx="-1.000" cy="-1.600" r="0.05" fill="#84A1AE">  </circle>
<circle class="landmark" cx="-0.900" cy="-1.600" r="0.05" fill="#84A1AE">  </circle>
<circle class="landmark" cx="-0.800" cy="-1.600" r="0.05" fill="#84A1AE">  </circle>
<circle class="landmark" cx="-0.700" cy="-1.600" r="0.05" fill="#84A1AE">  </circle>
<circle class="landmark" cx="-0.600" cy="-1.600" r="0.05" fill="#84A1AE">  </circle>
<circle class="landmark" cx="-0.500" cy="-1.600" r="0.05" fill="#84A1AE">  </circle>
<circle class="landmark" cx="-0.400" cy="-1.600" r="0.05" fill="#84A1AE">  </circle>
<circle class="landmark" cx="-0.300" cy="-1.600" r="0.05" fill="#84A1AE">  </circle>
<circle class="landmark" cx="-0.200" cy="-1.600" r="0.05" fill="#84A1AE">  </circle>
<circle class="landmark" cx="-0.100" cy="-1.600" r="0.05" fill="#84A1AE">  </circle>
<circle class="landmark" cx="0.000" cy="-1.600" r="0.05" fill="#84A1AE">  </circle>
<circle class="landmark" cx="0.100" cy="-1.600" r="0.05" fill="#84A1AE">  </circle>
<circle class="landmark" cx="0.200" cy="-1.600" r="0.05" fill="#84A1AE">  </circle>
<circle class="landmark" cx="0.300" cy="-1.600" r="0.05" fill="#84A1AE">  </circle>
<circle class="landmark" cx="0.400" cy="-1.600" r="0.05" fill="#84A1AE">  </circle>
<circle class="landmark" cx="0.500" cy="-1.600" r="0.05" fill="#84A1AE">  </circle>
<circle class="landmark" cx="0.600" cy="-1.600" r="0.05" fill="#84A1AE">  </circle>
<circle class="landmark" cx="0.700" cy="-1.600" r="0.05" fill="#84A1AE">  </circle>
<circle class="landmark" cx="0.800" cy="-1.600" r="0.05" fill="#84A1AE">  </circle>
<circle class="landmark" cx="0.900" cy="-1.600" r="0.05" fill="#84A1AE">  </circle>
<circle class="landmark" cx="1.000" cy="-1.600" r="0.05" fill="#84A1AE">  </circle>
<circle class="landmark" cx="1.100" cy="-1.600" r="0.05" fill="#84A1AE">  </circle>
<circle class="landmark" cx="1.200" cy="-1.600" r="0.05" fill="#84A1AE">  </circle>
<circle class="landmark" cx="1.300" cy="-1.600" r="0.05" fill="#84A1AE">  </circle>
<circle class="landmark" cx="1.400" cy="-1.600" r="0.05" fill="#84A1AE">  </circle>
<circle class="landmark" cx="1.500" cy="-1.600" r="0.05" fill="#84A1AE">  </circle>
<circle class="landmark" cx="1.600" cy="-1.600" r="0.05" fill="#84A1AE">  </circle>
<circle class="landmark" cx="1.700" cy="-1.600" r="0.05" fill="#84A1AE">  </circle>
<circle class="landmark" cx="1.800" cy="-1.600" r="0.05" fill="#84A1AE">  </circle>
<circle class="landmark" cx="1.900" cy="-1.600" r="0.05" fill="#84A1AE">  </circle>
<circle class="landmark" cx="2.000" cy="-1.600" r="0.05" fill="#84A1AE">  </circle>
<circle class="landmark" cx="-2.000" cy="-1.500" r="0.05" fill="#84A1AE">  </circle>
<circle class="landmark" cx="-1.900" cy="-1.500" r="0.05" fill="#84A1AE">  </circle>
<circle class="landmark" cx="-1.800" cy="-1.500" r="0.05" fill="#84A1AE">  </circle>
<circle class="landmark" cx="-0.400" cy="-1.500" r="0.05" fill="#84A1AE">  </circle>
<circle class="landmark" cx="1.800" cy="-1.500" r="0.05" fill="#84A1AE">  </circle>
<circle class="landmark" cx="1.900" cy="-1.500" r="0.05" fill="#84A1AE">  </circle>
<circle class="landmark" cx="2.000" cy="-1.500" r="0.05" fill="#84A1AE">  </circle>
<circle class="landmark" cx="-2.000" cy="-1.400" r="0.05" fill="#84A1AE">  </circle>
<circle class="landmark" cx="-1.900" cy="-1.400" r="0.05" fill="#84A1AE">  </circle>
<circle class="landmark" cx="-1.800" cy="-1.400" r="0.05" fill="#84A1AE">  </circle>
<circle class="landmark" cx="-1.600" cy="-1.400" r="0.05" fill="#84A1AE">  </circle>
<circle class="landmark" cx="-1.500" cy="-1.400" r="0.05" fill="#84A1AE">  </circle>
<circle class="landmark" cx="-1.400" cy="-1.400" r="0.05" fill="#84A1AE">  </circle>
<circle class="landmark" cx="-1.200" cy="-1.400" r="0.05" fill="#84A1AE">  </circle>
<circle class="landmark" cx="-0.800" cy="-1.400" r="0.05" fill="#84A1AE">  </circle>
<circle class="landmark" cx="-0.400" cy="-1.400" r="0.05" fill="#84A1AE">  </circle>
<circle class="landmark" cx="0.000" cy="-1.400" r="0.05" fill="#84A1AE">  </circle>
<circle class="landmark" cx="0.600" cy="-1.400" r="0.05" fill="#84A1AE">  </circle>
<circle class="landmark" cx="0.800" cy="-1.400" r="0.05" fill="#84A1AE">  </circle>
<circle class="landmark" cx="0.900" cy="-1.400" r="0.05" fill="#84A1AE">  </circle>
<circle class="landmark" cx="1.000" cy="-1.400" r="0.05" fill="#84A1AE">  </circle>
<circle class="landmark" cx="1.100" cy="-1.400" r="0.05" fill="#84A1AE">  </circle>
<circle class="landmark" cx="1.200" cy="-1.400" r="0.05" fill="#84A1AE">  </circle>
<circle class="landmark" cx="1.400" cy="-1.400" r="0.05" fill="#84A1AE">  </circle>
<circle class="landmark" cx="1.800" cy="-1.400" r="0.05" fill="#84A1AE">  </circle>
<circle class="landmark" cx="1.900" cy="-1.400" r="0.05" fill="#84A1AE">  </circle>
<circle class="landmark" cx="2.000" cy="-1.400" r="0.05" fill="#84A1AE">  </circle>
<circle class="landmark" cx="-2.000" cy="-1.300" r="0.05" fill="#84A1AE">  </circle>
<circle class="landmark" cx="-1.600" cy="-1.300" r="0.05" fill="#84A1AE">  </circle>
<circle class="landmark" cx="-1.200" cy="-1.300" r="0.05" fill="#84A1AE">  </circle>
<circle class="landmark" cx="-0.800" cy="-1.300" r="0.05" fill="#84A1AE">  </circle>
<circle class="landmark" cx="0.000" cy="-1.300" r="0.05" fill="#84A1AE">  </circle>
<circle class="landmark" cx="0.600" cy="-1.300" r="0.05" fill="#84A1AE">  </circle>
<circle class="landmark" cx="0.800" cy="-1.300" r="0.05" fill="#84A1AE">  </circle>
<circle class="landmark" cx="1.200" cy="-1.300" r="0.05" fill="#84A1AE">  </circle>
<circle class="landmark" cx="1.400" cy="-1.300" r="0.05" fill="#84A1AE">  </circle>
<circle class="landmark" cx="2.000" cy="-1.300" r="0.05" fill="#84A1AE">  </circle>
<circle class="landmark" cx="-2.000" cy="-1.200" r="0.05" fill="#84A1AE">  </circle>
<circle class="landmark" cx="-1.600" cy="-1.200" r="0.05" fill="#84A1AE">  </circle>
<circle class="landmark" cx="-1.400" cy="-1.200" r="0.05" fill="#84A1AE">  </circle>
<circle class="landmark" cx="-1.300" cy="-1.200" r="0.05" fill="#84A1AE">  </circle>
<circle class="landmark" cx="-1.200" cy="-1.200" r="0.05" fill="#84A1AE">  </circle>
<circle class="landmark" cx="-1.100" cy="-1.200" r="0.05" fill="#84A1AE">  </circle>
<circle class="landmark" cx="-1.000" cy="-1.200" r="0.05" fill="#84A1AE">  </circle>
<circle class="landmark" cx="-0.800" cy="-1.200" r="0.05" fill="#84A1AE">  </circle>
<circle class="landmark" cx="-0.400" cy="-1.200" r="0.05" fill="#84A1AE">  </circle>
<circle class="landmark" cx="0.000" cy="-1.200" r="0.05" fill="#84A1AE">  </circle>
<circle class="landmark" cx="0.200" cy="-1.200" r="0.05" fill="#84A1AE">  </circle>
<circle class="landmark" cx="0.300" cy="-1.200" r="0.05" fill="#84A1AE">  </circle>
<circle class="landmark" cx="0.400" cy="-1.200" r="0.05" fill="#84A1AE">  </circle>
<circle class="landmark" cx="0.600" cy="-1.200" r="0.05" fill="#84A1AE">  </circle>
<circle class="landmark" cx="0.800" cy="-1.200" r="0.05" fill="#84A1AE">  </circle>
<circle class="landmark" cx="1.200" cy="-1.200" r="0.05" fill="#84A1AE">  </circle>
<circle class="landmark" cx="1.400" cy="-1.200" r="0.05" fill="#84A1AE">  </circle>
<circle class="landmark" cx="1.600" cy="-1.200" r="0.05" fill="#84A1AE">  </circle>
<circle class="landmark" cx="1.700" cy="-1.200" r="0.05" fill="#84A1AE">  </circle>
<circle class="landmark" cx="1.800" cy="-1.200" r="0.05" fill="#84A1AE">  </circle>
<circle class="landmark" cx="2.000" cy="-1.200" r="0.05" fill="#84A1AE">  </circle>
<circle class="landmark" cx="-2.000" cy="-1.100" r="0.05" fill="#84A1AE">  </circle>
<circle class="landmark" cx="-1.600" cy="-1.100" r="0.05" fill="#84A1AE">  </circle>
<circle class="landmark" cx="-1.400" cy="-1.100" r="0.05" fill="#84A1AE">  </circle>
<circle class="landmark" cx="-0.400" cy="-1.100" r="0.05" fill="#84A1AE">  </circle>
<circle class="landmark" cx="0.800" cy="-1.100" r="0.05" fill="#84A1AE">  </circle>
<circle class="landmark" cx="1.200" cy="-1.100" r="0.05" fill="#84A1AE">  </circle>
<circle class="landmark" cx="2.000" cy="-1.100" r="0.05" fill="#84A1AE">  </circle>
<circle class="landmark" cx="-2.000" cy="-1.000" r="0.05" fill="#84A1AE">  </circle>
<circle class="landmark" cx="-1.600" cy="-1.000" r="0.05" fill="#84A1AE">  </circle>
<circle class="landmark" cx="-1.400" cy="-1.000" r="0.05" fill="#84A1AE">  </circle>
<circle class="landmark" cx="-0.800" cy="-1.000" r="0.05" fill="#84A1AE">  </circle>
<circle class="landmark" cx="-0.600" cy="-1.000" r="0.05" fill="#84A1AE">  </circle>
<circle class="landmark" cx="-0.500" cy="-1.000" r="0.05" fill="#84A1AE">  </circle>
<circle class="landmark" cx="-0.400" cy="-1.000" r="0.05" fill="#84A1AE">  </circle>
<circle class="landmark" cx="-0.300" cy="-1.000" r="0.05" fill="#84A1AE">  </circle>
<circle class="landmark" cx="-0.200" cy="-1.000" r="0.05" fill="#84A1AE">  </circle>
<circle class="landmark" cx="0.000" cy="-1.000" r="0.05" fill="#84A1AE">  </circle>
<circle class="landmark" cx="0.100" cy="-1.000" r="0.05" fill="#84A1AE">  </circle>
<circle class="landmark" cx="0.200" cy="-1.000" r="0.05" fill="#84A1AE">  </circle>
<circle class="landmark" cx="0.400" cy="-1.000" r="0.05" fill="#84A1AE">  </circle>
<circle class="landmark" cx="0.800" cy="-1.000" r="0.05" fill="#84A1AE">  </circle>
<circle class="landmark" cx="1.200" cy="-1.000" r="0.05" fill="#84A1AE">  </circle>
<circle class="landmark" cx="1.400" cy="-1.000" r="0.05" fill="#84A1AE">  </circle>
<circle class="landmark" cx="2.000" cy="-1.000" r="0.05" fill="#84A1AE">  </circle>
<circle class="landmark" cx="-2.000" cy="-0.900" r="0.05" fill="#84A1AE">  </circle>
<circle class="landmark" cx="-1.600" cy="-0.900" r="0.05" fill="#84A1AE">  </circle>
<circle class="landmark" cx="0.000" cy="-0.900" r="0.05" fill="#84A1AE">  </circle>
<circle class="landmark" cx="1.400" cy="-0.900" r="0.05" fill="#84A1AE">  </circle>
<circle class="landmark" cx="2.000" cy="-0.900" r="0.05" fill="#84A1AE">  </circle>
<circle class="landmark" cx="-2.000" cy="-0.800" r="0.05" fill="#84A1AE">  </circle>
<circle class="landmark" cx="-1.900" cy="-0.800" r="0.05" fill="#84A1AE">  </circle>
<circle class="landmark" cx="-1.800" cy="-0.800" r="0.05" fill="#84A1AE">  </circle>
<circle class="landmark" cx="-1.600" cy="-0.800" r="0.05" fill="#84A1AE">  </circle>
<circle class="landmark" cx="-1.400" cy="-0.800" r="0.05" fill="#84A1AE">  </circle>
<circle class="landmark" cx="-1.200" cy="-0.800" r="0.05" fill="#84A1AE">  </circle>
<circle class="landmark" cx="-1.100" cy="-0.800" r="0.05" fill="#84A1AE">  </circle>
<circle class="landmark" cx="-1.000" cy="-0.800" r="0.05" fill="#84A1AE">  </circle>
<circle class="landmark" cx="-0.800" cy="-0.800" r="0.05" fill="#84A1AE">  </circle>
<circle class="landmark" cx="-0.400" cy="-0.800" r="0.05" fill="#84A1AE">  </circle>
<circle class="landmark" cx="0.000" cy="-0.800" r="0.05" fill="#84A1AE">  </circle>
<circle class="landmark" cx="0.400" cy="-0.800" r="0.05" fill="#84A1AE">  </circle>
<circle class="landmark" cx="0.600" cy="-0.800" r="0.05" fill="#84A1AE">  </circle>
<circle class="landmark" cx="0.700" cy="-0.800" r="0.05" fill="#84A1AE">  </circle>
<circle class="landmark" cx="0.800" cy="-0.800" r="0.05" fill="#84A1AE">  </circle>
<circle class="landmark" cx="0.900" cy="-0.800" r="0.05" fill="#84A1AE">  </circle>
<circle class="landmark" cx="1.000" cy="-0.800" r="0.05" fill="#84A1AE">  </circle>
<circle class="landmark" cx="1.200" cy="-0.800" r="0.05" fill="#84A1AE">  </circle>
<circle class="landmark" cx="1.400" cy="-0.800" r="0.05" fill="#84A1AE">  </circle>
<circle class="landmark" cx="1.600" cy="-0.800" r="0.05" fill="#84A1AE">  </circle>
<circle class="landmark" cx="1.700" cy="-0.800" r="0.05" fill="#84A1AE">  </circle>
<circle class="landmark" cx="1.800" cy="-0.800" r="0.05" fill="#84A1AE">  </circle>
<circle class="landmark" cx="2.000" cy="-0.800" r="0.05" fill="#84A1AE">  </circle>
<circle class="landmark" cx="-2.000" cy="-0.700" r="0.05" fill="#84A1AE">  </circle>
<circle class="landmark" cx="-1.200" cy="-0.700" r="0.05" fill="#84A1AE">  </circle>
<circle class="landmark" cx="-0.400" cy="-0.700" r="0.05" fill="#84A1AE">  </circle>
<circle class="landmark" cx="1.200" cy="-0.700" r="0.05" fill="#84A1AE">  </circle>
<circle class="landmark" cx="2.000" cy="-0.700" r="0.05" fill="#84A1AE">  </circle>
<circle class="landmark" cx="-2.000" cy="-0.600" r="0.05" fill="#84A1AE">  </circle>
<circle class="landmark" cx="-1.800" cy="-0.600" r="0.05" fill="#84A1AE">  </circle>
<circle class="landmark" cx="1.800" cy="-0.600" r="0.05" fill="#84A1AE">  </circle>
<circle class="landmark" cx="1.900" cy="-0.600" r="0.05" fill="#84A1AE">  </circle>
<circle class="landmark" cx="2.000" cy="-0.600" r="0.05" fill="#84A1AE">  </circle>
<circle class="landmark" cx="-2.000" cy="-0.500" r="0.05" fill="#84A1AE">  </circle>
<circle class="landmark" cx="2.000" cy="-0.500" r="0.05" fill="#84A1AE">  </circle>
<circle class="landmark" cx="-2.000" cy="-0.400" r="0.05" fill="#84A1AE">  </circle>
<circle class="landmark" cx="2.000" cy="-0.400" r="0.05" fill="#84A1AE">  </circle>
<circle class="landmark" cx="-2.000" cy="-0.300" r="0.05" fill="#84A1AE">  </circle>
<circle class="landmark" cx="-1.300" cy="-0.300" r="0.05" fill="#84A1AE">  </circle>
<circle class="landmark" cx="-1.200" cy="-0.300" r="0.05" fill="#84A1AE">  </circle>
<circle class="landmark" cx="-1.100" cy="-0.300" r="0.05" fill="#84A1AE">  </circle>
<circle class="landmark" cx="-1.000" cy="-0.300" r="0.05" fill="#84A1AE">  </circle>
<circle class="landmark" cx="-0.700" cy="-0.300" r="0.05" fill="#84A1AE">  </circle>
<circle class="landmark" cx="-0.600" cy="-0.300" r="0.05" fill="#84A1AE">  </circle>
<circle class="landmark" cx="-0.500" cy="-0.300" r="0.05" fill="#84A1AE">  </circle>
<circle class="landmark" cx="-0.200" cy="-0.300" r="0.05" fill="#84A1AE">  </circle>
<circle class="landmark" cx="0.200" cy="-0.300" r="0.05" fill="#84A1AE">  </circle>
<circle class="landmark" cx="0.500" cy="-0.300" r="0.05" fill="#84A1AE">  </circle>
<circle class="landmark" cx="0.600" cy="-0.300" r="0.05" fill="#84A1AE">  </circle>
<circle class="landmark" cx="0.700" cy="-0.300" r="0.05" fill="#84A1AE">  </circle>
<circle class="landmark" cx="1.000" cy="-0.300" r="0.05" fill="#84A1AE">  </circle>
<circle class="landmark" cx="1.100" cy="-0.300" r="0.05" fill="#84A1AE">  </circle>
<circle class="landmark" cx="1.200" cy="-0.300" r="0.05" fill="#84A1AE">  </circle>
<circle class="landmark" cx="1.300" cy="-0.300" r="0.05" fill="#84A1AE">  </circle>
<circle class="landmark" cx="2.000" cy="-0.300" r="0.05" fill="#84A1AE">  </circle>
<circle class="landmark" cx="-2.000" cy="-0.200" r="0.05" fill="#84A1AE">  </circle>
<circle class="landmark" cx="-1.800" cy="-0.200" r="0.05" fill="#84A1AE">  </circle>
<circle class="landmark" cx="-1.400" cy="-0.200" r="0.05" fill="#84A1AE">  </circle>
<circle class="landmark" cx="-0.800" cy="-0.200" r="0.05" fill="#84A1AE">  </circle>
<circle class="landmark" cx="-0.400" cy="-0.200" r="0.05" fill="#84A1AE">  </circle>
<circle class="landmark" cx="-0.200" cy="-0.200" r="0.05" fill="#84A1AE">  </circle>
<circle class="landmark" cx="-0.100" cy="-0.200" r="0.05" fill="#84A1AE">  </circle>
<circle class="landmark" cx="0.100" cy="-0.200" r="0.05" fill="#84A1AE">  </circle>
<circle class="landmark" cx="0.200" cy="-0.200" r="0.05" fill="#84A1AE">  </circle>
<circle class="landmark" cx="0.400" cy="-0.200" r="0.05" fill="#84A1AE">  </circle>
<circle class="landmark" cx="0.800" cy="-0.200" r="0.05" fill="#84A1AE">  </circle>
<circle class="landmark" cx="1.000" cy="-0.200" r="0.05" fill="#84A1AE">  </circle>
<circle class="landmark" cx="1.400" cy="-0.200" r="0.05" fill="#84A1AE">  </circle>
<circle class="landmark" cx="1.800" cy="-0.200" r="0.05" fill="#84A1AE">  </circle>
<circle class="landmark" cx="2.000" cy="-0.200" r="0.05" fill="#84A1AE">  </circle>
<circle class="landmark" cx="-2.000" cy="-0.100" r="0.05" fill="#84A1AE">  </circle>
<circle class="landmark" cx="-1.400" cy="-0.100" r="0.05" fill="#84A1AE">  </circle>
<circle class="landmark" cx="-0.800" cy="-0.100" r="0.05" fill="#84A1AE">  </circle>
<circle class="landmark" cx="-0.400" cy="-0.100" r="0.05" fill="#84A1AE">  </circle>
<circle class="landmark" cx="-0.200" cy="-0.100" r="0.05" fill="#84A1AE">  </circle>
<circle class="landmark" cx="0.000" cy="-0.100" r="0.05" fill="#84A1AE">  </circle>
<circle class="landmark" cx="0.200" cy="-0.100" r="0.05" fill="#84A1AE">  </circle>
<circle class="landmark" cx="0.400" cy="-0.100" r="0.05" fill="#84A1AE">  </circle>
<circle class="landmark" cx="0.800" cy="-0.100" r="0.05" fill="#84A1AE">  </circle>
<circle class="landmark" cx="1.000" cy="-0.100" r="0.05" fill="#84A1AE">  </circle>
<circle class="landmark" cx="1.400" cy="-0.100" r="0.05" fill="#84A1AE">  </circle>
<circle class="landmark" cx="2.000" cy="-0.100" r="0.05" fill="#84A1AE">  </circle>
<circle class="landmark" cx="-2.000" cy="0.000" r="0.05" fill="#84A1AE">  </circle>
<circle class="landmark" cx="-1.400" cy="0.000" r="0.05" fill="#84A1AE">  </circle>
<circle class="landmark" cx="-0.800" cy="0.000" r="0.05" fill="#84A1AE">  </circle>
<circle class="landmark" cx="-0.700" cy="0.000" r="0.05" fill="#84A1AE">  </circle>
<circle class="landmark" cx="-0.600" cy="0.000" r="0.05" fill="#84A1AE">  </circle>
<circle class="landmark" cx="-0.500" cy="0.000" r="0.05" fill="#84A1AE">  </circle>
<circle class="landmark" cx="-0.400" cy="0.000" r="0.05" fill="#84A1AE">  </circle>
<circle class="landmark" cx="-0.200" cy="0.000" r="0.05" fill="#84A1AE">  </circle>
<circle class="landmark" cx="0.200" cy="0.000" r="0.05" fill="#84A1AE">  </circle>
<circle class="landmark" cx="0.400" cy="0.000" r="0.05" fill="#84A1AE">  </circle>
<circle class="landmark" cx="0.500" cy="0.000" r="0.05" fill="#84A1AE">  </circle>
<circle class="landmark" cx="0.600" cy="0.000" r="0.05" fill="#84A1AE">  </circle>
<circle class="landmark" cx="0.700" cy="0.000" r="0.05" fill="#84A1AE">  </circle>
<circle class="landmark" cx="0.800" cy="0.000" r="0.05" fill="#84A1AE">  </circle>
<circle class="landmark" cx="1.000" cy="0.000" r="0.05" fill="#84A1AE">  </circle>
<circle class="landmark" cx="1.100" cy="0.000" r="0.05" fill="#84A1AE">  </circle>
<circle class="landmark" cx="1.200" cy="0.000" r="0.05" fill="#84A1AE">  </circle>
<circle class="landmark" cx="1.300" cy="0.000" r="0.05" fill="#84A1AE">  </circle>
<circle class="landmark" cx="2.000" cy="0.000" r="0.05" fill="#84A1AE">  </circle>
<circle class="landmark" cx="-2.000" cy="0.100" r="0.05" fill="#84A1AE">  </circle>
<circle class="landmark" cx="-1.400" cy="0.100" r="0.05" fill="#84A1AE">  </circle>
<circle class="landmark" cx="-0.800" cy="0.100" r="0.05" fill="#84A1AE">  </circle>
<circle class="landmark" cx="-0.400" cy="0.100" r="0.05" fill="#84A1AE">  </circle>
<circle class="landmark" cx="-0.200" cy="0.100" r="0.05" fill="#84A1AE">  </circle>
<circle class="landmark" cx="0.200" cy="0.100" r="0.05" fill="#84A1AE">  </circle>
<circle class="landmark" cx="0.400" cy="0.100" r="0.05" fill="#84A1AE">  </circle>
<circle class="landmark" cx="0.800" cy="0.100" r="0.05" fill="#84A1AE">  </circle>
<circle class="landmark" cx="1.000" cy="0.100" r="0.05" fill="#84A1AE">  </circle>
<circle class="landmark" cx="1.200" cy="0.100" r="0.05" fill="#84A1AE">  </circle>
<circle class="landmark" cx="2.000" cy="0.100" r="0.05" fill="#84A1AE">  </circle>
<circle class="landmark" cx="-2.000" cy="0.200" r="0.05" fill="#84A1AE">  </circle>
<circle class="landmark" cx="-1.400" cy="0.200" r="0.05" fill="#84A1AE">  </circle>
<circle class="landmark" cx="-0.800" cy="0.200" r="0.05" fill="#84A1AE">  </circle>
<circle class="landmark" cx="-0.400" cy="0.200" r="0.05" fill="#84A1AE">  </circle>
<circle class="landmark" cx="-0.200" cy="0.200" r="0.05" fill="#84A1AE">  </circle>
<circle class="landmark" cx="0.200" cy="0.200" r="0.05" fill="#84A1AE">  </circle>
<circle class="landmark" cx="0.400" cy="0.200" r="0.05" fill="#84A1AE">  </circle>
<circle class="landmark" cx="0.800" cy="0.200" r="0.05" fill="#84A1AE">  </circle>
<circle class="landmark" cx="1.000" cy="0.200" r="0.05" fill="#84A1AE">  </circle>
<circle class="landmark" cx="1.300" cy="0.200" r="0.05" fill="#84A1AE">  </circle>
<circle class="landmark" cx="2.000" cy="0.200" r="0.05" fill="#84A1AE">  </circle>
<circle class="landmark" cx="-2.000" cy="0.300" r="0.05" fill="#84A1AE">  </circle>
<circle class="landmark" cx="-1.300" cy="0.300" r="0.05" fill="#84A1AE">  </circle>
<circle class="landmark" cx="-1.200" cy="0.300" r="0.05" fill="#84A1AE">  </circle>
<circle class="landmark" cx="-1.100" cy="0.300" r="0.05" fill="#84A1AE">  </circle>
<circle class="landmark" cx="-1.000" cy="0.300" r="0.05" fill="#84A1AE">  </circle>
<circle class="landmark" cx="-0.800" cy="0.300" r="0.05" fill="#84A1AE">  </circle>
<circle class="landmark" cx="-0.400" cy="0.300" r="0.05" fill="#84A1AE">  </circle>
<circle class="landmark" cx="-0.200" cy="0.300" r="0.05" fill="#84A1AE">  </circle>
<circle class="landmark" cx="0.200" cy="0.300" r="0.05" fill="#84A1AE">  </circle>
<circle class="landmark" cx="0.400" cy="0.300" r="0.05" fill="#84A1AE">  </circle>
<circle class="landmark" cx="0.800" cy="0.300" r="0.05" fill="#84A1AE">  </circle>
<circle class="landmark" cx="1.000" cy="0.300" r="0.05" fill="#84A1AE">  </circle>
<circle class="landmark" cx="1.400" cy="0.300" r="0.05" fill="#84A1AE">  </circle>
<circle class="landmark" cx="2.000" cy="0.300" r="0.05" fill="#84A1AE">  </circle>
<circle class="landmark" cx="-2.000" cy="0.400" r="0.05" fill="#84A1AE">  </circle>
<circle class="landmark" cx="-1.800" cy="0.400" r="0.05" fill="#84A1AE">  </circle>
<circle class="landmark" cx="1.800" cy="0.400" r="0.05" fill="#84A1AE">  </circle>
<circle class="landmark" cx="2.000" cy="0.400" r="0.05" fill="#84A1AE">  </circle>
<circle class="landmark" cx="-2.000" cy="0.500" r="0.05" fill="#84A1AE">  </circle>
<circle class="landmark" cx="2.000" cy="0.500" r="0.05" fill="#84A1AE">  </circle>
<circle class="landmark" cx="-2.000" cy="0.600" r="0.05" fill="#84A1AE">  </circle>
<circle class="landmark" cx="-1.800" cy="0.600" r="0.05" fill="#84A1AE">  </circle>
<circle class="landmark" cx="2.000" cy="0.600" r="0.05" fill="#84A1AE">  </circle>
<circle class="landmark" cx="-2.000" cy="0.700" r="0.05" fill="#84A1AE">  </circle>
<circle class="landmark" cx="-1.800" cy="0.700" r="0.05" fill="#84A1AE">  </circle>
<circle class="landmark" cx="-0.800" cy="0.700" r="0.05" fill="#84A1AE">  </circle>
<circle class="landmark" cx="2.000" cy="0.700" r="0.05" fill="#84A1AE">  </circle>
<circle class="landmark" cx="-2.000" cy="0.800" r="0.05" fill="#84A1AE">  </circle>
<circle class="landmark" cx="-1.800" cy="0.800" r="0.05" fill="#84A1AE">  </circle>
<circle class="landmark" cx="-1.400" cy="0.800" r="0.05" fill="#84A1AE">  </circle>
<circle class="landmark" cx="-1.300" cy="0.800" r="0.05" fill="#84A1AE">  </circle>
<circle class="landmark" cx="-1.200" cy="0.800" r="0.05" fill="#84A1AE">  </circle>
<circle class="landmark" cx="-1.100" cy="0.800" r="0.05" fill="#84A1AE">  </circle>
<circle class="landmark" cx="-1.000" cy="0.800" r="0.05" fill="#84A1AE">  </circle>
<circle class="landmark" cx="-0.800" cy="0.800" r="0.05" fill="#84A1AE">  </circle>
<circle class="landmark" cx="-0.600" cy="0.800" r="0.05" fill="#84A1AE">  </circle>
<circle class="landmark" cx="-0.500" cy="0.800" r="0.05" fill="#84A1AE">  </circle>
<circle class="landmark" cx="-0.400" cy="0.800" r="0.05" fill="#84A1AE">  </circle>
<circle class="landmark" cx="0.000" cy="0.800" r="0.05" fill="#84A1AE">  </circle>
<circle class="landmark" cx="0.400" cy="0.800" r="0.05" fill="#84A1AE">  </circle>
<circle class="landmark" cx="0.600" cy="0.800" r="0.05" fill="#84A1AE">  </circle>
<circle class="landmark" cx="0.700" cy="0.800" r="0.05" fill="#84A1AE">  </circle>
<circle class="landmark" cx="0.800" cy="0.800" r="0.05" fill="#84A1AE">  </circle>
<circle class="landmark" cx="0.900" cy="0.800" r="0.05" fill="#84A1AE">  </circle>
<circle class="landmark" cx="1.000" cy="0.800" r="0.05" fill="#84A1AE">  </circle>
<circle class="landmark" cx="1.600" cy="0.800" r="0.05" fill="#84A1AE">  </circle>
<circle class="landmark" cx="1.700" cy="0.800" r="0.05" fill="#84A1AE">  </circle>
<circle class="landmark" cx="1.800" cy="0.800" r="0.05" fill="#84A1AE">  </circle>
<circle class="landmark" cx="2.000" cy="0.800" r="0.05" fill="#84A1AE">  </circle>
<circle class="landmark" cx="-2.000" cy="0.900" r="0.05" fill="#84A1AE">  </circle>
<circle class="landmark" cx="-1.800" cy="0.900" r="0.05" fill="#84A1AE">  </circle>
<circle class="landmark" cx="0.000" cy="0.900" r="0.05" fill="#84A1AE">  </circle>
<circle class="landmark" cx="1.000" cy="0.900" r="0.05" fill="#84A1AE">  </circle>
<circle class="landmark" cx="2.000" cy="0.900" r="0.05" fill="#84A1AE">  </circle>
<circle class="landmark" cx="-2.000" cy="1.000" r="0.05" fill="#84A1AE">  </circle>
<circle class="landmark" cx="-1.800" cy="1.000" r="0.05" fill="#84A1AE">  </circle>
<circle class="landmark" cx="-1.600" cy="1.000" r="0.05" fill="#84A1AE">  </circle>
<circle class="landmark" cx="-1.400" cy="1.000" r="0.05" fill="#84A1AE">  </circle>
<circle class="landmark" cx="-0.800" cy="1.000" r="0.05" fill="#84A1AE">  </circle>
<circle class="landmark" cx="-0.600" cy="1.000" r="0.05" fill="#84A1AE">  </circle>
<circle class="landmark" cx="-0.400" cy="1.000" r="0.05" fill="#84A1AE">  </circle>
<circle class="landmark" cx="-0.200" cy="1.000" r="0.05" fill="#84A1AE">  </circle>
<circle class="landmark" cx="0.000" cy="1.000" r="0.05" fill="#84A1AE">  </circle>
<circle class="landmark" cx="0.200" cy="1.000" r="0.05" fill="#84A1AE">  </circle>
<circle class="landmark" cx="0.400" cy="1.000" r="0.05" fill="#84A1AE">  </circle>
<circle class="landmark" cx="0.500" cy="1.000" r="0.05" fill="#84A1AE">  </circle>
<circle class="landmark" cx="0.600" cy="1.000" r="0.05" fill="#84A1AE">  </circle>
<circle class="landmark" cx="0.700" cy="1.000" r="0.05" fill="#84A1AE">  </circle>
<circle class="landmark" cx="0.800" cy="1.000" r="0.05" fill="#84A1AE">  </circle>
<circle class="landmark" cx="1.000" cy="1.000" r="0.05" fill="#84A1AE">  </circle>
<circle class="landmark" cx="1.100" cy="1.000" r="0.05" fill="#84A1AE">  </circle>
<circle class="landmark" cx="1.200" cy="1.000" r="0.05" fill="#84A1AE">  </circle>
<circle class="landmark" cx="1.400" cy="1.000" r="0.05" fill="#84A1AE">  </circle>
<circle class="landmark" cx="1.500" cy="1.000" r="0.05" fill="#84A1AE">  </circle>
<circle class="landmark" cx="1.600" cy="1.000" r="0.05" fill="#84A1AE">  </circle>
<circle class="landmark" cx="2.000" cy="1.000" r="0.05" fill="#84A1AE">  </circle>
<circle class="landmark" cx="-2.000" cy="1.100" r="0.05" fill="#84A1AE">  </circle>
<circle class="landmark" cx="-0.800" cy="1.100" r="0.05" fill="#84A1AE">  </circle>
<circle class="landmark" cx="-0.600" cy="1.100" r="0.05" fill="#84A1AE">  </circle>
<circle class="landmark" cx="-0.200" cy="1.100" r="0.05" fill="#84A1AE">  </circle>
<circle class="landmark" cx="0.200" cy="1.100" r="0.05" fill="#84A1AE">  </circle>
<circle class="landmark" cx="0.800" cy="1.100" r="0.05" fill="#84A1AE">  </circle>
<circle class="landmark" cx="2.000" cy="1.100" r="0.05" fill="#84A1AE">  </circle>
<circle class="landmark" cx="-2.000" cy="1.200" r="0.05" fill="#84A1AE">  </circle>
<circle class="landmark" cx="-1.600" cy="1.200" r="0.05" fill="#84A1AE">  </circle>
<circle class="landmark" cx="-1.400" cy="1.200" r="0.05" fill="#84A1AE">  </circle>
<circle class="landmark" cx="-1.200" cy="1.200" r="0.05" fill="#84A1AE">  </circle>
<circle class="landmark" cx="-1.100" cy="1.200" r="0.05" fill="#84A1AE">  </circle>
<circle class="landmark" cx="-1.000" cy="1.200" r="0.05" fill="#84A1AE">  </circle>
<circle class="landmark" cx="-0.800" cy="1.200" r="0.05" fill="#84A1AE">  </circle>
<circle class="landmark" cx="-0.600" cy="1.200" r="0.05" fill="#84A1AE">  </circle>
<circle class="landmark" cx="-0.200" cy="1.200" r="0.05" fill="#84A1AE">  </circle>
<circle class="landmark" cx="0.200" cy="1.200" r="0.05" fill="#84A1AE">  </circle>
<circle class="landmark" cx="0.800" cy="1.200" r="0.05" fill="#84A1AE">  </circle>
<circle class="landmark" cx="1.000" cy="1.200" r="0.05" fill="#84A1AE">  </circle>
<circle class="landmark" cx="1.100" cy="1.200" r="0.05" fill="#84A1AE">  </circle>
<circle class="landmark" cx="1.200" cy="1.200" r="0.05" fill="#84A1AE">  </circle>
<circle class="landmark" cx="1.300" cy="1.200" r="0.05" fill="#84A1AE">  </circle>
<circle class="landmark" cx="1.400" cy="1.200" r="0.05" fill="#84A1AE">  </circle>
<circle class="landmark" cx="1.600" cy="1.200" r="0.05" fill="#84A1AE">  </circle>
<circle class="landmark" cx="1.700" cy="1.200" r="0.05" fill="#84A1AE">  </circle>
<circle class="landmark" cx="1.800" cy="1.200" r="0.05" fill="#84A1AE">  </circle>
<circle class="landmark" cx="2.000" cy="1.200" r="0.05" fill="#84A1AE">  </circle>
<circle class="landmark" cx="-2.000" cy="1.300" r="0.05" fill="#84A1AE">  </circle>
<circle class="landmark" cx="-1.600" cy="1.300" r="0.05" fill="#84A1AE">  </circle>
<circle class="landmark" cx="-1.200" cy="1.300" r="0.05" fill="#84A1AE">  </circle>
<circle class="landmark" cx="1.400" cy="1.300" r="0.05" fill="#84A1AE">  </circle>
<circle class="landmark" cx="1.600" cy="1.300" r="0.05" fill="#84A1AE">  </circle>
<circle class="landmark" cx="2.000" cy="1.300" r="0.05" fill="#84A1AE">  </circle>
<circle class="landmark" cx="-2.000" cy="1.400" r="0.05" fill="#84A1AE">  </circle>
<circle class="landmark" cx="-1.600" cy="1.400" r="0.05" fill="#84A1AE">  </circle>
<circle class="landmark" cx="-1.200" cy="1.400" r="0.05" fill="#84A1AE">  </circle>
<circle class="landmark" cx="-0.600" cy="1.400" r="0.05" fill="#84A1AE">  </circle>
<circle class="landmark" cx="-0.400" cy="1.400" r="0.05" fill="#84A1AE">  </circle>
<circle class="landmark" cx="-0.300" cy="1.400" r="0.05" fill="#84A1AE">  </circle>
<circle class="landmark" cx="-0.200" cy="1.400" r="0.05" fill="#84A1AE">  </circle>
<circle class="landmark" cx="0.200" cy="1.400" r="0.05" fill="#84A1AE">  </circle>
<circle class="landmark" cx="0.300" cy="1.400" r="0.05" fill="#84A1AE">  </circle>
<circle class="landmark" cx="0.400" cy="1.400" r="0.05" fill="#84A1AE">  </circle>
<circle class="landmark" cx="0.500" cy="1.400" r="0.05" fill="#84A1AE">  </circle>
<circle class="landmark" cx="0.600" cy="1.400" r="0.05" fill="#84A1AE">  </circle>
<circle class="landmark" cx="0.700" cy="1.400" r="0.05" fill="#84A1AE">  </circle>
<circle class="landmark" cx="0.800" cy="1.400" r="0.05" fill="#84A1AE">  </circle>
<circle class="landmark" cx="1.000" cy="1.400" r="0.05" fill="#84A1AE">  </circle>
<circle class="landmark" cx="1.400" cy="1.400" r="0.05" fill="#84A1AE">  </circle>
<circle class="landmark" cx="1.600" cy="1.400" r="0.05" fill="#84A1AE">  </circle>
<circle class="landmark" cx="2.000" cy="1.400" r="0.05" fill="#84A1AE">  </circle>
<circle class="landmark" cx="-2.000" cy="1.500" r="0.05" fill="#84A1AE">  </circle>
<circle class="landmark" cx="1.000" cy="1.500" r="0.05" fill="#84A1AE">  </circle>
<circle class="landmark" cx="1.400" cy="1.500" r="0.05" fill="#84A1AE">  </circle>
<circle class="landmark" cx="2.000" cy="1.500" r="0.05" fill="#84A1AE">  </circle>
<circle class="landmark" cx="-2.000" cy="1.600" r="0.05" fill="#84A1AE">  </circle>
<circle class="landmark" cx="-1.900" cy="1.600" r="0.05" fill="#84A1AE">  </circle>
<circle class="landmark" cx="-1.800" cy="1.600" r="0.05" fill="#84A1AE">  </circle>
<circle class="landmark" cx="-1.700" cy="1.600" r="0.05" fill="#84A1AE">  </circle>
<circle class="landmark" cx="-1.600" cy="1.600" r="0.05" fill="#84A1AE">  </circle>
<circle class="landmark" cx="-1.500" cy="1.600" r="0.05" fill="#84A1AE">  </circle>
<circle class="landmark" cx="-1.400" cy="1.600" r="0.05" fill="#84A1AE">  </circle>
<circle class="landmark" cx="-1.300" cy="1.600" r="0.05" fill="#84A1AE">  </circle>
<circle class="landmark" cx="-1.200" cy="1.600" r="0.05" fill="#84A1AE">  </circle>
<circle class="landmark" cx="-1.100" cy="1.600" r="0.05" fill="#84A1AE">  </circle>
<circle class="landmark" cx="-1.000" cy="1.600" r="0.05" fill="#84A1AE">  </circle>
<circle class="landmark" cx="-0.900" cy="1.600" r="0.05" fill="#84A1AE">  </circle>
<circle class="landmark" cx="-0.800" cy="1.600" r="0.05" fill="#84A1AE">  </circle>
<circle class="landmark" cx="-0.700" cy="1.600" r="0.05" fill="#84A1AE">  </circle>
<circle class="landmark" cx="-0.600" cy="1.600" r="0.05" fill="#84A1AE">  </circle>
<circle class="landmark" cx="-0.500" cy="1.600" r="0.05" fill="#84A1AE">  </circle>
<circle class="landmark" cx="-0.400" cy="1.600" r="0.05" fill="#84A1AE">  </circle>
<circle class="landmark" cx="-0.300" cy="1.600" r="0.05" fill="#84A1AE">  </circle>
<circle class="landmark" cx="-0.200" cy="1.600" r="0.05" fill="#84A1AE">  </circle>
<circle class="landmark" cx="-0.100" cy="1.600" r="0.05" fill="#84A1AE">  </circle>
<circle class="landmark" cx="0.000" cy="1.600" r="0.05" fill="#84A1AE">  </circle>
<circle class="landmark" cx="0.100" cy="1.600" r="0.05" fill="#84A1AE">  </circle>
<circle class="landmark" cx="0.200" cy="1.600" r="0.05" fill="#84A1AE">  </circle>
<circle class="landmark" cx="0.300" cy="1.600" r="0.05" fill="#84A1AE">  </circle>
<circle class="landmark" cx="0.400" cy="1.600" r="0.05" fill="#84A1AE">  </circle>
<circle class="landmark" cx="0.500" cy="1.600" r="0.05" fill="#84A1AE">  </circle>
<circle class="landmark" cx="0.600" cy="1.600" r="0.05" fill="#84A1AE">  </circle>
<circle class="landmark" cx="0.700" cy="1.600" r="0.05" fill="#84A1AE">  </circle>
<circle class="landmark" cx="0.800" cy="1.600" r="0.05" fill="#84A1AE">  </circle>
<circle class="landmark" cx="0.900" cy="1.600" r="0.05" fill="#84A1AE">  </circle>
<circle class="landmark" cx="1.000" cy="1.600" r="0.05" fill="#84A1AE">  </circle>
<circle class="landmark" cx="1.100" cy="1.600" r="0.05" fill="#84A1AE">  </circle>
<circle class="landmark" cx="1.200" cy="1.600" r="0.05" fill="#84A1AE">  </circle>
<circle class="landmark" cx="1.300" cy="1.600" r="0.05" fill="#84A1AE">  </circle>
<circle class="landmark" cx="1.400" cy="1.600" r="0.05" fill="#84A1AE">  </circle>
<circle class="landmark" cx="1.500" cy="1.600" r="0.05" fill="#84A1AE">  </circle>
<circle class="landmark" cx="1.600" cy="1.600" r="0.05" fill="#84A1AE">  </circle>
<circle class="landmark" cx="1.700" cy="1.600" r="0.05" fill="#84A1AE">  </circle>
<circle class="landmark" cx="1.800" cy="1.600" r="0.05" fill="#84A1AE">  </circle>
<circle class="landmark" cx="1.900" cy="1.600" r="0.05" fill="#84A1AE">  </circle>
<circle class="landmark" cx="2.000" cy="1.600" r="0.05" fill="#84A1AE">  </circle>


<circle class="goal" cx="-1.000" cy="0.200" r="0.008" fill="hsl(0, 100%, 50%)">  </circle>
<circle class="goal" cx="-1.100" cy="0.900" r="0.008" fill="hsl(25, 100%, 50%)">  </circle>
<circle class="goal" cx="0.000" cy="-0.700" r="0.008" fill="hsl(50, 100%, 50%)">  </circle>
<circle class="goal" cx="-1.000" cy="0.700" r="0.008" fill="hsl(75, 100%, 50%)">  </circle>
<circle class="goal" cx="-1.700" cy="1.300" r="0.008" fill="hsl(100, 100%, 50%)">  </circle>
<circle class="goal" cx="1.600" cy="-1.100" r="0.008" fill="hsl(125, 100%, 50%)">  </circle>
<circle class="goal" cx="1.400" cy="0.400" r="0.008" fill="hsl(150, 100%, 50%)">  </circle>
<circle class="goal" cx="1.400" cy="0.600" r="0.008" fill="hsl(175, 100%, 50%)">  </circle>
<circle class="goal" cx="-1.700" cy="-1.300" r="0.008" fill="hsl(200, 100%, 50%)">  </circle>
<circle class="goal" cx="-1.800" cy="0.200" r="0.008" fill="hsl(225, 100%, 50%)">  </circle>
<circle class="goal" cx="-1.700" cy="1.200" r="0.008" fill="hsl(250, 100%, 50%)">  </circle>
<circle class="goal" cx="1.300" cy="-1.100" r="0.008" fill="hsl(275, 100%, 50%)">  </circle>
<circle class="goal" cx="-0.700" cy="-0.500" r="0.008" fill="hsl(300, 100%, 50%)">  </circle>
<circle class="goal" cx="0.300" cy="0.600" r="0.008" fill="hsl(325, 100%, 50%)">  </circle>
<circle class="goal" cx="-0.500" cy="1.000" r="0.008" fill="hsl(350, 100%, 50%)">  </circle>
<circle class="goal" cx="1.200" cy="1.400" r="0.008" fill="hsl(15, 100%, 50%)">  </circle>


<circle class="agent" cx="0.100" cy="1.200" r="0.02" fill="hsl(0, 70%, 50%)">  </circle>
<circle class="agent" cx="-0.600" cy="0.300" r="0.02" fill="hsl(25, 70%, 50%)">  </circle>
<circle class="agent" cx="-1.100" cy="-1.000" r="0.02" fill="hsl(50, 70%, 50%)">  </circle>
<circle class="agent" cx="-0.800" cy="1.300" r="0.02" fill="hsl(75, 70%, 50%)">  </circle>
<circle class="agent" cx="-1.900" cy="0.200" r="0.02" fill="hsl(100, 70%, 50%)">  </circle>
<circle class="agent" cx="-1.700" cy="-0.300" r="0.02" fill="hsl(125, 70%, 50%)">  </circle>
<circle class="agent" cx="-1.800" cy="0.200" r="0.02" fill="hsl(150, 70%, 50%)">  </circle>
<circle class="agent" cx="-0.200" cy="1.500" r="0.02" fill="hsl(175, 70%, 50%)">  </circle>
<circle class="agent" cx="1.500" cy="1.500" r="0.02" fill="hsl(200, 70%, 50%)">  </circle>
<circle class="agent" cx="-0.500" cy="0.300" r="0.02" fill="hsl(225, 70%, 50%)">  </circle>
<circle class="agent" cx="-1.200" cy="0.100" r="0.02" fill="hsl(250, 70%, 50%)">  </circle>
<circle class="agent" cx="1.800" cy="1.000" r="0.02" fill="hsl(275, 70%, 50%)">  </circle>
<circle class="agent" cx="-1.200" cy="-0.600" r="0.02" fill="hsl(300, 70%, 50%)">  </circle>
<circle class="agent" cx="0.800" cy="-0.700" r="0.02" fill="hsl(325, 70%, 50%)">  </circle>
<circle class="agent" cx="1.400" cy="-0.500" r="0.02" fill="hsl(350, 70%, 50%)">  </circle>
<circle class="agent" cx="-0.100" cy="-0.100" r="0.02" fill="hsl(15, 70%, 50%)">  </circle>

<path d=" M -0.997 0.195 L -0.985 0.200 L -0.971 0.152 L -0.974 0.150 L -1.014 0.119 L -0.972 0.093 L -0.938 0.056 L -0.967 0.015 L -0.973 -0.034 L -0.939 -0.071 L -0.960 -0.116 L -0.927 -0.154 L -0.965 -0.186 L -0.946 -0.232 L -0.932 -0.280 L -0.892 -0.310 L -0.856 -0.345 L -0.809 -0.363 L -0.765 -0.386 L -0.718 -0.401 L -0.679 -0.369 L -0.643 -0.404 L -0.593 -0.398 L -0.548 -0.419 L -0.499 -0.429 L -0.449 -0.427 L -0.431 -0.380 L -0.395 -0.346 L -0.349 -0.327 L -0.304 -0.304 L -0.287 -0.257 L -0.286 -0.207 L -0.315 -0.166 L -0.321 -0.116 L -0.307 -0.068 L -0.328 -0.023 L -0.313 0.025 L -0.277 0.060 L -0.303 0.103 L -0.305 0.153 L -0.324 0.199 L -0.325 0.249 L -0.301 0.294 L -0.288 0.342 L -0.274 0.390 L -0.224 0.385 L -0.176 0.369 L -0.145 0.408 L -0.155 0.457 L -0.149 0.507 L -0.110 0.538 L -0.069 0.567 L -0.054 0.615 L -0.075 0.660 L -0.115 0.689 L -0.096 0.736 L -0.127 0.775 L -0.155 0.816 L -0.189 0.853 L -0.156 0.890 L -0.149 0.940 L -0.101 0.953 L -0.079 0.998 L -0.069 1.047 L -0.060 1.096 L -0.016 1.119 L 0.034 1.125 L 0.070 1.160 L 0.100 1.200 " stroke="hsla(0, 70%, 50%, 0.7)" stroke-width="0.009" stroke-linecap="round" fill="none"/>
<path d=" M -1.105 0.900 L -1.111 0.906 L -1.124 0.927 L -1.120 0.950 L -1.143 0.947 L -1.185 0.946 L -1.181 0.996 L -1.210 1.034 L -1.165 1.056 L -1.128 1.089 L -1.085 1.064 L -1.073 1.016 L -1.026 0.999 L -0.995 1.038 L -0.945 1.040 L -0.895 1.041 L -0.897 0.991 L -0.864 0.954 L -0.822 0.926 L -0.786 0.892 L -0.747 0.860 L -0.729 0.813 L -0.683 0.793 L -0.672 0.744 L -0.659 0.696 L -0.701 0.670 L -0.742 0.641 L -0.773 0.602 L -0.760 0.554 L -0.734 0.511 L -0.699 0.476 L -0.650 0.463 L -0.626 0.419 L -0.655 0.379 L -0.639 0.331 L -0.600 0.300 " stroke="hsla(25, 70%, 50%, 0.7)" stroke-width="0.009" stroke-linecap="round" fill="none"/>
<path d=" M 0.002 -0.701 L -0.009 -0.702 L -0.013 -0.704 L -0.039 -0.690 L -0.029 -0.641 L -0.078 -0.634 L -0.125 -0.616 L -0.172 -0.632 L -0.159 -0.680 L -0.200 -0.708 L -0.217 -0.755 L -0.236 -0.801 L -0.279 -0.827 L -0.329 -0.829 L -0.361 -0.867 L -0.408 -0.884 L -0.433 -0.927 L -0.483 -0.923 L -0.532 -0.911 L -0.581 -0.901 L -0.630 -0.896 L -0.660 -0.855 L -0.706 -0.875 L -0.747 -0.904 L -0.790 -0.929 L -0.838 -0.915 L -0.865 -0.957 L -0.913 -0.940 L -0.962 -0.936 L -1.011 -0.946 L -1.059 -0.931 L -1.105 -0.950 L -1.100 -1.000 " stroke="hsla(50, 70%, 50%, 0.7)" stroke-width="0.009" stroke-linecap="round" fill="none"/>
<path d=" M -0.995 0.696 L -0.987 0.676 L -0.944 0.651 L -0.926 0.697 L -0.907 0.743 L -0.921 0.791 L -0.914 0.841 L -0.868 0.860 L -0.833 0.895 L -0.784 0.885 L -0.734 0.884 L -0.691 0.911 L -0.653 0.943 L -0.684 0.982 L -0.712 1.024 L -0.693 1.070 L -0.676 1.117 L -0.709 1.155 L -0.689 1.201 L -0.719 1.241 L -0.759 1.272 L -0.800 1.300 " stroke="hsla(75, 70%, 50%, 0.7)" stroke-width="0.009" stroke-linecap="round" fill="none"/>
<path d=" M -1.700 1.305 L -1.698 1.311 L -1.694 1.314 L -1.728 1.277 L -1.687 1.248 L -1.706 1.202 L -1.748 1.174 L -1.738 1.125 L -1.695 1.100 L -1.713 1.054 L -1.686 1.012 L -1.679 0.962 L -1.647 0.924 L -1.601 0.903 L -1.553 0.892 L -1.505 0.878 L -1.520 0.830 L -1.539 0.784 L -1.498 0.754 L -1.472 0.712 L -1.423 0.722 L -1.408 0.674 L -1.377 0.635 L -1.416 0.604 L -1.460 0.580 L -1.506 0.560 L -1.553 0.544 L -1.595 0.516 L -1.629 0.479 L -1.660 0.440 L -1.691 0.401 L -1.682 0.352 L -1.697 0.304 L -1.737 0.274 L -1.768 0.235 L -1.805 0.201 L -1.852 0.185 L -1.900 0.200 " stroke="hsla(100, 70%, 50%, 0.7)" stroke-width="0.009" stroke-linecap="round" fill="none"/>
<path d=" M 1.606 -1.098 L 1.610 -1.092 L 1.614 -1.094 L 1.622 -1.078 L 1.622 -1.059 L 1.672 -1.063 L 1.722 -1.062 L 1.757 -1.039 L 1.794 -1.073 L 1.835 -1.087 L 1.875 -1.057 L 1.865 -1.008 L 1.849 -0.960 L 1.883 -0.923 L 1.901 -0.877 L 1.904 -0.827 L 1.884 -0.781 L 1.871 -0.733 L 1.821 -0.726 L 1.778 -0.700 L 1.731 -0.716 L 1.720 -0.667 L 1.677 -0.642 L 1.627 -0.641 L 1.580 -0.624 L 1.550 -0.584 L 1.504 -0.565 L 1.454 -0.566 L 1.408 -0.547 L 1.358 -0.546 L 1.340 -0.593 L 1.323 -0.640 L 1.299 -0.684 L 1.290 -0.733 L 1.285 -0.783 L 1.277 -0.832 L 1.268 -0.881 L 1.230 -0.914 L 1.180 -0.916 L 1.142 -0.949 L 1.099 -0.974 L 1.052 -0.955 L 1.012 -0.926 L 0.979 -0.964 L 0.940 -0.933 L 0.898 -0.961 L 0.852 -0.943 L 0.806 -0.924 L 0.757 -0.914 L 0.730 -0.956 L 0.698 -0.994 L 0.674 -1.038 L 0.632 -1.066 L 0.597 -1.102 L 0.548 -1.110 L 0.538 -1.159 L 0.515 -1.203 L 0.517 -1.253 L 0.482 -1.288 L 0.433 -1.299 L 0.383 -1.307 L 0.338 -1.287 L 0.291 -1.304 L 0.242 -1.293 L 0.193 -1.281 L 0.144 -1.286 L 0.105 -1.255 L 0.126 -1.210 L 0.107 -1.164 L 0.059 -1.148 L 0.022 -1.115 L -0.027 -1.102 L -0.076 -1.107 L -0.118 -1.080 L -0.096 -1.048 L -0.086 -0.999 L -0.132 -0.978 L -0.149 -0.931 L -0.197 -0.917 L -0.246 -0.907 L -0.295 -0.896 L -0.344 -0.887 L -0.394 -0.887 L -0.444 -0.882 L -0.490 -0.863 L -0.523 -0.825 L -0.535 -0.777 L -0.517 -0.730 L -0.560 -0.706 L -0.577 -0.658 L -0.614 -0.625 L -0.639 -0.617 L -0.653 -0.569 L -0.669 -0.522 L -0.694 -0.478 L -0.706 -0.430 L -0.755 -0.442 L -0.804 -0.432 L -0.849 -0.412 L -0.899 -0.412 L -0.949 -0.414 L -0.998 -0.425 L -1.032 -0.388 L -1.082 -0.394 L -1.116 -0.431 L -1.165 -0.442 L -1.213 -0.430 L -1.258 -0.408 L -1.308 -0.406 L -1.348 -0.376 L -1.377 -0.335 L -1.405 -0.293 L -1.447 -0.267 L -1.484 -0.233 L -1.527 -0.207 L -1.574 -0.225 L -1.617 -0.251 L -1.665 -0.265 L -1.700 -0.300 " stroke="hsla(125, 70%, 50%, 0.7)" stroke-width="0.009" stroke-linecap="round" fill="none"/>
<path d=" M 1.407 0.396 L 1.404 0.390 L 1.426 0.400 L 1.376 0.405 L 1.327 0.401 L 1.283 0.377 L 1.263 0.387 L 1.252 0.435 L 1.228 0.479 L 1.191 0.445 L 1.145 0.464 L 1.099 0.446 L 1.051 0.460 L 1.028 0.434 L 0.978 0.428 L 0.942 0.394 L 0.940 0.344 L 0.925 0.296 L 0.932 0.246 L 0.900 0.208 L 0.934 0.172 L 0.918 0.125 L 0.904 0.077 L 0.888 0.029 L 0.925 -0.004 L 0.914 -0.053 L 0.919 -0.102 L 0.928 -0.152 L 0.913 -0.199 L 0.918 -0.249 L 0.878 -0.278 L 0.873 -0.328 L 0.849 -0.372 L 0.804 -0.395 L 0.781 -0.439 L 0.755 -0.482 L 0.733 -0.527 L 0.705 -0.568 L 0.670 -0.603 L 0.631 -0.572 L 0.582 -0.581 L 0.533 -0.591 L 0.492 -0.562 L 0.446 -0.543 L 0.398 -0.528 L 0.406 -0.479 L 0.367 -0.448 L 0.362 -0.398 L 0.316 -0.379 L 0.278 -0.411 L 0.236 -0.384 L 0.187 -0.396 L 0.137 -0.393 L 0.105 -0.354 L 0.055 -0.357 L 0.012 -0.331 L -0.007 -0.285 L -0.053 -0.265 L -0.090 -0.298 L -0.115 -0.342 L -0.159 -0.364 L -0.204 -0.387 L -0.248 -0.364 L -0.296 -0.350 L -0.321 -0.393 L -0.366 -0.415 L -0.416 -0.422 L -0.445 -0.382 L -0.495 -0.384 L -0.526 -0.423 L -0.572 -0.403 L -0.612 -0.373 L -0.661 -0.366 L -0.672 -0.415 L -0.716 -0.438 L -0.763 -0.456 L -0.810 -0.440 L -0.856 -0.421 L -0.889 -0.458 L -0.938 -0.447 L -0.985 -0.431 L -1.032 -0.449 L -1.058 -0.491 L -1.105 -0.473 L -1.153 -0.463 L -1.202 -0.474 L -1.248 -0.495 L -1.290 -0.469 L -1.339 -0.478 L -1.389 -0.477 L -1.427 -0.445 L -1.473 -0.426 L -1.520 -0.408 L -1.568 -0.394 L -1.608 -0.364 L -1.650 -0.336 L -1.639 -0.287 L -1.677 -0.254 L -1.718 -0.225 L -1.717 -0.175 L -1.746 -0.134 L -1.776 -0.094 L -1.796 -0.048 L -1.803 0.002 L -1.806 0.051 L -1.803 0.101 L -1.793 0.150 L -1.800 0.200 " stroke="hsla(150, 70%, 50%, 0.7)" stroke-width="0.009" stroke-linecap="round" fill="none"/>
<path d=" M 1.405 0.604 L 1.398 0.608 L 1.382 0.592 L 1.382 0.591 L 1.409 0.633 L 1.448 0.664 L 1.423 0.707 L 1.410 0.756 L 1.408 0.806 L 1.397 0.855 L 1.379 0.901 L 1.339 0.931 L 1.307 0.969 L 1.281 1.012 L 1.259 1.057 L 1.247 1.105 L 1.201 1.126 L 1.162 1.095 L 1.112 1.102 L 1.071 1.073 L 1.042 1.114 L 0.997 1.092 L 0.947 1.091 L 0.914 1.129 L 0.916 1.179 L 0.901 1.227 L 0.870 1.266 L 0.827 1.292 L 0.777 1.293 L 0.745 1.255 L 0.722 1.210 L 0.673 1.218 L 0.628 1.196 L 0.586 1.223 L 0.537 1.234 L 0.488 1.244 L 0.443 1.266 L 0.397 1.285 L 0.348 1.294 L 0.298 1.301 L 0.248 1.300 L 0.199 1.292 L 0.151 1.306 L 0.104 1.287 L 0.069 1.323 L 0.024 1.344 L -0.019 1.371 L -0.069 1.372 L -0.103 1.408 L -0.114 1.457 L -0.151 1.491 L -0.200 1.500 " stroke="hsla(175, 70%, 50%, 0.7)" stroke-width="0.009" stroke-linecap="round" fill="none"/>
<path d=" M -1.701 -1.299 L -1.704 -1.310 L -1.693 -1.314 L -1.678 -1.318 L -1.673 -1.301 L -1.674 -1.293 L -1.691 -1.246 L -1.679 -1.198 L -1.678 -1.148 L -1.715 -1.114 L -1.696 -1.068 L -1.665 -1.029 L -1.705 -0.999 L -1.686 -0.953 L -1.719 -0.916 L -1.702 -0.869 L -1.695 -0.819 L -1.711 -0.772 L -1.754 -0.746 L -1.744 -0.697 L -1.722 -0.652 L -1.702 -0.607 L -1.683 -0.560 L -1.675 -0.511 L -1.628 -0.496 L -1.579 -0.486 L -1.578 -0.436 L -1.578 -0.386 L -1.559 -0.340 L -1.569 -0.291 L -1.583 -0.243 L -1.584 -0.193 L -1.602 -0.146 L -1.590 -0.098 L -1.574 -0.050 L -1.579 -0.000 L -1.570 0.049 L -1.576 0.098 L -1.586 0.147 L -1.570 0.195 L -1.566 0.245 L -1.533 0.282 L -1.505 0.323 L -1.484 0.369 L -1.452 0.407 L -1.422 0.447 L -1.386 0.482 L -1.367 0.528 L -1.365 0.578 L -1.332 0.615 L -1.301 0.655 L -1.263 0.622 L -1.216 0.605 L -1.186 0.645 L -1.156 0.685 L -1.110 0.665 L -1.062 0.679 L -1.018 0.654 L -0.997 0.609 L -0.948 0.598 L -0.907 0.569 L -0.858 0.577 L -0.813 0.555 L -0.781 0.517 L -0.741 0.487 L -0.693 0.503 L -0.652 0.475 L -0.602 0.483 L -0.565 0.449 L -0.523 0.422 L -0.474 0.412 L -0.444 0.452 L -0.410 0.489 L -0.363 0.506 L -0.324 0.537 L -0.290 0.574 L -0.261 0.614 L -0.211 0.612 L -0.165 0.593 L -0.115 0.586 L -0.073 0.614 L -0.024 0.611 L 0.012 0.646 L 0.062 0.647 L 0.109 0.663 L 0.137 0.705 L 0.173 0.739 L 0.209 0.705 L 0.254 0.727 L 0.300 0.707 L 0.349 0.712 L 0.391 0.685 L 0.441 0.685 L 0.488 0.667 L 0.538 0.662 L 0.575 0.629 L 0.623 0.614 L 0.667 0.591 L 0.715 0.575 L 0.765 0.574 L 0.809 0.550 L 0.850 0.579 L 0.896 0.597 L 0.918 0.642 L 0.956 0.674 L 1.003 0.692 L 1.045 0.719 L 1.089 0.742 L 1.073 0.790 L 1.115 0.817 L 1.156 0.845 L 1.165 0.894 L 1.214 0.906 L 1.252 0.939 L 1.298 0.959 L 1.283 1.007 L 1.276 1.056 L 1.325 1.066 L 1.375 1.069 L 1.424 1.079 L 1.460 1.114 L 1.475 1.161 L 1.492 1.208 L 1.491 1.258 L 1.478 1.307 L 1.493 1.354 L 1.480 1.402 L 1.495 1.450 L 1.500 1.500 " stroke="hsla(200, 70%, 50%, 0.7)" stroke-width="0.009" stroke-linecap="round" fill="none"/>
<path d=" M -1.796 0.197 L -1.790 0.199 L -1.790 0.203 L -1.786 0.206 L -1.807 0.194 L -1.825 0.158 L -1.780 0.136 L -1.739 0.164 L -1.692 0.182 L -1.646 0.201 L -1.658 0.250 L -1.651 0.299 L -1.634 0.346 L -1.601 0.384 L -1.586 0.431 L -1.559 0.473 L -1.519 0.504 L -1.484 0.469 L -1.434 0.467 L -1.385 0.477 L -1.348 0.510 L -1.317 0.550 L -1.284 0.588 L -1.250 0.624 L -1.200 0.622 L -1.192 0.572 L -1.158 0.536 L -1.108 0.530 L -1.065 0.505 L -1.040 0.462 L -0.994 0.484 L -0.959 0.448 L -0.918 0.421 L -0.884 0.383 L -0.841 0.409 L -0.791 0.415 L -0.747 0.392 L -0.736 0.343 L -0.688 0.331 L -0.651 0.297 L -0.602 0.287 L -0.570 0.249 L -0.521 0.255 L -0.500 0.300 " stroke="hsla(225, 70%, 50%, 0.7)" stroke-width="0.009" stroke-linecap="round" fill="none"/>
<path d=" M -1.699 1.204 L -1.686 1.200 L -1.678 1.204 L -1.685 1.186 L -1.659 1.144 L -1.613 1.125 L -1.571 1.097 L -1.522 1.085 L -1.480 1.112 L -1.433 1.097 L -1.386 1.079 L -1.347 1.048 L -1.315 1.009 L -1.265 1.013 L -1.244 0.967 L -1.197 0.983 L -1.159 0.950 L -1.133 0.907 L -1.084 0.897 L -1.044 0.867 L -0.994 0.873 L -0.947 0.856 L -0.915 0.818 L -0.920 0.768 L -0.935 0.721 L -0.900 0.685 L -0.861 0.654 L -0.821 0.624 L -0.784 0.590 L -0.771 0.542 L -0.764 0.492 L -0.773 0.443 L -0.771 0.393 L -0.820 0.389 L -0.857 0.355 L -0.879 0.310 L -0.878 0.260 L -0.878 0.210 L -0.881 0.160 L -0.888 0.111 L -0.907 0.064 L -0.944 0.030 L -0.980 -0.005 L -1.026 0.013 L -1.062 0.049 L -1.108 0.068 L -1.150 0.094 L -1.200 0.100 " stroke="hsla(250, 70%, 50%, 0.7)" stroke-width="0.009" stroke-linecap="round" fill="none"/>
<path d=" M 1.295 -1.103 L 1.297 -1.108 L 1.293 -1.093 L 1.298 -1.130 L 1.297 -1.131 L 1.334 -1.098 L 1.382 -1.113 L 1.430 -1.098 L 1.468 -1.066 L 1.496 -1.024 L 1.510 -0.976 L 1.525 -0.929 L 1.532 -0.879 L 1.516 -0.832 L 1.497 -0.786 L 1.467 -0.746 L 1.442 -0.703 L 1.428 -0.655 L 1.445 -0.608 L 1.486 -0.578 L 1.487 -0.528 L 1.517 -0.488 L 1.566 -0.481 L 1.607 -0.453 L 1.652 -0.430 L 1.683 -0.390 L 1.671 -0.342 L 1.705 -0.306 L 1.668 -0.272 L 1.702 -0.235 L 1.706 -0.185 L 1.716 -0.136 L 1.710 -0.086 L 1.665 -0.063 L 1.664 -0.013 L 1.643 0.032 L 1.594 0.018 L 1.558 0.053 L 1.508 0.052 L 1.494 0.100 L 1.446 0.114 L 1.438 0.164 L 1.468 0.204 L 1.496 0.246 L 1.497 0.296 L 1.485 0.344 L 1.474 0.393 L 1.469 0.443 L 1.477 0.492 L 1.454 0.536 L 1.441 0.585 L 1.429 0.633 L 1.408 0.679 L 1.378 0.719 L 1.417 0.750 L 1.445 0.791 L 1.480 0.827 L 1.499 0.873 L 1.548 0.862 L 1.591 0.886 L 1.624 0.924 L 1.673 0.931 L 1.704 0.971 L 1.752 0.986 L 1.800 1.000 " stroke="hsla(275, 70%, 50%, 0.7)" stroke-width="0.009" stroke-linecap="round" fill="none"/>
<path d=" M -0.706 -0.497 L -0.682 -0.508 L -0.711 -0.527 L -0.704 -0.576 L -0.754 -0.577 L -0.803 -0.572 L -0.849 -0.593 L -0.896 -0.578 L -0.946 -0.570 L -0.983 -0.603 L -1.022 -0.572 L -1.054 -0.610 L -1.103 -0.622 L -1.152 -0.614 L -1.200 -0.600 " stroke="hsla(300, 70%, 50%, 0.7)" stroke-width="0.009" stroke-linecap="round" fill="none"/>
<path d=" M 0.301 0.603 L 0.292 0.610 L 0.314 0.565 L 0.290 0.538 L 0.264 0.495 L 0.314 0.490 L 0.358 0.465 L 0.407 0.473 L 0.457 0.471 L 0.485 0.513 L 0.533 0.500 L 0.583 0.503 L 0.628 0.482 L 0.672 0.505 L 0.710 0.537 L 0.759 0.524 L 0.801 0.498 L 0.823 0.453 L 0.862 0.422 L 0.838 0.378 L 0.864 0.336 L 0.877 0.287 L 0.871 0.238 L 0.893 0.193 L 0.907 0.145 L 0.872 0.110 L 0.891 0.064 L 0.928 0.031 L 0.912 -0.016 L 0.884 -0.058 L 0.899 -0.105 L 0.897 -0.155 L 0.886 -0.204 L 0.883 -0.254 L 0.850 -0.291 L 0.877 -0.333 L 0.846 -0.373 L 0.815 -0.412 L 0.822 -0.462 L 0.777 -0.484 L 0.781 -0.534 L 0.784 -0.584 L 0.764 -0.629 L 0.809 -0.651 L 0.800 -0.700 " stroke="hsla(325, 70%, 50%, 0.7)" stroke-width="0.009" stroke-linecap="round" fill="none"/>
<path d=" M -0.496 0.996 L -0.489 0.998 L -0.492 1.015 L -0.468 1.060 L -0.430 1.066 L -0.399 1.105 L -0.354 1.127 L -0.330 1.083 L -0.327 1.033 L -0.316 0.984 L -0.296 0.939 L -0.258 0.905 L -0.249 0.856 L -0.229 0.810 L -0.221 0.761 L -0.261 0.731 L -0.307 0.753 L -0.354 0.736 L -0.350 0.686 L -0.372 0.641 L -0.387 0.593 L -0.409 0.549 L -0.454 0.527 L -0.480 0.484 L -0.439 0.454 L -0.404 0.419 L -0.365 0.388 L -0.324 0.359 L -0.317 0.309 L -0.303 0.261 L -0.327 0.217 L -0.319 0.168 L -0.323 0.118 L -0.305 0.071 L -0.314 0.022 L -0.299 -0.026 L -0.314 -0.073 L -0.332 -0.120 L -0.317 -0.167 L -0.301 -0.215 L -0.319 -0.262 L -0.272 -0.278 L -0.283 -0.327 L -0.300 -0.374 L -0.290 -0.423 L -0.278 -0.471 L -0.230 -0.485 L -0.180 -0.481 L -0.131 -0.472 L -0.082 -0.483 L -0.041 -0.512 L 0.002 -0.537 L 0.048 -0.557 L 0.093 -0.578 L 0.139 -0.599 L 0.187 -0.584 L 0.230 -0.560 L 0.280 -0.557 L 0.319 -0.525 L 0.350 -0.486 L 0.390 -0.456 L 0.419 -0.415 L 0.468 -0.428 L 0.515 -0.412 L 0.560 -0.391 L 0.606 -0.371 L 0.656 -0.374 L 0.705 -0.385 L 0.747 -0.359 L 0.776 -0.318 L 0.826 -0.323 L 0.876 -0.318 L 0.915 -0.349 L 0.949 -0.386 L 0.991 -0.412 L 1.041 -0.414 L 1.089 -0.430 L 1.135 -0.410 L 1.166 -0.449 L 1.208 -0.476 L 1.258 -0.468 L 1.302 -0.491 L 1.352 -0.487 L 1.400 -0.500 " stroke="hsla(350, 70%, 50%, 0.7)" stroke-width="0.009" stroke-linecap="round" fill="none"/>
<path d=" M 1.206 1.400 L 1.217 1.414 L 1.223 1.414 L 1.218 1.431 L 1.189 1.427 L 1.139 1.430 L 1.141 1.380 L 1.094 1.363 L 1.049 1.342 L 1.003 1.322 L 0.954 1.312 L 0.932 1.357 L 0.896 1.392 L 0.868 1.350 L 0.831 1.317 L 0.861 1.277 L 0.893 1.238 L 0.914 1.192 L 0.893 1.147 L 0.937 1.125 L 0.986 1.112 L 1.035 1.120 L 1.085 1.121 L 1.133 1.136 L 1.178 1.114 L 1.225 1.132 L 1.246 1.087 L 1.295 1.073 L 1.314 1.027 L 1.316 0.977 L 1.311 0.928 L 1.266 0.906 L 1.250 0.858 L 1.249 0.808 L 1.255 0.759 L 1.240 0.711 L 1.190 0.716 L 1.155 0.680 L 1.114 0.652 L 1.087 0.610 L 1.037 0.612 L 1.005 0.573 L 0.956 0.567 L 0.912 0.543 L 0.862 0.549 L 0.813 0.543 L 0.773 0.512 L 0.733 0.483 L 0.689 0.459 L 0.649 0.429 L 0.620 0.388 L 0.570 0.391 L 0.529 0.362 L 0.491 0.394 L 0.442 0.384 L 0.394 0.399 L 0.344 0.398 L 0.304 0.428 L 0.272 0.390 L 0.222 0.398 L 0.182 0.369 L 0.134 0.355 L 0.093 0.326 L 0.062 0.287 L 0.035 0.244 L 0.061 0.201 L 0.073 0.153 L 0.039 0.116 L 0.006 0.078 L -0.040 0.059 L -0.074 0.022 L -0.118 -0.002 L -0.111 -0.051 L -0.100 -0.100 " stroke="hsla(15, 70%, 50%, 0.7)" stroke-width="0.009" stroke-linecap="round" fill="none"/>
</svg>