<?xml version="1.0" encoding="UTF-8"?>
<svg xmlns="http://www.w3.org/2000/svg" xmlns:xlink="http://www.w3.org/1999/xlink"
	width="512" height="512" viewBox="-0.55 -0.55 1.1 1.1">


<defs>
<style>
	.landmark {fill: #84A1AE; r: 0.05;}
	.agent {r: 0.03;}
	.goal {stroke: black; stroke-width: 0.003; r: 0.012;}
</style>
</defs>


<circle class="landmark" cx="-0.500" cy="-0.500">  </circle>
<circle class="landmark" cx="-0.400" cy="-0.500">  </circle>
<circle class="landmark" cx="-0.300" cy="-0.500">  </circle>
<circle class="landmark" cx="-0.200" cy="-0.500">  </circle>
<circle class="landmark" cx="-0.100" cy="-0.500">  </circle>
<circle class="landmark" cx="-0.000" cy="-0.500">  </circle>
<circle class="landmark" cx="0.100" cy="-0.500">  </circle>
<circle class="landmark" cx="0.200" cy="-0.500">  </circle>
<circle class="landmark" cx="0.300" cy="-0.500">  </circle>
<circle class="landmark" cx="0.400" cy="-0.500">  </circle>
<circle class="landmark" cx="0.500" cy="-0.500">  </circle>
<circle class="landmark" cx="-0.500" cy="-0.400">  </circle>
<circle class="landmark" cx="-0.100" cy="-0.400">  </circle>
<circle class="landmark" cx="0.300" cy="-0.400">  </circle>
<circle class="landmark" cx="0.400" cy="-0.400">  </circle>
<circle class="landmark" cx="0.500" cy="-0.400">  </circle>
<circle class="landmark" cx="-0.500" cy="-0.300">  </circle>
<circle class="landmark" cx="-0.100" cy="-0.300">  </circle>
<circle class="landmark" cx="0.300" cy="-0.300">  </circle>
<circle class="landmark" cx="0.400" cy="-0.300">  </circle>
<circle class="landmark" cx="0.500" cy="-0.300">  </circle>
<circle class="landmark" cx="-0.500" cy="-0.200">  </circle>
<circle class="landmark" cx="0.500" cy="-0.200">  </circle>
<circle class="landmark" cx="-0.500" cy="-0.100">  </circle>
<circle class="landmark" cx="-0.400" cy="-0.100">  </circle>
<circle class="landmark" cx="-0.300" cy="-0.100">  </circle>
<circle class="landmark" cx="-0.100" cy="-0.100">  </circle>
<circle class="landmark" cx="0.100" cy="-0.100">  </circle>
<circle class="landmark" cx="0.300" cy="-0.100">  </circle>
<circle class="landmark" cx="0.500" cy="-0.100">  </circle>
<circle class="landmark" cx="-0.500" cy="-0.000">  </circle>
<circle class="landmark" cx="0.500" cy="-0.000">  </circle>
<circle class="landmark" cx="-0.500" cy="0.100">  </circle>
<circle class="landmark" cx="-0.300" cy="0.100">  </circle>
<circle class="landmark" cx="-0.200" cy="0.100">  </circle>
<circle class="landmark" cx="-0.100" cy="0.100">  </circle>
<circle class="landmark" cx="-0.000" cy="0.100">  </circle>
<circle class="landmark" cx="0.100" cy="0.100">  </circle>
<circle class="landmark" cx="0.500" cy="0.100">  </circle>
<circle class="landmark" cx="-0.500" cy="0.200">  </circle>
<circle class="landmark" cx="-0.100" cy="0.200">  </circle>
<circle class="landmark" cx="-0.000" cy="0.200">  </circle>
<circle class="landmark" cx="0.100" cy="0.200">  </circle>
<circle class="landmark" cx="0.500" cy="0.200">  </circle>
<circle class="landmark" cx="-0.500" cy="0.300">  </circle>
<circle class="landmark" cx="-0.100" cy="0.300">  </circle>
<circle class="landmark" cx="-0.000" cy="0.300">  </circle>
<circle class="landmark" cx="0.100" cy="0.300">  </circle>
<circle class="landmark" cx="0.500" cy="0.300">  </circle>
<circle class="landmark" cx="-0.500" cy="0.400">  </circle>
<circle class="landmark" cx="-0.100" cy="0.400">  </circle>
<circle class="landmark" cx="-0.000" cy="0.400">  </circle>
<circle class="landmark" cx="0.100" cy="0.400">  </circle>
<circle class="landmark" cx="0.500" cy="0.400">  </circle>
<circle class="landmark" cx="-0.500" cy="0.500">  </circle>
<circle class="landmark" cx="-0.400" cy="0.500">  </circle>
<circle class="landmark" cx="-0.300" cy="0.500">  </circle>
<circle class="landmark" cx="-0.200" cy="0.500">  </circle>
<circle class="landmark" cx="-0.100" cy="0.500">  </circle>
<circle class="landmark" cx="-0.000" cy="0.500">  </circle>
<circle class="landmark" cx="0.100" cy="0.500">  </circle>
<circle class="landmark" cx="0.200" cy="0.500">  </circle>
<circle class="landmark" cx="0.300" cy="0.500">  </circle>
<circle class="landmark" cx="0.400" cy="0.500">  </circle>
<circle class="landmark" cx="0.500" cy="0.500">  </circle>


<circle class="goal" cx="0.100" cy="-0.300" fill="hsl(0, 100%, 50%)">  </circle>
<circle class="goal" cx="0.200" cy="-0.400" fill="hsl(36, 100%, 50%)">  </circle>
<circle class="goal" cx="0.400" cy="-0.000" fill="hsl(72, 100%, 50%)">  </circle>
<circle class="goal" cx="-0.200" cy="0.300" fill="hsl(108, 100%, 50%)">  </circle>
<circle class="goal" cx="0.400" cy="0.300" fill="hsl(144, 100%, 50%)">  </circle>
<circle class="goal" cx="-0.000" cy="-0.000" fill="hsl(180, 100%, 50%)">  </circle>
<circle class="goal" cx="-0.000" cy="-0.400" fill="hsl(216, 100%, 50%)">  </circle>
<circle class="goal" cx="0.100" cy="-0.400" fill="hsl(252, 100%, 50%)">  </circle>
<circle class="goal" cx="-0.400" cy="0.200" fill="hsl(288, 100%, 50%)">  </circle>
<circle class="goal" cx="0.400" cy="0.200" fill="hsl(324, 100%, 50%)">  </circle>


<circle class="agent" cx="0.200" cy="0.100" fill="hsl(0, 70%, 50%)">  </circle>
<circle class="agent" cx="-0.400" cy="-0.300" fill="hsl(36, 70%, 50%)">  </circle>
<circle class="agent" cx="0.400" cy="-0.200" fill="hsl(72, 70%, 50%)">  </circle>
<circle class="agent" cx="0.400" cy="0.200" fill="hsl(108, 70%, 50%)">  </circle>
<circle class="agent" cx="-0.400" cy="0.400" fill="hsl(144, 70%, 50%)">  </circle>
<circle class="agent" cx="-0.200" cy="0.200" fill="hsl(180, 70%, 50%)">  </circle>
<circle class="agent" cx="0.300" cy="0.200" fill="hsl(216, 70%, 50%)">  </circle>
<circle class="agent" cx="0.200" cy="-0.200" fill="hsl(252, 70%, 50%)">  </circle>
<circle class="agent" cx="-0.200" cy="-0.100" fill="hsl(288, 70%, 50%)">  </circle>
<circle class="agent" cx="0.200" cy="-0.300" fill="hsl(324, 70%, 50%)">  </circle>
</svg>