<?xml version="1.0" encoding="UTF-8"?>
<svg xmlns="http://www.w3.org/2000/svg" xmlns:xlink="http://www.w3.org/1999/xlink"
	width="334" height="512" viewBox="-0.75 -1.1500000000000001 1.5 2.3000000000000003">


<defs>
<style>
	.landmark {fill: #84A1AE; r: 0.05;}
	.agent {r: 0.02;}
	.goal {stroke: black; stroke-width: 0.002; r: 0.008;}
</style>
</defs>


<circle class="landmark" cx="-0.700" cy="-1.100">  </circle>
<circle class="landmark" cx="-0.600" cy="-1.100">  </circle>
<circle class="landmark" cx="-0.500" cy="-1.100">  </circle>
<circle class="landmark" cx="-0.400" cy="-1.100">  </circle>
<circle class="landmark" cx="-0.300" cy="-1.100">  </circle>
<circle class="landmark" cx="-0.200" cy="-1.100">  </circle>
<circle class="landmark" cx="-0.100" cy="-1.100">  </circle>
<circle class="landmark" cx="-0.000" cy="-1.100">  </circle>
<circle class="landmark" cx="0.100" cy="-1.100">  </circle>
<circle class="landmark" cx="0.200" cy="-1.100">  </circle>
<circle class="landmark" cx="0.300" cy="-1.100">  </circle>
<circle class="landmark" cx="0.400" cy="-1.100">  </circle>
<circle class="landmark" cx="0.500" cy="-1.100">  </circle>
<circle class="landmark" cx="0.600" cy="-1.100">  </circle>
<circle class="landmark" cx="0.700" cy="-1.100">  </circle>
<circle class="landmark" cx="-0.700" cy="-1.000">  </circle>
<circle class="landmark" cx="-0.600" cy="-1.000">  </circle>
<circle class="landmark" cx="-0.500" cy="-1.000">  </circle>
<circle class="landmark" cx="-0.400" cy="-1.000">  </circle>
<circle class="landmark" cx="-0.300" cy="-1.000">  </circle>
<circle class="landmark" cx="-0.200" cy="-1.000">  </circle>
<circle class="landmark" cx="-0.100" cy="-1.000">  </circle>
<circle class="landmark" cx="-0.000" cy="-1.000">  </circle>
<circle class="landmark" cx="0.100" cy="-1.000">  </circle>
<circle class="landmark" cx="0.200" cy="-1.000">  </circle>
<circle class="landmark" cx="0.300" cy="-1.000">  </circle>
<circle class="landmark" cx="0.400" cy="-1.000">  </circle>
<circle class="landmark" cx="0.500" cy="-1.000">  </circle>
<circle class="landmark" cx="0.600" cy="-1.000">  </circle>
<circle class="landmark" cx="0.700" cy="-1.000">  </circle>
<circle class="landmark" cx="-0.700" cy="-0.900">  </circle>
<circle class="landmark" cx="-0.600" cy="-0.900">  </circle>
<circle class="landmark" cx="-0.200" cy="-0.900">  </circle>
<circle class="landmark" cx="0.600" cy="-0.900">  </circle>
<circle class="landmark" cx="0.700" cy="-0.900">  </circle>
<circle class="landmark" cx="-0.700" cy="-0.800">  </circle>
<circle class="landmark" cx="-0.600" cy="-0.800">  </circle>
<circle class="landmark" cx="-0.200" cy="-0.800">  </circle>
<circle class="landmark" cx="-0.000" cy="-0.800">  </circle>
<circle class="landmark" cx="0.400" cy="-0.800">  </circle>
<circle class="landmark" cx="0.600" cy="-0.800">  </circle>
<circle class="landmark" cx="0.700" cy="-0.800">  </circle>
<circle class="landmark" cx="-0.700" cy="-0.700">  </circle>
<circle class="landmark" cx="-0.600" cy="-0.700">  </circle>
<circle class="landmark" cx="-0.000" cy="-0.700">  </circle>
<circle class="landmark" cx="0.400" cy="-0.700">  </circle>
<circle class="landmark" cx="0.600" cy="-0.700">  </circle>
<circle class="landmark" cx="0.700" cy="-0.700">  </circle>
<circle class="landmark" cx="-0.700" cy="-0.600">  </circle>
<circle class="landmark" cx="-0.600" cy="-0.600">  </circle>
<circle class="landmark" cx="-0.400" cy="-0.600">  </circle>
<circle class="landmark" cx="-0.200" cy="-0.600">  </circle>
<circle class="landmark" cx="-0.000" cy="-0.600">  </circle>
<circle class="landmark" cx="0.200" cy="-0.600">  </circle>
<circle class="landmark" cx="0.300" cy="-0.600">  </circle>
<circle class="landmark" cx="0.400" cy="-0.600">  </circle>
<circle class="landmark" cx="0.600" cy="-0.600">  </circle>
<circle class="landmark" cx="0.700" cy="-0.600">  </circle>
<circle class="landmark" cx="-0.700" cy="-0.500">  </circle>
<circle class="landmark" cx="-0.600" cy="-0.500">  </circle>
<circle class="landmark" cx="0.600" cy="-0.500">  </circle>
<circle class="landmark" cx="0.700" cy="-0.500">  </circle>
<circle class="landmark" cx="-0.700" cy="-0.400">  </circle>
<circle class="landmark" cx="-0.600" cy="-0.400">  </circle>
<circle class="landmark" cx="-0.400" cy="-0.400">  </circle>
<circle class="landmark" cx="-0.000" cy="-0.400">  </circle>
<circle class="landmark" cx="0.400" cy="-0.400">  </circle>
<circle class="landmark" cx="0.600" cy="-0.400">  </circle>
<circle class="landmark" cx="0.700" cy="-0.400">  </circle>
<circle class="landmark" cx="-0.700" cy="-0.300">  </circle>
<circle class="landmark" cx="-0.600" cy="-0.300">  </circle>
<circle class="landmark" cx="-0.400" cy="-0.300">  </circle>
<circle class="landmark" cx="-0.000" cy="-0.300">  </circle>
<circle class="landmark" cx="0.400" cy="-0.300">  </circle>
<circle class="landmark" cx="0.600" cy="-0.300">  </circle>
<circle class="landmark" cx="0.700" cy="-0.300">  </circle>
<circle class="landmark" cx="-0.700" cy="-0.200">  </circle>
<circle class="landmark" cx="-0.600" cy="-0.200">  </circle>
<circle class="landmark" cx="-0.400" cy="-0.200">  </circle>
<circle class="landmark" cx="-0.200" cy="-0.200">  </circle>
<circle class="landmark" cx="-0.100" cy="-0.200">  </circle>
<circle class="landmark" cx="-0.000" cy="-0.200">  </circle>
<circle class="landmark" cx="0.100" cy="-0.200">  </circle>
<circle class="landmark" cx="0.200" cy="-0.200">  </circle>
<circle class="landmark" cx="0.400" cy="-0.200">  </circle>
<circle class="landmark" cx="0.600" cy="-0.200">  </circle>
<circle class="landmark" cx="0.700" cy="-0.200">  </circle>
<circle class="landmark" cx="-0.700" cy="-0.100">  </circle>
<circle class="landmark" cx="-0.600" cy="-0.100">  </circle>
<circle class="landmark" cx="0.400" cy="-0.100">  </circle>
<circle class="landmark" cx="0.600" cy="-0.100">  </circle>
<circle class="landmark" cx="0.700" cy="-0.100">  </circle>
<circle class="landmark" cx="-0.700" cy="0.000">  </circle>
<circle class="landmark" cx="-0.600" cy="0.000">  </circle>
<circle class="landmark" cx="-0.000" cy="0.000">  </circle>
<circle class="landmark" cx="0.400" cy="0.000">  </circle>
<circle class="landmark" cx="0.600" cy="0.000">  </circle>
<circle class="landmark" cx="0.700" cy="0.000">  </circle>
<circle class="landmark" cx="-0.700" cy="0.100">  </circle>
<circle class="landmark" cx="-0.600" cy="0.100">  </circle>
<circle class="landmark" cx="-0.000" cy="0.100">  </circle>
<circle class="landmark" cx="0.600" cy="0.100">  </circle>
<circle class="landmark" cx="0.700" cy="0.100">  </circle>
<circle class="landmark" cx="-0.700" cy="0.200">  </circle>
<circle class="landmark" cx="-0.600" cy="0.200">  </circle>
<circle class="landmark" cx="-0.500" cy="0.200">  </circle>
<circle class="landmark" cx="-0.400" cy="0.200">  </circle>
<circle class="landmark" cx="-0.300" cy="0.200">  </circle>
<circle class="landmark" cx="-0.200" cy="0.200">  </circle>
<circle class="landmark" cx="-0.000" cy="0.200">  </circle>
<circle class="landmark" cx="0.400" cy="0.200">  </circle>
<circle class="landmark" cx="0.600" cy="0.200">  </circle>
<circle class="landmark" cx="0.700" cy="0.200">  </circle>
<circle class="landmark" cx="-0.700" cy="0.300">  </circle>
<circle class="landmark" cx="-0.600" cy="0.300">  </circle>
<circle class="landmark" cx="-0.500" cy="0.300">  </circle>
<circle class="landmark" cx="-0.400" cy="0.300">  </circle>
<circle class="landmark" cx="-0.300" cy="0.300">  </circle>
<circle class="landmark" cx="-0.200" cy="0.300">  </circle>
<circle class="landmark" cx="0.400" cy="0.300">  </circle>
<circle class="landmark" cx="0.600" cy="0.300">  </circle>
<circle class="landmark" cx="0.700" cy="0.300">  </circle>
<circle class="landmark" cx="-0.700" cy="0.400">  </circle>
<circle class="landmark" cx="-0.600" cy="0.400">  </circle>
<circle class="landmark" cx="-0.500" cy="0.400">  </circle>
<circle class="landmark" cx="-0.400" cy="0.400">  </circle>
<circle class="landmark" cx="-0.300" cy="0.400">  </circle>
<circle class="landmark" cx="-0.200" cy="0.400">  </circle>
<circle class="landmark" cx="-0.000" cy="0.400">  </circle>
<circle class="landmark" cx="0.100" cy="0.400">  </circle>
<circle class="landmark" cx="0.200" cy="0.400">  </circle>
<circle class="landmark" cx="0.300" cy="0.400">  </circle>
<circle class="landmark" cx="0.400" cy="0.400">  </circle>
<circle class="landmark" cx="0.600" cy="0.400">  </circle>
<circle class="landmark" cx="0.700" cy="0.400">  </circle>
<circle class="landmark" cx="-0.700" cy="0.500">  </circle>
<circle class="landmark" cx="-0.600" cy="0.500">  </circle>
<circle class="landmark" cx="0.600" cy="0.500">  </circle>
<circle class="landmark" cx="0.700" cy="0.500">  </circle>
<circle class="landmark" cx="-0.700" cy="0.600">  </circle>
<circle class="landmark" cx="-0.600" cy="0.600">  </circle>
<circle class="landmark" cx="-0.000" cy="0.600">  </circle>
<circle class="landmark" cx="0.200" cy="0.600">  </circle>
<circle class="landmark" cx="0.300" cy="0.600">  </circle>
<circle class="landmark" cx="0.400" cy="0.600">  </circle>
<circle class="landmark" cx="0.500" cy="0.600">  </circle>
<circle class="landmark" cx="0.600" cy="0.600">  </circle>
<circle class="landmark" cx="0.700" cy="0.600">  </circle>
<circle class="landmark" cx="-0.700" cy="0.700">  </circle>
<circle class="landmark" cx="-0.600" cy="0.700">  </circle>
<circle class="landmark" cx="0.400" cy="0.700">  </circle>
<circle class="landmark" cx="0.500" cy="0.700">  </circle>
<circle class="landmark" cx="0.600" cy="0.700">  </circle>
<circle class="landmark" cx="0.700" cy="0.700">  </circle>
<circle class="landmark" cx="-0.700" cy="0.800">  </circle>
<circle class="landmark" cx="-0.600" cy="0.800">  </circle>
<circle class="landmark" cx="-0.400" cy="0.800">  </circle>
<circle class="landmark" cx="-0.300" cy="0.800">  </circle>
<circle class="landmark" cx="-0.200" cy="0.800">  </circle>
<circle class="landmark" cx="-0.100" cy="0.800">  </circle>
<circle class="landmark" cx="-0.000" cy="0.800">  </circle>
<circle class="landmark" cx="0.400" cy="0.800">  </circle>
<circle class="landmark" cx="0.500" cy="0.800">  </circle>
<circle class="landmark" cx="0.600" cy="0.800">  </circle>
<circle class="landmark" cx="0.700" cy="0.800">  </circle>
<circle class="landmark" cx="-0.700" cy="0.900">  </circle>
<circle class="landmark" cx="-0.600" cy="0.900">  </circle>
<circle class="landmark" cx="0.400" cy="0.900">  </circle>
<circle class="landmark" cx="0.500" cy="0.900">  </circle>
<circle class="landmark" cx="0.600" cy="0.900">  </circle>
<circle class="landmark" cx="0.700" cy="0.900">  </circle>
<circle class="landmark" cx="-0.700" cy="1.000">  </circle>
<circle class="landmark" cx="-0.600" cy="1.000">  </circle>
<circle class="landmark" cx="-0.500" cy="1.000">  </circle>
<circle class="landmark" cx="-0.400" cy="1.000">  </circle>
<circle class="landmark" cx="-0.300" cy="1.000">  </circle>
<circle class="landmark" cx="-0.200" cy="1.000">  </circle>
<circle class="landmark" cx="-0.100" cy="1.000">  </circle>
<circle class="landmark" cx="-0.000" cy="1.000">  </circle>
<circle class="landmark" cx="0.100" cy="1.000">  </circle>
<circle class="landmark" cx="0.200" cy="1.000">  </circle>
<circle class="landmark" cx="0.300" cy="1.000">  </circle>
<circle class="landmark" cx="0.400" cy="1.000">  </circle>
<circle class="landmark" cx="0.500" cy="1.000">  </circle>
<circle class="landmark" cx="0.600" cy="1.000">  </circle>
<circle class="landmark" cx="0.700" cy="1.000">  </circle>
<circle class="landmark" cx="-0.700" cy="1.100">  </circle>
<circle class="landmark" cx="-0.600" cy="1.100">  </circle>
<circle class="landmark" cx="-0.500" cy="1.100">  </circle>
<circle class="landmark" cx="-0.400" cy="1.100">  </circle>
<circle class="landmark" cx="-0.300" cy="1.100">  </circle>
<circle class="landmark" cx="-0.200" cy="1.100">  </circle>
<circle class="landmark" cx="-0.100" cy="1.100">  </circle>
<circle class="landmark" cx="-0.000" cy="1.100">  </circle>
<circle class="landmark" cx="0.100" cy="1.100">  </circle>
<circle class="landmark" cx="0.200" cy="1.100">  </circle>
<circle class="landmark" cx="0.300" cy="1.100">  </circle>
<circle class="landmark" cx="0.400" cy="1.100">  </circle>
<circle class="landmark" cx="0.500" cy="1.100">  </circle>
<circle class="landmark" cx="0.600" cy="1.100">  </circle>
<circle class="landmark" cx="0.700" cy="1.100">  </circle>


<circle class="goal" cx="-0.400" cy="0.000" fill="hsl(0, 100%, 50%)">  </circle>
<circle class="goal" cx="-0.100" cy="0.500" fill="hsl(36, 100%, 50%)">  </circle>
<circle class="goal" cx="-0.400" cy="0.100" fill="hsl(72, 100%, 50%)">  </circle>
<circle class="goal" cx="-0.500" cy="0.600" fill="hsl(108, 100%, 50%)">  </circle>
<circle class="goal" cx="-0.200" cy="-0.700" fill="hsl(144, 100%, 50%)">  </circle>
<circle class="goal" cx="0.300" cy="0.300" fill="hsl(180, 100%, 50%)">  </circle>
<circle class="goal" cx="-0.200" cy="0.600" fill="hsl(216, 100%, 50%)">  </circle>
<circle class="goal" cx="-0.400" cy="-0.100" fill="hsl(252, 100%, 50%)">  </circle>
<circle class="goal" cx="-0.500" cy="-0.400" fill="hsl(288, 100%, 50%)">  </circle>
<circle class="goal" cx="-0.400" cy="-0.700" fill="hsl(324, 100%, 50%)">  </circle>


<circle class="agent" fill="hsl(0, 70%, 50%)">
<animate attributeName="cx" dur="0.02s"
	keyTimes="0.0;1.0" repeatCount="indefinite"
	values="0.100;0.099"/>
<animate attributeName="cy" dur="0.02s"
	keyTimes="0.0;1.0" repeatCount="indefinite"
	values="-0.800;-0.800"/>
</circle>


<circle class="agent" fill="hsl(36, 70%, 50%)">
<animate attributeName="cx" dur="0.02s"
	keyTimes="0.0;1.0" repeatCount="indefinite"
	values="0.300;0.300"/>
<animate attributeName="cy" dur="0.02s"
	keyTimes="0.0;1.0" repeatCount="indefinite"
	values="-0.300;-0.300"/>
</circle>


<circle class="agent" fill="hsl(72, 70%, 50%)">
<animate attributeName="cx" dur="0.02s"
	keyTimes="0.0;1.0" repeatCount="indefinite"
	values="0.500;0.500"/>
<animate attributeName="cy" dur="0.02s"
	keyTimes="0.0;1.0" repeatCount="indefinite"
	values="0.500;0.499"/>
</circle>


<circle class="agent" fill="hsl(108, 70%, 50%)">
<animate attributeName="cx" dur="0.02s"
	keyTimes="0.0;1.0" repeatCount="indefinite"
	values="0.100;0.101"/>
<animate attributeName="cy" dur="0.02s"
	keyTimes="0.0;1.0" repeatCount="indefinite"
	values="-0.400;-0.400"/>
</circle>


<circle class="agent" fill="hsl(144, 70%, 50%)">
<animate attributeName="cx" dur="0.02s"
	keyTimes="0.0;1.0" repeatCount="indefinite"
	values="-0.500;-0.500"/>
<animate attributeName="cy" dur="0.02s"
	keyTimes="0.0;1.0" repeatCount="indefinite"
	values="-0.700;-0.699"/>
</circle>


<circle class="agent" fill="hsl(180, 70%, 50%)">
<animate attributeName="cx" dur="0.02s"
	keyTimes="0.0;1.0" repeatCount="indefinite"
	values="-0.500;-0.499"/>
<animate attributeName="cy" dur="0.02s"
	keyTimes="0.0;1.0" repeatCount="indefinite"
	values="-0.600;-0.600"/>
</circle>


<circle class="agent" fill="hsl(216, 70%, 50%)">
<animate attributeName="cx" dur="0.02s"
	keyTimes="0.0;1.0" repeatCount="indefinite"
	values="0.200;0.200"/>
<animate attributeName="cy" dur="0.02s"
	keyTimes="0.0;1.0" repeatCount="indefinite"
	values="0.900;0.899"/>
</circle>


<circle class="agent" fill="hsl(252, 70%, 50%)">
<animate attributeName="cx" dur="0.02s"
	keyTimes="0.0;1.0" repeatCount="indefinite"
	values="-0.500;-0.501"/>
<animate attributeName="cy" dur="0.02s"
	keyTimes="0.0;1.0" repeatCount="indefinite"
	values="0.800;0.801"/>
</circle>


<circle class="agent" fill="hsl(288, 70%, 50%)">
<animate attributeName="cx" dur="0.02s"
	keyTimes="0.0;1.0" repeatCount="indefinite"
	values="-0.200;-0.200"/>
<animate attributeName="cy" dur="0.02s"
	keyTimes="0.0;1.0" repeatCount="indefinite"
	values="-0.100;-0.099"/>
</circle>


<circle class="agent" fill="hsl(324, 70%, 50%)">
<animate attributeName="cx" dur="0.02s"
	keyTimes="0.0;1.0" repeatCount="indefinite"
	values="-0.000;0.001"/>
<animate attributeName="cy" dur="0.02s"
	keyTimes="0.0;1.0" repeatCount="indefinite"
	values="0.700;0.700"/>
</circle>


</svg>