<?xml version="1.0" encoding="UTF-8"?><svg id="b" xmlns="http://www.w3.org/2000/svg" width="730.9" height="565.39" viewBox="0 0 730.9 565.39"><g id="c"><path d="m365.28,1.01h345.5c15.29,0,24.97,16.41,17.6,29.81-27.29,49.64-44,104.02-79.73,145.12-7.54,8.68-16.71,6.72-25.36,6.79-56.79.42-113.59.13-170.39.29-11.86.03-22.16.7-29.38-12.94-24.17-45.67-49.22-90.88-75.83-139.23-7.37-13.4,2.3-29.83,17.59-29.83Z" fill="#11111b" stroke-width="0"/><path d="m20.12,181.46c-15.29,0-24.97-16.43-17.59-29.83C28.28,104.87,53.1,60.02,77.22,14.79,84.01,2.05,93.16-.1,105.94,0c57.9.45,115.8.3,173.7.11,10.92-.04,20.28.15,26.62,11.95,24.75,46.13,49.99,91.99,76.12,139.61,7.35,13.4-2.33,29.79-17.61,29.79H20.12Z" fill="#11111b" stroke-width="0"/><path d="m382.38,241.59c-57.95,105.49-114.15,207.78-172.17,313.38-7.62,13.86-27.56,13.9-35.23.06-27.12-48.92-52.97-95.54-78.84-142.15-5.18-9.33,1.97-15.84,5.64-22.62,29.1-53.79,58.73-107.29,87.87-161.06,6.01-11.09,12.43-18.05,26.95-17.83,48.42.71,96.85.5,148.1.4,15.3-.03,25.05,16.41,17.68,29.82Z" fill="#11111b" stroke-width="0"/></g></svg>