<svg width="145" height="36" viewBox="0 0 145 36" fill="none" xmlns="http://www.w3.org/2000/svg">
<path d="M46.846 29.81V11.74C47.2793 11.6013 47.7907 11.48 48.38 11.376C48.9693 11.272 49.5847 11.1853 50.226 11.116C50.8673 11.0467 51.4913 11.012 52.098 11.012C53.5193 11.012 54.7153 11.3067 55.686 11.896C56.6567 12.468 57.3933 13.2913 57.896 14.366C58.3987 15.4407 58.65 16.706 58.65 18.162C58.65 19.566 58.4507 20.8053 58.052 21.88C57.6533 22.9547 57.0467 23.7953 56.232 24.402C55.4347 25.0087 54.438 25.312 53.242 25.312C52.7913 25.312 52.332 25.26 51.864 25.156C51.4133 25.052 50.928 24.8873 50.408 24.662V29.81H46.846ZM52.514 22.244C53.086 22.244 53.554 22.088 53.918 21.776C54.282 21.464 54.5507 21.0133 54.724 20.424C54.9147 19.8173 55.01 19.098 55.01 18.266C55.01 17.0353 54.7673 16.03 54.282 15.25C53.7967 14.47 53.06 14.08 52.072 14.08C51.7947 14.08 51.5 14.0973 51.188 14.132C50.876 14.1493 50.616 14.1667 50.408 14.184V21.698C50.6507 21.854 50.9627 21.984 51.344 22.088C51.7427 22.192 52.1327 22.244 52.514 22.244ZM66.5948 25.312C65.7282 25.312 64.9395 25.234 64.2288 25.078C63.5182 24.922 62.9028 24.6707 62.3828 24.324C61.8802 23.9773 61.4902 23.518 61.2128 22.946C60.9528 22.3567 60.8228 21.646 60.8228 20.814C60.8228 19.7393 61.0915 18.8987 61.6288 18.292C62.1662 17.668 62.8682 17.226 63.7348 16.966C64.6015 16.6887 65.5202 16.55 66.4908 16.55C66.9762 16.55 67.4268 16.576 67.8428 16.628C68.2588 16.6627 68.6315 16.7147 68.9608 16.784V16.342C68.9608 15.8913 68.8655 15.4927 68.6748 15.146C68.4842 14.782 68.1808 14.496 67.7648 14.288C67.3488 14.08 66.7942 13.976 66.1008 13.976C65.4248 13.976 64.7748 14.028 64.1508 14.132C63.5268 14.2187 63.0155 14.3313 62.6168 14.47L62.1228 11.584C62.5562 11.428 63.1802 11.2893 63.9948 11.168C64.8268 11.0293 65.6762 10.96 66.5428 10.96C68.0335 10.96 69.2035 11.1853 70.0528 11.636C70.9022 12.0867 71.5002 12.728 71.8468 13.56C72.2108 14.392 72.3928 15.38 72.3928 16.524V24.688C71.8728 24.8093 71.0928 24.9393 70.0528 25.078C69.0302 25.234 67.8775 25.312 66.5948 25.312ZM66.8548 22.426C67.2362 22.426 67.6088 22.4173 67.9728 22.4C68.3542 22.3827 68.6835 22.3653 68.9608 22.348V19.202C68.7355 19.1673 68.4582 19.1413 68.1288 19.124C67.7995 19.0893 67.4962 19.072 67.2188 19.072C66.7162 19.072 66.2482 19.1153 65.8148 19.202C65.3815 19.2887 65.0262 19.4533 64.7488 19.696C64.4888 19.9213 64.3588 20.2593 64.3588 20.71C64.3588 21.3167 64.5842 21.7587 65.0348 22.036C65.5028 22.296 66.1095 22.426 66.8548 22.426ZM76.6977 25V12.208C77.6337 11.8613 78.6043 11.584 79.6097 11.376C80.615 11.168 81.785 11.064 83.1197 11.064C83.397 11.064 83.7957 11.0813 84.3157 11.116C84.8357 11.1507 85.3817 11.2113 85.9537 11.298C86.5257 11.3673 87.0283 11.48 87.4617 11.636L86.8117 14.964C86.517 14.8773 86.1443 14.7993 85.6937 14.73C85.243 14.6607 84.801 14.6087 84.3677 14.574C83.9343 14.522 83.5703 14.496 83.2757 14.496C82.773 14.496 82.279 14.522 81.7937 14.574C81.3083 14.6087 80.8143 14.6953 80.3117 14.834V25H76.6977ZM96.6545 25.312C95.5625 25.312 94.6611 25.0953 93.9505 24.662C93.2571 24.2113 92.7458 23.5613 92.4165 22.712C92.0871 21.8453 91.9225 20.7967 91.9225 19.566V7.944H88.1265V4.954H95.5105V19.826C95.5105 20.4327 95.5971 20.9093 95.7705 21.256C95.9438 21.6027 96.1778 21.8453 96.4725 21.984C96.7672 22.1227 97.0965 22.192 97.4605 22.192C98.1712 22.192 98.7692 22.0967 99.2545 21.906C99.7572 21.7153 100.078 21.594 100.216 21.542L100.684 24.428C100.563 24.4973 100.164 24.662 99.4885 24.922C98.8125 25.182 97.8678 25.312 96.6545 25.312ZM108.681 25.312C107.815 25.312 107.026 25.234 106.315 25.078C105.605 24.922 104.989 24.6707 104.469 24.324C103.967 23.9773 103.577 23.518 103.299 22.946C103.039 22.3567 102.909 21.646 102.909 20.814C102.909 19.7393 103.178 18.8987 103.715 18.292C104.253 17.668 104.955 17.226 105.821 16.966C106.688 16.6887 107.607 16.55 108.577 16.55C109.063 16.55 109.513 16.576 109.929 16.628C110.345 16.6627 110.718 16.7147 111.047 16.784V16.342C111.047 15.8913 110.952 15.4927 110.761 15.146C110.571 14.782 110.267 14.496 109.851 14.288C109.435 14.08 108.881 13.976 108.187 13.976C107.511 13.976 106.861 14.028 106.237 14.132C105.613 14.2187 105.102 14.3313 104.703 14.47L104.209 11.584C104.643 11.428 105.267 11.2893 106.081 11.168C106.913 11.0293 107.763 10.96 108.629 10.96C110.12 10.96 111.29 11.1853 112.139 11.636C112.989 12.0867 113.587 12.728 113.933 13.56C114.297 14.392 114.479 15.38 114.479 16.524V24.688C113.959 24.8093 113.179 24.9393 112.139 25.078C111.117 25.234 109.964 25.312 108.681 25.312ZM108.941 22.426C109.323 22.426 109.695 22.4173 110.059 22.4C110.441 22.3827 110.77 22.3653 111.047 22.348V19.202C110.822 19.1673 110.545 19.1413 110.215 19.124C109.886 19.0893 109.583 19.072 109.305 19.072C108.803 19.072 108.335 19.1153 107.901 19.202C107.468 19.2887 107.113 19.4533 106.835 19.696C106.575 19.9213 106.445 20.2593 106.445 20.71C106.445 21.3167 106.671 21.7587 107.121 22.036C107.589 22.296 108.196 22.426 108.941 22.426ZM118.03 25V11.74C118.671 11.5667 119.46 11.402 120.396 11.246C121.349 11.09 122.372 11.012 123.464 11.012C124.92 11.012 126.047 11.2807 126.844 11.818C127.659 12.338 128.222 13.066 128.534 14.002C128.863 14.938 129.028 16.03 129.028 17.278V25H125.44V17.746C125.44 16.8967 125.379 16.212 125.258 15.692C125.137 15.1547 124.911 14.7647 124.582 14.522C124.27 14.262 123.819 14.132 123.23 14.132C122.97 14.132 122.701 14.1493 122.424 14.184C122.164 14.2013 121.887 14.2273 121.592 14.262V25H118.03ZM140.119 25.312C139.01 25.312 138.065 25.182 137.285 24.922C136.505 24.662 135.907 24.142 135.491 23.362C135.092 22.582 134.893 21.4293 134.893 19.904V14.288H131.773V11.324H134.893V7.866L138.481 7.294V11.324H144.227V14.288H138.481V19.826C138.481 20.502 138.559 21.0133 138.715 21.36C138.888 21.6893 139.131 21.9147 139.443 22.036C139.755 22.14 140.11 22.192 140.509 22.192C141.185 22.192 141.766 22.1487 142.251 22.062C142.736 21.9753 143.317 21.776 143.993 21.464L144.487 24.558C143.828 24.8353 143.109 25.026 142.329 25.13C141.566 25.2513 140.83 25.312 140.119 25.312Z" fill="white"/>
<path d="M11.0542 31.6439L8.9752 31.3476L8.9752 31.3476L11.0542 31.6439ZM13.1932 16.6353L11.1142 16.339L13.1932 16.6353ZM18.7881 24.9865C17.6283 24.9865 16.6881 25.9267 16.6881 27.0865C16.6881 28.2463 17.6283 29.1865 18.7881 29.1865L18.7881 24.9865ZM10.9128 31.6962L12.299 30.1187L12.2989 30.1186L10.9128 31.6962ZM4.38422 23.1639L2.80671 21.7777L0.0343673 24.9327L1.61187 26.3189L4.38422 23.1639ZM36.9979 17.4435L34.8979 17.4436L36.9979 17.4435ZM13.1332 31.9401L15.2722 16.9316L11.1142 16.339L8.9752 31.3476L13.1332 31.9401ZM23.376 9.90078L27.3551 9.90078L27.3551 5.70078L23.376 5.70078L23.376 9.90078ZM27.3551 24.9865L18.7881 24.9865L18.7881 29.1865L27.3551 29.1865L27.3551 24.9865ZM12.2989 30.1186L4.38422 23.1639L1.61187 26.3189L9.52659 33.2737L12.2989 30.1186ZM15.2722 16.9316C15.8471 12.8977 19.3013 9.90078 23.376 9.90078L23.376 5.70078C17.2107 5.70078 11.984 10.2353 11.1142 16.339L15.2722 16.9316ZM8.9752 31.3476C9.20106 29.7627 11.0963 29.0619 12.299 30.1187L9.52655 33.2736C10.8315 34.4204 12.8881 33.6599 13.1332 31.9401L8.9752 31.3476ZM34.8979 17.4436C34.898 21.6094 31.5209 24.9865 27.3551 24.9865L27.3551 29.1865C33.8405 29.1865 39.098 23.929 39.0979 17.4435L34.8979 17.4436ZM39.0979 17.4435C39.0979 10.9582 33.8405 5.70078 27.3551 5.70078L27.3551 9.90078C31.5209 9.90078 34.8979 13.2778 34.8979 17.4436L39.0979 17.4435Z" fill="white"/>
<rect x="18.0957" y="16.3711" width="3.4" height="3.42857" rx="1.7" fill="white"/>
<rect x="23.1953" y="16.3711" width="3.4" height="3.42857" rx="1.7" fill="white"/>
<rect x="28.2969" y="16.3711" width="3.4" height="3.42857" rx="1.7" fill="white"/>
</svg>