<svg xmlns="http://www.w3.org/2000/svg" xml:space="preserve" style="fill-rule:evenodd;clip-rule:evenodd;stroke-linejoin:round;stroke-miterlimit:2" viewBox="0 0 512 416"><path d="M640.205 482.152c-29.945 58.724-90.983 98.944-161.422 98.944-100.016 0-181.096-81.079-181.096-181.096 0-100.016 81.08-181.096 181.096-181.096 94.404 0 171.922 72.238 180.327 164.451 11.194-1.073 21.653-1.017 31.393-.089-8.534-109.468-100.062-195.64-211.72-195.64-117.291 0-212.374 95.083-212.374 212.374s95.083 212.374 212.374 212.374c95.134 0 175.639-62.56 202.665-148.78-13.685 5.514-27.459 11.911-41.243 18.558" style="fill:#28aae1;fill-rule:nonzero" transform="matrix(.97904 0 0 .97928 -260.826 -183.739)"/><path d="M658.124 449.744c18.718-6.303 35.903-9.626 51.598-10.721-21.529-1.564-46.462 1.131-74.945 10.721-64.789 21.815-132.458 70.433-194.196 76.278 67.753 7.01 144.479-51.677 217.543-76.278m41.935 6.931c18.719-6.302 35.904-9.626 51.598-10.72-21.529-1.564-46.462 1.13-74.944 10.72-64.789 21.816-132.458 70.434-194.197 76.278 67.754 7.011 144.48-51.676 217.543-76.278" style="fill:#28aae1;fill-rule:nonzero" transform="matrix(.97904 0 0 .97928 -260.826 -183.739)"/><path d="M789.285 461.298s-56.605-91.614-182.108-49.356c-96.74 32.574-199.903 124.913-280.155 45.371 0 0 38.436 77.19 159.828 36.654 119.731-39.981 202.823-100.446 302.435-32.669" style="fill:#283f8f" transform="matrix(.97904 0 0 .97928 -260.826 -183.739)"/><path d="M397.017 473.775c-36.455-15.352-62.05-51.411-62.05-93.45 0-19.215 5.348-37.18 14.635-52.491-19.948 18.511-32.435 44.949-32.435 74.308l.001.489c.139 29.242 18.824 55.37 46.459 64.931 10.899 3.771 22.043 5.73 33.39 6.213" style="fill:#28aae1;fill-rule:nonzero" transform="matrix(.97904 0 0 .97928 -260.826 -183.739)"/><path d="M452.072 460.568c-43.363-18.261-73.807-61.154-73.807-111.158 0-22.856 6.361-44.226 17.408-62.437-23.728 22.017-38.581 53.465-38.581 88.387l.001.582c.165 34.783 22.391 65.863 55.262 77.236 12.965 4.485 26.221 6.815 39.717 7.39" style="fill:#28aae1;fill-rule:nonzero" transform="matrix(.97904 0 0 .97928 -260.826 -183.739)"/></svg>
