<svg xmlns="http://www.w3.org/2000/svg" xml:space="preserve"
     style="fill-rule:evenodd;clip-rule:evenodd;stroke-miterlimit:3" viewBox="0 0 614 560">
    <style>
        .text-color {
            fill: black;
        }
        @media (prefers-color-scheme: dark) {
            .text-color { fill: white; }
        }
    </style>

    <path d="M627.587 274.864h43.167v102.49h-43.167z" style="fill:#78f075" transform="translate(-210.202 -225.793)"/>
    <path d="M670.754 284.815c22.109 0 95.616-.42 113.055 0-12.446 38.214-41.158 85.928-113.055 85.928 0-22.444.078-62.148 0-85.928M627.625 388.564c-27.52 0-54.931 3.286-54.931 39.639 0 23.157 39.15 60.202 89.322 71.588-1.391 16.98-.353 29.017.104 43.261-55.325-1.878-302.118.297-313.866.703 3.117-20.347.961-26.264 0-42.545 58.439-16.051 87.513-48.386 86.304-81.86-2.496-69.13-91.306-91.06-184.884-85.52 1.419-22.732 1.479-47.444 0-68.508 3.182 1.194 87.989 1.505 176.892 1.36 88.297-.144 180.635-.737 201.059-1.36-.225 42.671.254 102.669 0 123.242"
          style="fill:#78f075" transform="translate(-210.202 -225.793)"/>
    <path d="M619.579 278.048h51.537v36.501h-51.537z" style="fill:#fff"
          transform="matrix(.8376 0 0 .68492 -101.574 -141.369)"/>
    <path d="M412.712 370.743s42.642 6.15 43.214 63.374c.53 53.031-82.65 84.898-82.65 84.898.574 10.654 1.573 13.869 0 24.4-7.146.078-22.714.314-25.022.34 3.117-20.347.961-26.264 0-42.545 58.439-16.051 87.513-48.386 86.304-81.86-.722-19.992-8.663-36.037-21.846-48.607M670.788 309.617c-.002-9.101-.011-17.668-.034-24.802 21.937 0 94.472-.413 112.636-.01l.419.01c-9.209 7.187-83.997 24.585-113.016 24.813zM250.699 290.322c-.13-8.648-.469-17.082-1.025-25 3.182 1.194 87.989 1.505 176.892 1.36 88.209-.144 180.451-.736 200.997-1.358v24.998z"
          style="fill:#fff" transform="translate(-210.202 -225.793)"/>
    <path d="M627.587 351.538h43.167v25.816h-43.167z" style="fill:#354400"
          transform="matrix(1 0 0 .9684 -210.202 -213.868)"/>
    <path d="m783.573 284.81.236.005c-12.444 38.206-41.147 85.909-113.012 85.928l-.036-.114v-.002c.501-8.31.384-14.32.355-25.776 46.72 2.63 75.358-18.351 112.457-60.041M637.106 542.635v-24.969c-9.799-2.461-94.141-39.78-91.083-89.463 4.047-65.751 70.938-66.172 81.557-64.62v24.981c-27.502.004-54.886 3.304-54.886 39.639 0 23.157 39.15 60.202 89.322 71.588-1.391 16.98.506 29.017.104 43.261-7.944-.27-10.37-.362-25.014-.417"
          style="fill:#354400" transform="translate(-210.202 -225.793)"/>
    <path d="M627.625 388.564c-27.52 0-54.931 3.286-54.931 39.639 0 23.157 39.15 60.202 89.322 71.588-1.391 16.98-.353 29.017.104 43.261-55.325-1.878-302.118.297-313.866.703 3.117-20.347.961-26.264 0-42.545 58.439-16.051 87.513-48.386 86.304-81.86-2.496-69.13-91.306-91.06-184.884-85.52 1.419-22.732 1.479-47.444 0-68.508 3.182 1.194 87.989 1.505 176.892 1.36 88.297-.144 180.635-.737 201.059-1.36-.225 42.671.254 102.669 0 123.242Z"
          style="fill:none;stroke:#000;stroke-width:25px" transform="translate(-210.145 -225.793)"/>
    <path d="M627.587 274.864h43.167v102.49h-43.167z"
          style="fill:none;stroke:#000;stroke-width:25px;stroke-miterlimit:1.5"
          transform="translate(-210.202 -225.793)"/>
    <path d="M670.761 284.81c22.109 0 95.609-.415 113.048.005-12.446 38.214-41.158 85.928-113.055 85.928 0-21.988.084-62.153.007-85.933Z"
          style="fill:none;stroke:#000;stroke-width:25px" transform="translate(-210.202 -225.793)"/>
    <path d="M.086 0h.176v-.2h.094C.52-.2.634-.305.634-.455.634-.596.528-.7.375-.7H.086zm.27-.545a.09.09 0 0 1 .091.092c0 .059-.038.098-.091.098H.262v-.19z"
          class="text-color" style="fill-rule:nonzero" transform="matrix(112.92322 0 0 112.92322 45.175 429.079)"/>
    <path d="M.667 0 .522-.254a.23.23 0 0 0 .122-.203C.644-.602.537-.7.38-.7H.086V0h.176v-.216h.087L.472 0zM.362-.545c.056 0 .095.035.095.088s-.04.09-.095.09h-.1v-.178z"
          class="text-color" style="fill-rule:nonzero" transform="matrix(112.92322 0 0 112.92322 121.737 429.079)"/>
    <path d="M.393.01c.203 0 .343-.148.343-.36 0-.214-.14-.36-.343-.36-.201 0-.344.146-.344.36 0 .212.143.36.344.36m0-.16c-.098 0-.166-.085-.166-.2 0-.116.068-.2.166-.2s.165.084.165.2c0 .115-.067.2-.165.2"
          class="text-color" style="fill-rule:nonzero" transform="matrix(112.92322 0 0 112.92322 199.315 429.079)"/>
    <path d="M.01-.042A.3.3 0 0 0 .185.01C.34.01.444-.097.444-.255V-.7H.268v.445c0 .061-.039.105-.095.105a.2.2 0 0 1-.101-.036z"
          class="text-color" style="fill-rule:nonzero" transform="matrix(112.92322 0 0 112.92322 281.75 429.079)"/>
    <path d="m.559 0 .018-.16H.262v-.115h.243v-.152H.262V-.54h.309L.553-.7H.086V0z" class="text-color" style="fill-rule:nonzero"
          transform="matrix(112.92322 0 0 112.92322 340.808 429.079)"/>
    <path d="M.227-.35c0-.119.071-.2.176-.2.049 0 .098.018.133.047l.09-.128A.35.35 0 0 0 .397-.71c-.206 0-.348.147-.348.36s.142.36.348.36c.09 0 .169-.028.229-.079l-.09-.128a.2.2 0 0 1-.133.047c-.105 0-.176-.081-.176-.2"
          class="text-color" style="fill-rule:nonzero" transform="matrix(112.92322 0 0 112.92322 410.03 429.079)"/>
    <path d="M.602-.54.584-.7H.038L.02-.54h.203V0h.176v-.54z" class="text-color" style="fill-rule:nonzero"
          transform="matrix(112.92322 0 0 112.92322 484.108 429.079)"/>
    <path d="M.486-.263v-.13H.239V-.57h.293L.517-.7h-.42V0h.142v-.263z" class="text-color" style="fill-rule:nonzero"
          transform="matrix(164.99952 0 0 153.34992 20.968 557.533)"/>
    <path d="M.394.01c.198 0 .335-.148.335-.36 0-.214-.137-.36-.335-.36-.196 0-.336.146-.336.36 0 .212.139.36.336.36m0-.13C.28-.12.202-.217.202-.35c0-.134.078-.23.192-.23s.191.096.191.23c0 .133-.077.23-.191.23"
          class="text-color" style="fill-rule:nonzero" transform="matrix(164.99952 0 0 153.34992 111.057 557.533)"/>
    <path d="M.648 0 .495-.263a.21.21 0 0 0 .137-.203C.632-.606.529-.7.378-.7H.097V0h.142v-.234h.115L.49 0zM.365-.575c.068 0 .115.043.115.109s-.048.11-.115.11H.239v-.219z"
          class="text-color" style="fill-rule:nonzero" transform="matrix(164.99952 0 0 153.34992 240.912 557.533)"/>
    <path d="M.664-.396h-.26v.123h.124v.127a.3.3 0 0 1-.117.026C.283-.12.202-.213.202-.35s.084-.23.213-.23c.06 0 .117.02.155.054l.075-.103A.35.35 0 0 0 .408-.71c-.208 0-.35.147-.35.36 0 .214.139.36.348.36.096 0 .189-.03.258-.084z"
          class="text-color" style="fill-rule:nonzero" transform="matrix(164.99952 0 0 153.34992 353.112 557.533)"/>
    <path d="m.557 0 .015-.13H.239v-.161h.265v-.124H.239V-.57h.326L.55-.7H.097V0z" class="text-color" style="fill-rule:nonzero"
          transform="matrix(164.99952 0 0 153.34992 474.716 557.533)"/></svg>
