<?xml version="1.0" encoding="windows-1252"?>
<!-- Uploaded to: SVG Repo, www.svgrepo.com, Generator: SVG Repo Mixer Tools -->
<svg height="800px" width="800px" version="1.1" id="Layer_1" xmlns="http://www.w3.org/2000/svg" xmlns:xlink="http://www.w3.org/1999/xlink" viewBox="0 0 512 512" xml:space="preserve">
<path style="fill:#E15649;" d="M423.724,264.52H141.241c-9.71,0-17.655-7.945-17.655-17.655v-88.276  c0-9.71,7.945-17.655,17.655-17.655h282.483c9.71,0,17.655,7.945,17.655,17.655v88.276  C441.379,256.575,433.434,264.52,423.724,264.52"/>
<path style="fill:#BC342E;" d="M467.862,238.037h-26.483v-70.621h26.483c5.297,0,8.828,3.531,8.828,8.828v52.966  C476.69,234.506,473.159,238.037,467.862,238.037"/>
<path style="fill:#A3AAAF;" d="M503.172,220.382H476.69v-35.31h26.483c5.297,0,8.828,3.531,8.828,8.828v17.655  C512,216.851,508.469,220.382,503.172,220.382"/>
<path style="fill:#BC342E;" d="M228.634,325.43l-10.593-60.91h-51.2h-7.945l21.186,92.69c2.648,9.71,12.359,15.89,22.069,13.241  c18.538-5.297,30.014-24.717,26.483-43.255V325.43z"/>
<path style="fill:#E15649;" d="M83.862,189.486c0-1.766,0.883-2.648,0.883-4.414H51.2l-26.483-24.717L0,185.072l37.076,35.31h44.138  L83.862,189.486z"/>
<g>
	<path style="fill:#BC342E;" d="M361.931,202.727H203.034c-9.71,0-17.655-7.945-17.655-17.655v-44.138h194.207v44.138   C379.586,194.782,371.641,202.727,361.931,202.727"/>
	<path style="fill:#BC342E;" d="M123.586,246.865v-88.276h-5.297c-17.655,0-32.662,13.241-35.31,30.897L71.503,351.913   c-0.883,9.71,7.062,18.538,17.655,18.538c19.421,0,36.193-14.124,37.959-33.545v-1.766l5.297-70.621l0.883-1.766   C128,260.106,123.586,253.927,123.586,246.865"/>
	<path style="fill:#BC342E;" d="M388.414,229.21c-5.297,0-8.828,3.531-8.828,8.828v26.483h17.655v-26.483   C397.241,232.741,393.71,229.21,388.414,229.21"/>
	<path style="fill:#BC342E;" d="M317.793,229.21c-5.297,0-8.828,3.531-8.828,8.828v26.483h17.655v-26.483   C326.621,232.741,323.09,229.21,317.793,229.21"/>
	<path style="fill:#BC342E;" d="M247.172,229.21c-5.297,0-8.828,3.531-8.828,8.828v26.483H256v-26.483   C256,232.741,252.469,229.21,247.172,229.21"/>
</g>
</svg>
